<svg version="1.1" viewBox="0.0 0.0 600.0 371.0" fill="none" stroke="none" stroke-linecap="square" stroke-miterlimit="10" width="600" height="371" xmlns:xlink="http://www.w3.org/1999/xlink" xmlns="http://www.w3.org/2000/svg"><path fill="#ffffff" d="M0 0L600.0 0L600.0 371.0L0 371.0L0 0Z" fill-rule="nonzero"/><path stroke="#333333" stroke-width="1.0" stroke-linecap="butt" d="M77.5 300.5L581.5 300.5" fill-rule="nonzero"/><path stroke="#cccccc" stroke-width="1.0" stroke-linecap="butt" d="M77.5 240.5L581.5 240.5" fill-rule="nonzero"/><path stroke="#cccccc" stroke-width="1.0" stroke-linecap="butt" d="M77.5 181.5L581.5 181.5" fill-rule="nonzero"/><path stroke="#cccccc" stroke-width="1.0" stroke-linecap="butt" d="M77.5 121.5L581.5 121.5" fill-rule="nonzero"/><path stroke="#cccccc" stroke-width="1.0" stroke-linecap="butt" d="M77.5 61.5L581.5 61.5" fill-rule="nonzero"/><clipPath id="id_0"><path d="M77.55 61.916668L581.45 61.916668L581.45 300.45L77.55 300.45L77.55 61.916668Z" clip-rule="nonzero"/></clipPath><path stroke="#000000" stroke-width="2.0" stroke-linecap="butt" stroke-opacity="0.0" clip-path="url(#id_0)" d="M126.0 300.0L94.0 300.0L94.0 300.0L126.0 300.0Z" fill-rule="nonzero"/><path fill="#4285f4" clip-path="url(#id_0)" d="M126.0 300.0L94.0 300.0L94.0 300.0L126.0 300.0Z" fill-rule="nonzero"/><path stroke="#000000" stroke-width="2.0" stroke-linecap="butt" stroke-opacity="0.0" clip-path="url(#id_0)" d="M175.0 300.0L143.0 300.0L143.0 300.0L175.0 300.0Z" fill-rule="nonzero"/><path fill="#4285f4" clip-path="url(#id_0)" d="M175.0 300.0L143.0 300.0L143.0 300.0L175.0 300.0Z" fill-rule="nonzero"/><path stroke="#000000" stroke-width="2.0" stroke-linecap="butt" stroke-opacity="0.0" clip-path="url(#id_0)" d="M224.0 300.0L192.0 300.0L192.0 300.0L224.0 300.0Z" fill-rule="nonzero"/><path fill="#4285f4" clip-path="url(#id_0)" d="M224.0 300.0L192.0 300.0L192.0 300.0L224.0 300.0Z" fill-rule="nonzero"/><path stroke="#000000" stroke-width="2.0" stroke-linecap="butt" stroke-opacity="0.0" clip-path="url(#id_0)" d="M272.0 300.0L240.0 300.0L240.0 300.0L272.0 300.0Z" fill-rule="nonzero"/><path fill="#4285f4" clip-path="url(#id_0)" d="M272.0 300.0L240.0 300.0L240.0 300.0L272.0 300.0Z" fill-rule="nonzero"/><path stroke="#000000" stroke-width="2.0" stroke-linecap="butt" stroke-opacity="0.0" clip-path="url(#id_0)" d="M321.0 300.0L289.0 300.0L289.0 243.0C289.0 241.89543 289.89542 241.0 291.0 241.0L319.0 241.0C320.10458 241.0 321.0 241.89543 321.0 243.0Z" fill-rule="nonzero"/><path fill="#4285f4" clip-path="url(#id_0)" d="M321.0 300.0L289.0 300.0L289.0 243.0C289.0 241.89543 289.89542 241.0 291.0 241.0L319.0 241.0C320.10458 241.0 321.0 241.89543 321.0 243.0Z" fill-rule="nonzero"/><path stroke="#000000" stroke-width="2.0" stroke-linecap="butt" stroke-opacity="0.0" clip-path="url(#id_0)" d="M370.0 300.0L338.0 300.0L338.0 300.0L370.0 300.0Z" fill-rule="nonzero"/><path fill="#4285f4" clip-path="url(#id_0)" d="M370.0 300.0L338.0 300.0L338.0 300.0L370.0 300.0Z" fill-rule="nonzero"/><path stroke="#000000" stroke-width="2.0" stroke-linecap="butt" stroke-opacity="0.0" clip-path="url(#id_0)" d="M419.0 300.0L387.0 300.0L387.0 243.0C387.0 241.89543 387.89542 241.0 389.0 241.0L417.0 241.0C418.10458 241.0 419.0 241.89543 419.0 243.0Z" fill-rule="nonzero"/><path fill="#4285f4" clip-path="url(#id_0)" d="M419.0 300.0L387.0 300.0L387.0 243.0C387.0 241.89543 387.89542 241.0 389.0 241.0L417.0 241.0C418.10458 241.0 419.0 241.89543 419.0 243.0Z" fill-rule="nonzero"/><path stroke="#000000" stroke-width="2.0" stroke-linecap="butt" stroke-opacity="0.0" clip-path="url(#id_0)" d="M467.0 300.0L435.0 300.0L435.0 243.0C435.0 241.89543 435.89542 241.0 437.0 241.0L465.0 241.0C466.10458 241.0 467.0 241.89543 467.0 243.0Z" fill-rule="nonzero"/><path fill="#4285f4" clip-path="url(#id_0)" d="M467.0 300.0L435.0 300.0L435.0 243.0C435.0 241.89543 435.89542 241.0 437.0 241.0L465.0 241.0C466.10458 241.0 467.0 241.89543 467.0 243.0Z" fill-rule="nonzero"/><path stroke="#000000" stroke-width="2.0" stroke-linecap="butt" stroke-opacity="0.0" clip-path="url(#id_0)" d="M516.0 300.0L484.0 300.0L484.0 243.0C484.0 241.89543 484.89542 241.0 486.0 241.0L514.0 241.0C515.10455 241.0 516.0 241.89543 516.0 243.0Z" fill-rule="nonzero"/><path fill="#4285f4" clip-path="url(#id_0)" d="M516.0 300.0L484.0 300.0L484.0 243.0C484.0 241.89543 484.89542 241.0 486.0 241.0L514.0 241.0C515.10455 241.0 516.0 241.89543 516.0 243.0Z" fill-rule="nonzero"/><path stroke="#000000" stroke-width="2.0" stroke-linecap="butt" stroke-opacity="0.0" clip-path="url(#id_0)" d="M565.0 300.0L533.0 300.0L533.0 64.0C533.0 62.89543 533.89545 62.0 535.0 62.0L563.0 62.0C564.10455 62.0 565.0 62.89543 565.0 64.0Z" fill-rule="nonzero"/><path fill="#4285f4" clip-path="url(#id_0)" d="M565.0 300.0L533.0 300.0L533.0 64.0C533.0 62.89543 533.89545 62.0 535.0 62.0L563.0 62.0C564.10455 62.0 565.0 62.89543 565.0 64.0Z" fill-rule="nonzero"/><path fill="#000000" d="M314.04688 346.6844L315.10938 346.59064Q315.1875 347.2469 315.46875 347.65314Q315.75 348.0594 316.32812 348.325Q316.92188 348.575 317.65625 348.575Q318.29688 348.575 318.79688 348.3875Q319.29688 348.1844 319.53125 347.85626Q319.78125 347.5125 319.78125 347.1219Q319.78125 346.71564 319.54688 346.41876Q319.3125 346.10626 318.78125 345.90314Q318.42188 345.7625 317.23438 345.48126Q316.0625 345.2 315.59375 344.95Q314.96875 344.6219 314.67188 344.15314Q314.375 343.66876 314.375 343.075Q314.375 342.4344 314.73438 341.8719Q315.10938 341.29376 315.8125 341.0125Q316.53125 340.71564 317.39062 340.71564Q318.34375 340.71564 319.07812 341.02814Q319.8125 341.325 320.20312 341.9344Q320.59375 342.52814 320.625 343.27814L319.53125 343.35626Q319.4375 342.54376 318.92188 342.1375Q318.42188 341.71564 317.4375 341.71564Q316.40625 341.71564 315.9375 342.09064Q315.46875 342.46564 315.46875 342.9969Q315.46875 343.46564 315.79688 343.7625Q316.125 344.0594 317.5 344.3719Q318.89062 344.6844 319.40625 344.91876Q320.15625 345.27814 320.51562 345.8094Q320.875 346.325 320.875 347.02814Q320.875 347.71564 320.48438 348.325Q320.09375 348.91876 319.35938 349.2625Q318.625 349.59064 317.70312 349.59064Q316.53125 349.59064 315.73438 349.2625Q314.95312 348.91876 314.5 348.23126Q314.0625 347.54376 314.04688 346.6844ZM326.35938 347.16876L327.39062 347.3094Q327.21875 348.3719 326.51562 348.98126Q325.8125 349.59064 324.79688 349.59064Q323.51562 349.59064 322.73438 348.7625Q321.96875 347.91876 321.96875 346.35626Q321.96875 345.35626 322.29688 344.60626Q322.64062 343.84064 323.3125 343.46564Q324.0 343.09064 324.8125 343.09064Q325.8125 343.09064 326.45312 343.60626Q327.10938 344.10626 327.29688 345.0594L326.26562 345.21564Q326.125 344.59064 325.75 344.27814Q325.375 343.95 324.84375 343.95Q324.04688 343.95 323.54688 344.52814Q323.04688 345.09064 323.04688 346.325Q323.04688 347.59064 323.53125 348.15314Q324.01562 348.71564 324.78125 348.71564Q325.40625 348.71564 325.8125 348.34064Q326.23438 347.96564 326.35938 347.16876ZM327.90625 346.34064Q327.90625 344.60626 328.85938 343.77814Q329.65625 343.09064 330.8125 343.09064Q332.09375 343.09064 332.90625 343.9344Q333.73438 344.7625 333.73438 346.2469Q333.73438 347.45 333.375 348.1375Q333.01562 348.825 332.3125 349.21564Q331.625 349.59064 330.8125 349.59064Q329.51562 349.59064 328.70312 348.7625Q327.90625 347.91876 327.90625 346.34064ZM328.98438 346.34064Q328.98438 347.52814 329.5 348.1219Q330.03125 348.71564 330.8125 348.71564Q331.60938 348.71564 332.125 348.1219Q332.64062 347.52814 332.64062 346.3094Q332.64062 345.15314 332.10938 344.5594Q331.59375 343.96564 330.8125 343.96564Q330.03125 343.96564 329.5 344.5594Q328.98438 345.1375 328.98438 346.34064ZM335.28125 349.45L335.28125 343.23126L336.23438 343.23126L336.23438 344.16876Q336.59375 343.5125 336.89062 343.3094Q337.20312 343.09064 337.57812 343.09064Q338.10938 343.09064 338.65625 343.41876L338.29688 344.40314Q337.90625 344.16876 337.53125 344.16876Q337.17188 344.16876 336.89062 344.3875Q336.625 344.59064 336.51562 344.96564Q336.32812 345.52814 336.32812 346.1844L336.32812 349.45L335.28125 349.45ZM343.54688 347.45L344.64062 347.575Q344.39062 348.52814 343.6875 349.0594Q342.98438 349.59064 341.90625 349.59064Q340.54688 349.59064 339.73438 348.7469Q338.9375 347.90314 338.9375 346.3875Q338.9375 344.825 339.75 343.96564Q340.5625 343.09064 341.84375 343.09064Q343.09375 343.09064 343.875 343.9344Q344.67188 344.77814 344.67188 346.325Q344.67188 346.41876 344.67188 346.60626L340.03125 346.60626Q340.09375 347.6375 340.60938 348.1844Q341.125 348.71564 341.90625 348.71564Q342.48438 348.71564 342.89062 348.41876Q343.3125 348.10626 343.54688 347.45ZM340.09375 345.7469L343.5625 345.7469Q343.5 344.95 343.17188 344.5594Q342.65625 343.95 341.85938 343.95Q341.125 343.95 340.625 344.4344Q340.14062 344.91876 340.09375 345.7469Z" fill-rule="nonzero"/><path fill="#000000" d="M29.550013 198.07396L21.971888 198.07396L21.971888 200.90208L20.956263 200.90208L20.956263 194.08958L21.971888 194.08958L21.971888 196.93333L29.550013 196.93333L29.550013 198.07396ZM26.440638 193.77708Q24.706263 193.77708 23.878138 192.82396Q23.190638 192.02708 23.190638 190.87083Q23.190638 189.58958 24.034388 188.77708Q24.862513 187.94896 26.346888 187.94896Q27.550013 187.94896 28.237513 188.30833Q28.925013 188.66771 29.315638 189.37083Q29.690638 190.05833 29.690638 190.87083Q29.690638 192.16771 28.862513 192.98021Q28.018763 193.77708 26.440638 193.77708ZM26.440638 192.69896Q27.628138 192.69896 28.221888 192.18333Q28.815638 191.65208 28.815638 190.87083Q28.815638 190.07396 28.221888 189.55833Q27.628138 189.04271 26.409388 189.04271Q25.253138 189.04271 24.659388 189.57396Q24.065638 190.08958 24.065638 190.87083Q24.065638 191.65208 24.659388 192.18333Q25.237513 192.69896 26.440638 192.69896ZM28.612513 184.08958L29.534388 183.93333Q29.628138 184.38646 29.628138 184.73021Q29.628138 185.30833 29.456263 185.62083Q29.268763 185.93333 28.971888 186.07396Q28.675013 186.19896 27.721888 186.19896L24.143763 186.19896L24.143763 186.96458L23.331263 186.96458L23.331263 186.19896L21.784388 186.19896L21.159388 185.15208L23.331263 185.15208L23.331263 184.08958L24.143763 184.08958L24.143763 185.15208L27.784388 185.15208Q28.237513 185.15208 28.362513 185.10521Q28.487513 185.04271 28.565638 184.91771Q28.643763 184.79271 28.643763 184.55833Q28.643763 184.37083 28.612513 184.08958ZM28.784388 179.32396Q29.284388 179.91771 29.487513 180.46458Q29.690638 180.99583 29.690638 181.62083Q29.690638 182.65208 29.190638 183.19896Q28.690638 183.74583 27.909388 183.74583Q27.456263 183.74583 27.081263 183.54271Q26.690638 183.33958 26.471888 182.99583Q26.237513 182.65208 26.128138 182.23021Q26.034388 181.93333 25.956263 181.29271Q25.815638 180.02708 25.596888 179.41771Q25.378138 179.41771 25.331263 179.41771Q24.675013 179.41771 24.409388 179.71458Q24.065638 180.12083 24.065638 180.91771Q24.065638 181.65208 24.331263 182.01146Q24.581263 182.37083 25.237513 182.54271L25.096888 183.57396Q24.440638 183.43333 24.034388 183.10521Q23.628138 182.77708 23.409388 182.16771Q23.190638 181.55833 23.190638 180.76146Q23.190638 179.96458 23.378138 179.46458Q23.565638 178.96458 23.846888 178.73021Q24.128138 178.49583 24.565638 178.40208Q24.831263 178.35521 25.534388 178.35521L26.940638 178.35521Q28.409388 178.35521 28.800013 178.29271Q29.190638 178.21458 29.550013 178.01146L29.550013 179.12083Q29.221888 179.27708 28.784388 179.32396ZM26.425013 179.41771Q26.659388 179.99583 26.831263 181.13646Q26.925013 181.79271 27.050013 182.05833Q27.159388 182.32396 27.378138 182.48021Q27.596888 182.62083 27.878138 182.62083Q28.300013 182.62083 28.581263 182.30833Q28.862513 181.98021 28.862513 181.37083Q28.862513 180.76146 28.596888 180.29271Q28.331263 179.80833 27.862513 179.58958Q27.503138 179.41771 26.815638 179.41771L26.425013 179.41771ZM29.550013 176.41771L20.956263 176.41771L20.956263 175.35521L29.550013 175.35521L29.550013 176.41771Z" fill-rule="nonzero"/><path fill="#000000" d="M65.05 300.21564Q65.05 298.6844 65.3625 297.7625Q65.675 296.825 66.28438 296.325Q66.90938 295.825 67.84688 295.825Q68.53438 295.825 69.05 296.10626Q69.58125 296.3875 69.925 296.91876Q70.26875 297.4344 70.45625 298.1844Q70.64375 298.9344 70.64375 300.21564Q70.64375 301.73126 70.33125 302.65314Q70.03438 303.575 69.40938 304.09064Q68.8 304.59064 67.84688 304.59064Q66.6125 304.59064 65.89375 303.7Q65.05 302.6375 65.05 300.21564ZM66.12813 300.21564Q66.12813 302.325 66.62813 303.02814Q67.12813 303.73126 67.84688 303.73126Q68.58125 303.73126 69.06563 303.02814Q69.56563 302.325 69.56563 300.21564Q69.56563 298.09064 69.06563 297.40314Q68.58125 296.7 67.83125 296.7Q67.1125 296.7 66.675 297.3094Q66.12813 298.09064 66.12813 300.21564Z" fill-rule="nonzero"/><path fill="#000000" d="M69.01875 244.81667L67.97188 244.81667L67.97188 238.09792Q67.58125 238.45729 66.95625 238.83229Q66.34688 239.19167 65.8625 239.36354L65.8625 238.34792Q66.7375 237.92604 67.39375 237.34792Q68.06563 236.75417 68.34688 236.19167L69.01875 236.19167L69.01875 244.81667Z" fill-rule="nonzero"/><path fill="#000000" d="M70.59688 184.16771L70.59688 185.18333L64.90938 185.18333Q64.90938 184.80833 65.03438 184.44896Q65.25313 183.87083 65.72188 183.30833Q66.20625 182.74583 67.1125 182.01146Q68.51875 180.85521 69.00313 180.18333Q69.50313 179.51146 69.50313 178.91771Q69.50313 178.29271 69.05 177.87083Q68.59688 177.43333 67.87813 177.43333Q67.1125 177.43333 66.65938 177.88646Q66.20625 178.33958 66.19063 179.15208L65.1125 179.04271Q65.22188 177.82396 65.94063 177.19896Q66.675 176.55833 67.90938 176.55833Q69.14375 176.55833 69.8625 177.24583Q70.58125 177.93333 70.58125 178.94896Q70.58125 179.46458 70.3625 179.96458Q70.15938 180.44896 69.65938 181.01146Q69.175 181.55833 68.05 182.51146Q67.09688 183.30833 66.81563 183.60521Q66.55 183.88646 66.37813 184.16771L70.59688 184.16771Z" fill-rule="nonzero"/><path fill="#000000" d="M65.05 123.28438L66.1125 123.14375Q66.28438 124.03438 66.72188 124.44063Q67.15938 124.83125 67.78438 124.83125Q68.53438 124.83125 69.05 124.31563Q69.56563 123.8 69.56563 123.03438Q69.56563 122.31563 69.08125 121.84688Q68.6125 121.3625 67.87813 121.3625Q67.58125 121.3625 67.12813 121.4875L67.25313 120.55Q67.3625 120.56563 67.425 120.56563Q68.09688 120.56563 68.62813 120.22188Q69.175 119.8625 69.175 119.12813Q69.175 118.55 68.78438 118.175Q68.39375 117.78438 67.76875 117.78438Q67.15938 117.78438 66.7375 118.175Q66.33125 118.56563 66.22188 119.33125L65.15938 119.14375Q65.34688 118.09688 66.03438 117.51875Q66.72188 116.925 67.7375 116.925Q68.44063 116.925 69.03438 117.2375Q69.62813 117.53438 69.94063 118.05Q70.25313 118.56563 70.25313 119.15938Q70.25313 119.70625 69.95625 120.175Q69.65938 120.62813 69.08125 120.89375Q69.83125 121.06563 70.25313 121.62813Q70.675 122.175 70.675 123.01875Q70.675 124.14375 69.84688 124.925Q69.03438 125.70625 67.78438 125.70625Q66.65938 125.70625 65.90938 125.03438Q65.15938 124.34688 65.05 123.28438Z" fill-rule="nonzero"/><path fill="#000000" d="M68.425 65.916664L68.425 63.854164L64.70625 63.854164L64.70625 62.885414L68.62813 57.322914L69.4875 57.322914L69.4875 62.885414L70.64375 62.885414L70.64375 63.854164L69.4875 63.854164L69.4875 65.916664L68.425 65.916664ZM68.425 62.885414L68.425 59.02604L65.7375 62.885414L68.425 62.885414Z" fill-rule="nonzero"/><path fill="#000000" d="M111.38179 317.45L110.334915 317.45L110.334915 310.73126Q109.94429 311.09064 109.31929 311.46564Q108.709915 311.825 108.22554 311.9969L108.22554 310.98126Q109.10054 310.5594 109.75679 309.98126Q110.428665 309.3875 110.709915 308.825L111.38179 308.825L111.38179 317.45Z" fill-rule="nonzero"/><path fill="#000000" d="M161.6459 316.4344L161.6459 317.45L155.9584 317.45Q155.9584 317.075 156.0834 316.71564Q156.30215 316.1375 156.7709 315.575Q157.25528 315.0125 158.16153 314.27814Q159.56778 313.1219 160.05215 312.45Q160.55215 311.77814 160.55215 311.1844Q160.55215 310.5594 160.09903 310.1375Q159.6459 309.7 158.92715 309.7Q158.16153 309.7 157.7084 310.15314Q157.25528 310.60626 157.23965 311.41876L156.16153 311.3094Q156.2709 310.09064 156.98965 309.46564Q157.72403 308.825 158.9584 308.825Q160.19278 308.825 160.91153 309.5125Q161.63028 310.2 161.63028 311.21564Q161.63028 311.73126 161.41153 312.23126Q161.2084 312.71564 160.7084 313.27814Q160.22403 313.825 159.09903 314.77814Q158.1459 315.575 157.86465 315.8719Q157.59903 316.15314 157.42715 316.4344L161.6459 316.4344Z" fill-rule="nonzero"/><path fill="#000000" d="M204.78502 315.1844L205.84752 315.04376Q206.0194 315.9344 206.4569 316.34064Q206.8944 316.73126 207.5194 316.73126Q208.2694 316.73126 208.78502 316.21564Q209.30064 315.7 209.30064 314.9344Q209.30064 314.21564 208.81627 313.7469Q208.34752 313.2625 207.61314 313.2625Q207.31627 313.2625 206.86314 313.3875L206.98814 312.45Q207.09752 312.46564 207.16002 312.46564Q207.8319 312.46564 208.36314 312.1219Q208.91002 311.7625 208.91002 311.02814Q208.91002 310.45 208.5194 310.075Q208.12877 309.6844 207.50377 309.6844Q206.8944 309.6844 206.47252 310.075Q206.06627 310.46564 205.9569 311.23126L204.8944 311.04376Q205.0819 309.9969 205.7694 309.41876Q206.4569 308.825 207.47252 308.825Q208.17564 308.825 208.7694 309.1375Q209.36314 309.4344 209.67564 309.95Q209.98814 310.46564 209.98814 311.0594Q209.98814 311.60626 209.69127 312.075Q209.3944 312.52814 208.81627 312.79376Q209.56627 312.96564 209.98814 313.52814Q210.41002 314.075 210.41002 314.91876Q210.41002 316.04376 209.5819 316.825Q208.7694 317.60626 207.5194 317.60626Q206.3944 317.60626 205.6444 316.9344Q204.8944 316.2469 204.78502 315.1844Z" fill-rule="nonzero"/><path fill="#000000" d="M256.846 317.45L256.846 315.3875L253.12726 315.3875L253.12726 314.41876L257.04913 308.85626L257.9085 308.85626L257.9085 314.41876L259.06476 314.41876L259.06476 315.3875L257.9085 315.3875L257.9085 317.45L256.846 317.45ZM256.846 314.41876L256.846 310.5594L254.15851 314.41876L256.846 314.41876Z" fill-rule="nonzero"/><path fill="#000000" d="M302.157 315.2L303.2664 315.10626Q303.3914 315.91876 303.8289 316.325Q304.282 316.73126 304.92264 316.73126Q305.67264 316.73126 306.2039 316.15314Q306.73514 315.575 306.73514 314.6375Q306.73514 313.73126 306.2195 313.21564Q305.7195 312.6844 304.8914 312.6844Q304.3914 312.6844 303.9695 312.91876Q303.56326 313.15314 303.3289 313.5125L302.3445 313.3875L303.17264 308.98126L307.4539 308.98126L307.4539 309.98126L304.0164 309.98126L303.56326 312.29376Q304.3289 311.7469 305.17264 311.7469Q306.29764 311.7469 307.06326 312.52814Q307.8445 313.3094 307.8445 314.54376Q307.8445 315.7 307.17264 316.5594Q306.3445 317.59064 304.92264 317.59064Q303.75076 317.59064 303.00076 316.9344Q302.2664 316.27814 302.157 315.2Z" fill-rule="nonzero"/><path fill="#000000" d="M356.31174 310.96564L355.26486 311.04376Q355.12424 310.41876 354.87424 310.1375Q354.43674 309.6844 353.81174 309.6844Q353.31174 309.6844 352.9211 309.96564Q352.43674 310.34064 352.13986 311.04376Q351.8586 311.73126 351.843 313.0125Q352.218 312.4344 352.76486 312.15314Q353.32736 311.8719 353.93674 311.8719Q354.9836 311.8719 355.718 312.65314Q356.468 313.4344 356.468 314.65314Q356.468 315.46564 356.1086 316.16876Q355.76486 316.85626 355.1555 317.23126Q354.5461 317.59064 353.7805 317.59064Q352.45236 317.59064 351.62424 316.6219Q350.7961 315.65314 350.7961 313.4344Q350.7961 310.9344 351.718 309.8094Q352.51486 308.825 353.87424 308.825Q354.88986 308.825 355.5305 309.40314Q356.18674 309.96564 356.31174 310.96564ZM352.01486 314.66876Q352.01486 315.21564 352.2336 315.71564Q352.468 316.2 352.87424 316.46564Q353.2961 316.73126 353.76486 316.73126Q354.4211 316.73126 354.9055 316.2Q355.38986 315.65314 355.38986 314.73126Q355.38986 313.84064 354.9055 313.325Q354.43674 312.8094 353.718 312.8094Q352.99924 312.8094 352.49924 313.325Q352.01486 313.84064 352.01486 314.66876Z" fill-rule="nonzero"/><path fill="#000000" d="M399.5915 309.98126L399.5915 308.96564L405.154 308.96564L405.154 309.79376Q404.3415 310.66876 403.529 312.1219Q402.73212 313.5594 402.29462 315.09064Q401.9665 316.16876 401.88837 317.45L400.79462 317.45Q400.81024 316.4344 401.18524 314.9969Q401.57587 313.5594 402.279 312.23126Q402.99774 310.90314 403.81024 309.98126L399.5915 309.98126Z" fill-rule="nonzero"/><path fill="#000000" d="M449.83997 312.79376Q449.18372 312.54376 448.8556 312.10626Q448.5431 311.65314 448.5431 311.04376Q448.5431 310.10626 449.21497 309.46564Q449.90247 308.825 451.01184 308.825Q452.13684 308.825 452.82434 309.48126Q453.51184 310.1375 453.51184 311.075Q453.51184 311.66876 453.19934 312.10626Q452.88684 312.54376 452.24622 312.79376Q453.0431 313.04376 453.44934 313.6219Q453.8556 314.2 453.8556 314.9969Q453.8556 316.09064 453.07434 316.84064Q452.30872 317.59064 451.02747 317.59064Q449.76184 317.59064 448.9806 316.84064Q448.19934 316.09064 448.19934 314.96564Q448.19934 314.1219 448.62122 313.5594Q449.05872 312.9969 449.83997 312.79376ZM449.62122 310.9969Q449.62122 311.60626 450.01184 311.9969Q450.4181 312.3875 451.0431 312.3875Q451.65247 312.3875 452.0431 312.0125Q452.43372 311.6219 452.43372 311.0594Q452.43372 310.48126 452.02747 310.09064Q451.62122 309.6844 451.02747 309.6844Q450.4181 309.6844 450.01184 310.075Q449.62122 310.46564 449.62122 310.9969ZM449.2931 314.96564Q449.2931 315.41876 449.49622 315.84064Q449.71497 316.2625 450.13684 316.4969Q450.55872 316.73126 451.0431 316.73126Q451.7931 316.73126 452.27747 316.2469Q452.77747 315.7625 452.77747 315.0125Q452.77747 314.2469 452.27747 313.7469Q451.77747 313.2469 451.01184 313.2469Q450.26184 313.2469 449.77747 313.7469Q449.2931 314.23126 449.2931 314.96564Z" fill-rule="nonzero"/><path fill="#000000" d="M497.05722 315.46564L498.07285 315.3719Q498.19785 316.09064 498.55722 316.41876Q498.93222 316.73126 499.49472 316.73126Q499.9791 316.73126 500.33847 316.5125Q500.71347 316.27814 500.94785 315.91876Q501.18222 315.54376 501.33847 314.91876Q501.49472 314.27814 501.49472 313.6219Q501.49472 313.54376 501.49472 313.40314Q501.18222 313.90314 500.63535 314.23126Q500.08847 314.54376 499.44785 314.54376Q498.36972 314.54376 497.63535 313.77814Q496.90097 312.9969 496.90097 311.73126Q496.90097 310.41876 497.6666 309.6219Q498.44785 308.825 499.6041 308.825Q500.43222 308.825 501.11972 309.27814Q501.82285 309.73126 502.18222 310.575Q502.5416 311.40314 502.5416 312.98126Q502.5416 314.6219 502.18222 315.60626Q501.83847 316.575 501.11972 317.09064Q500.4166 317.59064 499.4791 317.59064Q498.46347 317.59064 497.82285 317.04376Q497.18222 316.48126 497.05722 315.46564ZM501.36972 311.66876Q501.36972 310.7625 500.88535 310.23126Q500.4166 309.7 499.7291 309.7Q499.02597 309.7 498.49472 310.27814Q497.9791 310.84064 497.9791 311.7625Q497.9791 312.575 498.4791 313.09064Q498.9791 313.60626 499.69785 313.60626Q500.43222 313.60626 500.90097 313.09064Q501.36972 312.575 501.36972 311.66876Z" fill-rule="nonzero"/><path fill="#000000" d="M546.0557 317.45L545.00885 317.45L545.00885 310.73126Q544.6182 311.09064 543.9932 311.46564Q543.38385 311.825 542.8995 311.9969L542.8995 310.98126Q543.7745 310.5594 544.4307 309.98126Q545.1026 309.3875 545.38385 308.825L546.0557 308.825L546.0557 317.45ZM549.087 313.21564Q549.087 311.6844 549.3995 310.7625Q549.712 309.825 550.32135 309.325Q550.94635 308.825 551.88385 308.825Q552.57135 308.825 553.087 309.10626Q553.6182 309.3875 553.962 309.91876Q554.3057 310.4344 554.4932 311.1844Q554.6807 311.9344 554.6807 313.21564Q554.6807 314.73126 554.3682 315.65314Q554.07135 316.575 553.44635 317.09064Q552.837 317.59064 551.88385 317.59064Q550.6495 317.59064 549.9307 316.7Q549.087 315.6375 549.087 313.21564ZM550.1651 313.21564Q550.1651 315.325 550.6651 316.02814Q551.1651 316.73126 551.88385 316.73126Q552.6182 316.73126 553.1026 316.02814Q553.6026 315.325 553.6026 313.21564Q553.6026 311.09064 553.1026 310.40314Q552.6182 309.7 551.8682 309.7Q551.1495 309.7 550.712 310.3094Q550.1651 311.09064 550.1651 313.21564Z" fill-rule="nonzero"/><path fill="#757575" d="M20.190624 37.55L20.190624 23.2375L29.846874 23.2375L29.846874 24.925L22.08125 24.925L22.08125 29.3625L28.8 29.3625L28.8 31.05L22.08125 31.05L22.08125 37.55L20.190624 37.55ZM31.846874 37.55L31.846874 27.175L33.425 27.175L33.425 28.753124Q34.034374 27.64375 34.55 27.3Q35.065624 26.940624 35.675 26.940624Q36.565624 26.940624 37.4875 27.503124L36.878124 29.14375Q36.2375 28.753124 35.596874 28.753124Q35.01875 28.753124 34.55 29.1125Q34.096874 29.45625 33.89375 30.065624Q33.6125 31.003124 33.6125 32.1125L33.6125 37.55L31.846874 37.55ZM38.221874 32.3625Q38.221874 29.4875 39.815624 28.096874Q41.159374 26.940624 43.08125 26.940624Q45.221874 26.940624 46.565624 28.346874Q47.925 29.753124 47.925 32.221874Q47.925 34.221874 47.33125 35.378124Q46.7375 36.51875 45.58125 37.159374Q44.440624 37.784374 43.08125 37.784374Q40.89375 37.784374 39.55 36.39375Q38.221874 34.9875 38.221874 32.3625ZM40.01875 32.3625Q40.01875 34.3625 40.878124 35.346874Q41.753124 36.33125 43.08125 36.33125Q44.39375 36.33125 45.253124 35.346874Q46.128124 34.346874 46.128124 32.3Q46.128124 30.378124 45.253124 29.39375Q44.378124 28.39375 43.08125 28.39375Q41.753124 28.39375 40.878124 29.39375Q40.01875 30.378124 40.01875 32.3625ZM49.8625 37.55L49.8625 27.175L51.440624 27.175L51.440624 28.628124Q51.925 27.878124 52.7375 27.409374Q53.55 26.940624 54.58125 26.940624Q55.7375 26.940624 56.471874 27.425Q57.20625 27.89375 57.51875 28.753124Q58.753124 26.940624 60.721874 26.940624Q62.26875 26.940624 63.096874 27.8Q63.925 28.659374 63.925 30.425L63.925 37.55L62.175 37.55L62.175 31.01875Q62.175 29.95625 62.003124 29.503124Q61.83125 29.034374 61.378124 28.753124Q60.940624 28.471874 60.33125 28.471874Q59.2375 28.471874 58.503124 29.20625Q57.784374 29.925 57.784374 31.51875L57.784374 37.55L56.034374 37.55L56.034374 30.815624Q56.034374 29.64375 55.596874 29.065624Q55.175 28.471874 54.190624 28.471874Q53.45625 28.471874 52.815624 28.8625Q52.190624 29.253124 51.909374 30.003124Q51.628124 30.753124 51.628124 32.175L51.628124 37.55L49.8625 37.55ZM79.00313 37.55L77.2375 37.55L77.2375 26.346874Q76.6125 26.95625 75.58125 27.565624Q74.55 28.159374 73.72188 28.471874L73.72188 26.76875Q75.20625 26.08125 76.3 25.096874Q77.40938 24.096874 77.8625 23.175L79.00313 23.175L79.00313 37.55ZM93.70625 35.971874L93.95625 37.534374Q93.22188 37.690624 92.62813 37.690624Q91.675 37.690624 91.14375 37.39375Q90.62813 37.08125 90.40938 36.596874Q90.19063 36.096874 90.19063 34.51875L90.19063 28.55L88.90938 28.55L88.90938 27.175L90.19063 27.175L90.19063 24.6125L91.94063 23.55L91.94063 27.175L93.70625 27.175L93.70625 28.55L91.94063 28.55L91.94063 34.6125Q91.94063 35.3625 92.03438 35.58125Q92.12813 35.784374 92.33125 35.925Q92.55 36.05 92.94063 36.05Q93.22188 36.05 93.70625 35.971874ZM95.22188 32.3625Q95.22188 29.4875 96.81563 28.096874Q98.15938 26.940624 100.08125 26.940624Q102.22188 26.940624 103.56563 28.346874Q104.925 29.753124 104.925 32.221874Q104.925 34.221874 104.33125 35.378124Q103.7375 36.51875 102.58125 37.159374Q101.44063 37.784374 100.08125 37.784374Q97.89375 37.784374 96.55 36.39375Q95.22188 34.9875 95.22188 32.3625ZM97.01875 32.3625Q97.01875 34.3625 97.87813 35.346874Q98.75313 36.33125 100.08125 36.33125Q101.39375 36.33125 102.25313 35.346874Q103.12813 34.346874 103.12813 32.3Q103.12813 30.378124 102.25313 29.39375Q101.37813 28.39375 100.08125 28.39375Q98.75313 28.39375 97.87813 29.39375Q97.01875 30.378124 97.01875 32.3625ZM119.00313 37.55L117.2375 37.55L117.2375 26.346874Q116.6125 26.95625 115.58125 27.565624Q114.55 28.159374 113.72188 28.471874L113.72188 26.76875Q115.20625 26.08125 116.3 25.096874Q117.40938 24.096874 117.8625 23.175L119.00313 23.175L119.00313 37.55ZM123.37813 30.4875Q123.37813 27.95625 123.89375 26.409374Q124.425 24.846874 125.45625 24.01875Q126.4875 23.175 128.05 23.175Q129.20625 23.175 130.06563 23.64375Q130.94063 24.096874 131.50313 24.971874Q132.06563 25.846874 132.39375 27.1125Q132.72188 28.3625 132.72188 30.4875Q132.72188 33.003124 132.19063 34.55Q131.675 36.096874 130.64375 36.95625Q129.62813 37.8 128.05 37.8Q125.97188 37.8 124.8 36.315624Q123.37813 34.51875 123.37813 30.4875ZM125.19063 30.4875Q125.19063 34.01875 126.00313 35.190624Q126.83125 36.346874 128.05 36.346874Q129.25313 36.346874 130.08125 35.175Q130.90938 34.003124 130.90938 30.4875Q130.90938 26.95625 130.08125 25.8Q129.25313 24.628124 128.03438 24.628124Q126.81563 24.628124 126.09688 25.659374Q125.19063 26.95625 125.19063 30.4875ZM135.33125 37.55L135.33125 35.55L137.33125 35.55L137.33125 37.55Q137.33125 38.659374 136.94063 39.33125Q136.55 40.01875 135.70625 40.378124L135.20625 39.628124Q135.76875 39.39375 136.03438 38.909374Q136.3 38.440624 136.33125 37.55L135.33125 37.55ZM146.8625 37.55L146.8625 23.2375L148.62813 23.2375L148.62813 28.3625Q149.8625 26.940624 151.7375 26.940624Q152.87813 26.940624 153.72188 27.39375Q154.58125 27.846874 154.94063 28.659374Q155.31563 29.45625 155.31563 30.971874L155.31563 37.55L153.56563 37.55L153.56563 30.971874Q153.56563 29.659374 152.9875 29.065624Q152.40938 28.45625 151.37813 28.45625Q150.59688 28.45625 149.89375 28.8625Q149.20625 29.26875 148.90938 29.971874Q148.62813 30.659374 148.62813 31.878124L148.62813 37.55L146.8625 37.55ZM157.22188 32.3625Q157.22188 29.4875 158.81563 28.096874Q160.15938 26.940624 162.08125 26.940624Q164.22188 26.940624 165.56563 28.346874Q166.925 29.753124 166.925 32.221874Q166.925 34.221874 166.33125 35.378124Q165.7375 36.51875 164.58125 37.159374Q163.44063 37.784374 162.08125 37.784374Q159.89375 37.784374 158.55 36.39375Q157.22188 34.9875 157.22188 32.3625ZM159.01875 32.3625Q159.01875 34.3625 159.87813 35.346874Q160.75313 36.33125 162.08125 36.33125Q163.39375 36.33125 164.25313 35.346874Q165.12813 34.346874 165.12813 32.3Q165.12813 30.378124 164.25313 29.39375Q163.37813 28.39375 162.08125 28.39375Q160.75313 28.39375 159.87813 29.39375Q159.01875 30.378124 159.01875 32.3625ZM170.78438 37.55L167.6125 27.175L169.425 27.175L171.08125 33.159374L171.69063 35.39375Q171.7375 35.221874 172.22188 33.253124L173.87813 27.175L175.69063 27.175L177.2375 33.190624L177.75313 35.175L178.34688 33.175L180.12813 27.175L181.83125 27.175L178.59688 37.55L176.76875 37.55L175.1125 31.33125L174.72188 29.565624L172.6125 37.55L170.78438 37.55ZM188.15938 34.45625L189.90938 34.175Q190.05 35.221874 190.72188 35.784374Q191.39375 36.33125 192.59688 36.33125Q193.8 36.33125 194.37813 35.846874Q194.97188 35.346874 194.97188 34.690624Q194.97188 34.096874 194.45625 33.753124Q194.09688 33.51875 192.65938 33.159374Q190.72188 32.659374 189.97188 32.315624Q189.2375 31.95625 188.84688 31.33125Q188.45625 30.690624 188.45625 29.925Q188.45625 29.2375 188.76875 28.64375Q189.09688 28.05 189.64375 27.659374Q190.05 27.3625 190.75313 27.159374Q191.47188 26.940624 192.28438 26.940624Q193.50313 26.940624 194.425 27.3Q195.34688 27.64375 195.78438 28.253124Q196.22188 28.846874 196.39375 29.846874L194.675 30.08125Q194.55 29.284374 193.9875 28.846874Q193.425 28.39375 192.40938 28.39375Q191.19063 28.39375 190.675 28.8Q190.15938 29.190624 190.15938 29.721874Q190.15938 30.065624 190.37813 30.346874Q190.58125 30.628124 191.05 30.815624Q191.31563 30.909374 192.59688 31.253124Q194.47188 31.753124 195.20625 32.08125Q195.94063 32.39375 196.3625 33.003124Q196.78438 33.596874 196.78438 34.503124Q196.78438 35.378124 196.26875 36.159374Q195.75313 36.940624 194.78438 37.3625Q193.81563 37.784374 192.59688 37.784374Q190.58125 37.784374 189.51875 36.940624Q188.45625 36.096874 188.15938 34.45625ZM205.64375 36.26875Q204.65938 37.096874 203.75313 37.440624Q202.84688 37.784374 201.81563 37.784374Q200.1125 37.784374 199.19063 36.95625Q198.26875 36.1125 198.26875 34.815624Q198.26875 34.05 198.6125 33.425Q198.97188 32.8 199.53438 32.425Q200.09688 32.034374 200.8 31.83125Q201.31563 31.70625 202.3625 31.565624Q204.4875 31.315624 205.4875 30.971874Q205.50313 30.6125 205.50313 30.503124Q205.50313 29.440624 205.00313 28.9875Q204.33125 28.39375 203.00313 28.39375Q201.75313 28.39375 201.15938 28.83125Q200.58125 29.26875 200.3 30.378124L198.58125 30.14375Q198.81563 29.034374 199.34688 28.3625Q199.87813 27.675 200.89375 27.315624Q201.90938 26.940624 203.25313 26.940624Q204.58125 26.940624 205.40938 27.253124Q206.2375 27.565624 206.62813 28.05Q207.01875 28.51875 207.175 29.2375Q207.26875 29.690624 207.26875 30.8625L207.26875 33.20625Q207.26875 35.659374 207.37813 36.315624Q207.4875 36.95625 207.83125 37.55L205.9875 37.55Q205.72188 37.003124 205.64375 36.26875ZM205.4875 32.346874Q204.53438 32.7375 202.6125 33.003124Q201.53438 33.159374 201.08125 33.3625Q200.64375 33.55 200.39375 33.925Q200.14375 34.3 200.14375 34.76875Q200.14375 35.471874 200.675 35.940624Q201.20625 36.409374 202.2375 36.409374Q203.25313 36.409374 204.03438 35.971874Q204.83125 35.51875 205.20625 34.753124Q205.4875 34.14375 205.4875 32.9875L205.4875 32.346874ZM213.70625 35.971874L213.95625 37.534374Q213.22188 37.690624 212.62813 37.690624Q211.675 37.690624 211.14375 37.39375Q210.62813 37.08125 210.40938 36.596874Q210.19063 36.096874 210.19063 34.51875L210.19063 28.55L208.90938 28.55L208.90938 27.175L210.19063 27.175L210.19063 24.6125L211.94063 23.55L211.94063 27.175L213.70625 27.175L213.70625 28.55L211.94063 28.55L211.94063 34.6125Q211.94063 35.3625 212.03438 35.58125Q212.12813 35.784374 212.33125 35.925Q212.55 36.05 212.94063 36.05Q213.22188 36.05 213.70625 35.971874ZM215.87813 25.253124L215.87813 23.2375L217.64375 23.2375L217.64375 25.253124L215.87813 25.253124ZM215.87813 37.55L215.87813 27.175L217.64375 27.175L217.64375 37.55L215.87813 37.55ZM219.15938 34.45625L220.90938 34.175Q221.05 35.221874 221.72188 35.784374Q222.39375 36.33125 223.59688 36.33125Q224.8 36.33125 225.37813 35.846874Q225.97188 35.346874 225.97188 34.690624Q225.97188 34.096874 225.45625 33.753124Q225.09688 33.51875 223.65938 33.159374Q221.72188 32.659374 220.97188 32.315624Q220.2375 31.95625 219.84688 31.33125Q219.45625 30.690624 219.45625 29.925Q219.45625 29.2375 219.76875 28.64375Q220.09688 28.05 220.64375 27.659374Q221.05 27.3625 221.75313 27.159374Q222.47188 26.940624 223.28438 26.940624Q224.50313 26.940624 225.425 27.3Q226.34688 27.64375 226.78438 28.253124Q227.22188 28.846874 227.39375 29.846874L225.675 30.08125Q225.55 29.284374 224.9875 28.846874Q224.425 28.39375 223.40938 28.39375Q222.19063 28.39375 221.675 28.8Q221.15938 29.190624 221.15938 29.721874Q221.15938 30.065624 221.37813 30.346874Q221.58125 30.628124 222.05 30.815624Q222.31563 30.909374 223.59688 31.253124Q225.47188 31.753124 226.20625 32.08125Q226.94063 32.39375 227.3625 33.003124Q227.78438 33.596874 227.78438 34.503124Q227.78438 35.378124 227.26875 36.159374Q226.75313 36.940624 225.78438 37.3625Q224.81563 37.784374 223.59688 37.784374Q221.58125 37.784374 220.51875 36.940624Q219.45625 36.096874 219.15938 34.45625ZM230.28438 37.55L230.28438 28.55L228.7375 28.55L228.7375 27.175L230.28438 27.175L230.28438 26.08125Q230.28438 25.034374 230.47188 24.51875Q230.72188 23.83125 231.3625 23.409374Q232.00313 22.9875 233.15938 22.9875Q233.90938 22.9875 234.8 23.159374L234.53438 24.690624Q233.9875 24.596874 233.50313 24.596874Q232.70625 24.596874 232.3625 24.940624Q232.03438 25.284374 232.03438 26.221874L232.03438 27.175L234.06563 27.175L234.06563 28.55L232.03438 28.55L232.03438 37.55L230.28438 37.55ZM235.87813 25.253124L235.87813 23.2375L237.64375 23.2375L237.64375 25.253124L235.87813 25.253124ZM235.87813 37.55L235.87813 27.175L237.64375 27.175L237.64375 37.55L235.87813 37.55ZM246.97188 34.20625L248.78438 34.440624Q248.3625 36.01875 247.19063 36.909374Q246.03438 37.784374 244.22188 37.784374Q241.95625 37.784374 240.6125 36.39375Q239.28438 34.9875 239.28438 32.45625Q239.28438 29.83125 240.62813 28.39375Q241.97188 26.940624 244.12813 26.940624Q246.20625 26.940624 247.51875 28.3625Q248.84688 29.76875 248.84688 32.346874Q248.84688 32.503124 248.83125 32.815624L241.09688 32.815624Q241.19063 34.51875 242.06563 35.425Q242.94063 36.33125 244.2375 36.33125Q245.20625 36.33125 245.87813 35.83125Q246.56563 35.315624 246.97188 34.20625ZM241.19063 31.3625L246.9875 31.3625Q246.87813 30.065624 246.33125 29.409374Q245.4875 28.39375 244.14375 28.39375Q242.94063 28.39375 242.1125 29.20625Q241.28438 30.003124 241.19063 31.3625ZM257.59686 37.55L257.59686 36.2375Q256.6125 37.784374 254.69063 37.784374Q253.45625 37.784374 252.40938 37.096874Q251.37813 36.409374 250.8 35.190624Q250.2375 33.971874 250.2375 32.378124Q250.2375 30.815624 250.75313 29.55Q251.26875 28.284374 252.3 27.6125Q253.34688 26.940624 254.6125 26.940624Q255.55 26.940624 256.28436 27.346874Q257.01874 27.7375 257.4875 28.3625L257.4875 23.2375L259.22186 23.2375L259.22186 37.55L257.59686 37.55ZM252.03438 32.378124Q252.03438 34.3625 252.87813 35.346874Q253.72188 36.33125 254.8625 36.33125Q256.01874 36.33125 256.8156 35.39375Q257.6281 34.45625 257.6281 32.51875Q257.6281 30.39375 256.8 29.39375Q255.9875 28.39375 254.78438 28.39375Q253.6125 28.39375 252.81563 29.3625Q252.03438 30.315624 252.03438 32.378124ZM274.64374 36.26875Q273.65936 37.096874 272.7531 37.440624Q271.84686 37.784374 270.8156 37.784374Q269.1125 37.784374 268.1906 36.95625Q267.26874 36.1125 267.26874 34.815624Q267.26874 34.05 267.6125 33.425Q267.97186 32.8 268.53436 32.425Q269.09686 32.034374 269.8 31.83125Q270.3156 31.70625 271.3625 31.565624Q273.4875 31.315624 274.4875 30.971874Q274.5031 30.6125 274.5031 30.503124Q274.5031 29.440624 274.0031 28.9875Q273.33124 28.39375 272.0031 28.39375Q270.7531 28.39375 270.15936 28.83125Q269.58124 29.26875 269.3 30.378124L267.58124 30.14375Q267.8156 29.034374 268.34686 28.3625Q268.8781 27.675 269.89374 27.315624Q270.90936 26.940624 272.2531 26.940624Q273.58124 26.940624 274.40936 27.253124Q275.2375 27.565624 275.6281 28.05Q276.01874 28.51875 276.175 29.2375Q276.26874 29.690624 276.26874 30.8625L276.26874 33.20625Q276.26874 35.659374 276.3781 36.315624Q276.4875 36.95625 276.83124 37.55L274.9875 37.55Q274.72186 37.003124 274.64374 36.26875ZM274.4875 32.346874Q273.53436 32.7375 271.6125 33.003124Q270.53436 33.159374 270.08124 33.3625Q269.64374 33.55 269.39374 33.925Q269.14374 34.3 269.14374 34.76875Q269.14374 35.471874 269.675 35.940624Q270.20624 36.409374 271.2375 36.409374Q272.2531 36.409374 273.03436 35.971874Q273.83124 35.51875 274.20624 34.753124Q274.4875 34.14375 274.4875 32.9875L274.4875 32.346874ZM278.84686 37.55L278.84686 27.175L280.425 27.175L280.425 28.753124Q281.03436 27.64375 281.55 27.3Q282.0656 26.940624 282.675 26.940624Q283.5656 26.940624 284.4875 27.503124L283.8781 29.14375Q283.2375 28.753124 282.59686 28.753124Q282.01874 28.753124 281.55 29.1125Q281.09686 29.45625 280.89374 30.065624Q280.6125 31.003124 280.6125 32.1125L280.6125 37.55L278.84686 37.55ZM292.97186 34.20625L294.78436 34.440624Q294.3625 36.01875 293.1906 36.909374Q292.03436 37.784374 290.22186 37.784374Q287.95624 37.784374 286.6125 36.39375Q285.28436 34.9875 285.28436 32.45625Q285.28436 29.83125 286.6281 28.39375Q287.97186 26.940624 290.1281 26.940624Q292.20624 26.940624 293.51874 28.3625Q294.84686 29.76875 294.84686 32.346874Q294.84686 32.503124 294.83124 32.815624L287.09686 32.815624Q287.1906 34.51875 288.0656 35.425Q288.9406 36.33125 290.2375 36.33125Q291.20624 36.33125 291.8781 35.83125Q292.5656 35.315624 292.97186 34.20625ZM287.1906 31.3625L292.9875 31.3625Q292.8781 30.065624 292.33124 29.409374Q291.4875 28.39375 290.14374 28.39375Q288.9406 28.39375 288.1125 29.20625Q287.28436 30.003124 287.1906 31.3625ZM302.78436 41.55L302.59686 39.89375Q303.175 40.05 303.59686 40.05Q304.1906 40.05 304.53436 39.846874Q304.89374 39.659374 305.1125 39.315624Q305.28436 39.05 305.65936 38.003124Q305.70624 37.846874 305.8156 37.565624L301.8781 27.175L303.76874 27.175L305.925 33.190624Q306.34686 34.33125 306.675 35.58125Q306.9875 34.378124 307.39374 33.221874L309.6125 27.175L311.3781 27.175L307.425 37.721874Q306.8 39.440624 306.4406 40.08125Q305.97186 40.95625 305.3625 41.346874Q304.76874 41.753124 303.925 41.753124Q303.40936 41.753124 302.78436 41.55ZM312.22186 32.3625Q312.22186 29.4875 313.8156 28.096874Q315.15936 26.940624 317.08124 26.940624Q319.22186 26.940624 320.5656 28.346874Q321.925 29.753124 321.925 32.221874Q321.925 34.221874 321.33124 35.378124Q320.7375 36.51875 319.58124 37.159374Q318.4406 37.784374 317.08124 37.784374Q314.89374 37.784374 313.55 36.39375Q312.22186 34.9875 312.22186 32.3625ZM314.01874 32.3625Q314.01874 34.3625 314.8781 35.346874Q315.7531 36.33125 317.08124 36.33125Q318.39374 36.33125 319.2531 35.346874Q320.1281 34.346874 320.1281 32.3Q320.1281 30.378124 319.2531 29.39375Q318.3781 28.39375 317.08124 28.39375Q315.7531 28.39375 314.8781 29.39375Q314.01874 30.378124 314.01874 32.3625ZM330.65936 37.55L330.65936 36.01875Q329.45624 37.784374 327.3781 37.784374Q326.45624 37.784374 325.65936 37.440624Q324.8625 37.08125 324.47186 36.55Q324.09686 36.01875 323.9406 35.2375Q323.83124 34.721874 323.83124 33.596874L323.83124 27.175L325.58124 27.175L325.58124 32.925Q325.58124 34.3 325.6906 34.784374Q325.8625 35.471874 326.39374 35.878124Q326.9406 36.26875 327.72186 36.26875Q328.51874 36.26875 329.20624 35.8625Q329.90936 35.45625 330.1906 34.76875Q330.4875 34.065624 330.4875 32.7375L330.4875 27.175L332.2375 27.175L332.2375 37.55L330.65936 37.55ZM342.78436 37.55L339.6125 27.175L341.425 27.175L343.08124 33.159374L343.6906 35.39375Q343.7375 35.221874 344.22186 33.253124L345.8781 27.175L347.6906 27.175L349.2375 33.190624L349.7531 35.175L350.34686 33.175L352.1281 27.175L353.83124 27.175L350.59686 37.55L348.76874 37.55L347.1125 31.33125L346.72186 29.565624L344.6125 37.55L342.78436 37.55ZM354.8781 25.253124L354.8781 23.2375L356.64374 23.2375L356.64374 25.253124L354.8781 25.253124ZM354.8781 37.55L354.8781 27.175L356.64374 27.175L356.64374 37.55L354.8781 37.55ZM362.70624 35.971874L362.95624 37.534374Q362.22186 37.690624 361.6281 37.690624Q360.675 37.690624 360.14374 37.39375Q359.6281 37.08125 359.40936 36.596874Q359.1906 36.096874 359.1906 34.51875L359.1906 28.55L357.90936 28.55L357.90936 27.175L359.1906 27.175L359.1906 24.6125L360.9406 23.55L360.9406 27.175L362.70624 27.175L362.70624 28.55L360.9406 28.55L360.9406 34.6125Q360.9406 35.3625 361.03436 35.58125Q361.1281 35.784374 361.33124 35.925Q361.55 36.05 361.9406 36.05Q362.22186 36.05 362.70624 35.971874ZM364.8625 37.55L364.8625 23.2375L366.6281 23.2375L366.6281 28.3625Q367.8625 26.940624 369.7375 26.940624Q370.8781 26.940624 371.72186 27.39375Q372.58124 27.846874 372.9406 28.659374Q373.3156 29.45625 373.3156 30.971874L373.3156 37.55L371.5656 37.55L371.5656 30.971874Q371.5656 29.659374 370.9875 29.065624Q370.40936 28.45625 369.3781 28.45625Q368.59686 28.45625 367.89374 28.8625Q367.20624 29.26875 366.90936 29.971874Q366.6281 30.659374 366.6281 31.878124L366.6281 37.55L364.8625 37.55ZM385.70624 35.971874L385.95624 37.534374Q385.22186 37.690624 384.6281 37.690624Q383.675 37.690624 383.14374 37.39375Q382.6281 37.08125 382.40936 36.596874Q382.1906 36.096874 382.1906 34.51875L382.1906 28.55L380.90936 28.55L380.90936 27.175L382.1906 27.175L382.1906 24.6125L383.9406 23.55L383.9406 27.175L385.70624 27.175L385.70624 28.55L383.9406 28.55L383.9406 34.6125Q383.9406 35.3625 384.03436 35.58125Q384.1281 35.784374 384.33124 35.925Q384.55 36.05 384.9406 36.05Q385.22186 36.05 385.70624 35.971874ZM387.8625 37.55L387.8625 23.2375L389.6281 23.2375L389.6281 28.3625Q390.8625 26.940624 392.7375 26.940624Q393.8781 26.940624 394.72186 27.39375Q395.58124 27.846874 395.9406 28.659374Q396.3156 29.45625 396.3156 30.971874L396.3156 37.55L394.5656 37.55L394.5656 30.971874Q394.5656 29.659374 393.9875 29.065624Q393.40936 28.45625 392.3781 28.45625Q391.59686 28.45625 390.89374 28.8625Q390.20624 29.26875 389.90936 29.971874Q389.6281 30.659374 389.6281 31.878124L389.6281 37.55L387.8625 37.55ZM405.97186 34.20625L407.78436 34.440624Q407.3625 36.01875 406.1906 36.909374Q405.03436 37.784374 403.22186 37.784374Q400.95624 37.784374 399.6125 36.39375Q398.28436 34.9875 398.28436 32.45625Q398.28436 29.83125 399.6281 28.39375Q400.97186 26.940624 403.1281 26.940624Q405.20624 26.940624 406.51874 28.3625Q407.84686 29.76875 407.84686 32.346874Q407.84686 32.503124 407.83124 32.815624L400.09686 32.815624Q400.1906 34.51875 401.0656 35.425Q401.9406 36.33125 403.2375 36.33125Q404.20624 36.33125 404.8781 35.83125Q405.5656 35.315624 405.97186 34.20625ZM400.1906 31.3625L405.9875 31.3625Q405.8781 30.065624 405.33124 29.409374Q404.4875 28.39375 403.14374 28.39375Q401.9406 28.39375 401.1125 29.20625Q400.28436 30.003124 400.1906 31.3625ZM422.64374 33.753124L424.3625 33.971874Q424.08124 35.76875 422.90936 36.784374Q421.7531 37.784374 420.05 37.784374Q417.925 37.784374 416.6281 36.39375Q415.33124 35.003124 415.33124 32.409374Q415.33124 30.721874 415.8781 29.471874Q416.4406 28.20625 417.58124 27.58125Q418.72186 26.940624 420.0656 26.940624Q421.7531 26.940624 422.8156 27.8Q423.89374 28.659374 424.20624 30.221874L422.4875 30.4875Q422.2531 29.440624 421.6281 28.925Q421.0031 28.39375 420.1281 28.39375Q418.8 28.39375 417.97186 29.346874Q417.14374 30.3 417.14374 32.346874Q417.14374 34.440624 417.9406 35.39375Q418.7375 36.33125 420.03436 36.33125Q421.0656 36.33125 421.7531 35.70625Q422.45624 35.065624 422.64374 33.753124ZM432.65936 37.55L432.65936 36.01875Q431.45624 37.784374 429.3781 37.784374Q428.45624 37.784374 427.65936 37.440624Q426.8625 37.08125 426.47186 36.55Q426.09686 36.01875 425.9406 35.2375Q425.83124 34.721874 425.83124 33.596874L425.83124 27.175L427.58124 27.175L427.58124 32.925Q427.58124 34.3 427.6906 34.784374Q427.8625 35.471874 428.39374 35.878124Q428.9406 36.26875 429.72186 36.26875Q430.51874 36.26875 431.20624 35.8625Q431.90936 35.45625 432.1906 34.76875Q432.4875 34.065624 432.4875 32.7375L432.4875 27.175L434.2375 27.175L434.2375 37.55L432.65936 37.55ZM436.84686 37.55L436.84686 27.175L438.425 27.175L438.425 28.753124Q439.03436 27.64375 439.55 27.3Q440.0656 26.940624 440.675 26.940624Q441.5656 26.940624 442.4875 27.503124L441.8781 29.14375Q441.2375 28.753124 440.59686 28.753124Q440.01874 28.753124 439.55 29.1125Q439.09686 29.45625 438.89374 30.065624Q438.6125 31.003124 438.6125 32.1125L438.6125 37.55L436.84686 37.55ZM443.84686 37.55L443.84686 27.175L445.425 27.175L445.425 28.753124Q446.03436 27.64375 446.55 27.3Q447.0656 26.940624 447.675 26.940624Q448.5656 26.940624 449.4875 27.503124L448.8781 29.14375Q448.2375 28.753124 447.59686 28.753124Q447.01874 28.753124 446.55 29.1125Q446.09686 29.45625 445.89374 30.065624Q445.6125 31.003124 445.6125 32.1125L445.6125 37.55L443.84686 37.55ZM457.97186 34.20625L459.78436 34.440624Q459.3625 36.01875 458.1906 36.909374Q457.03436 37.784374 455.22186 37.784374Q452.95624 37.784374 451.6125 36.39375Q450.28436 34.9875 450.28436 32.45625Q450.28436 29.83125 451.6281 28.39375Q452.97186 26.940624 455.1281 26.940624Q457.20624 26.940624 458.51874 28.3625Q459.84686 29.76875 459.84686 32.346874Q459.84686 32.503124 459.83124 32.815624L452.09686 32.815624Q452.1906 34.51875 453.0656 35.425Q453.9406 36.33125 455.2375 36.33125Q456.20624 36.33125 456.8781 35.83125Q457.5656 35.315624 457.97186 34.20625ZM452.1906 31.3625L457.9875 31.3625Q457.8781 30.065624 457.33124 29.409374Q456.4875 28.39375 455.14374 28.39375Q453.9406 28.39375 453.1125 29.20625Q452.28436 30.003124 452.1906 31.3625ZM461.8625 37.55L461.8625 27.175L463.45624 27.175L463.45624 28.659374Q464.59686 26.940624 466.7531 26.940624Q467.6906 26.940624 468.47186 27.284374Q469.26874 27.6125 469.65936 28.159374Q470.05 28.70625 470.20624 29.45625Q470.3 29.95625 470.3 31.175L470.3 37.55L468.53436 37.55L468.53436 31.2375Q468.53436 30.159374 468.33124 29.628124Q468.1281 29.096874 467.59686 28.784374Q467.08124 28.471874 466.3781 28.471874Q465.2531 28.471874 464.4406 29.190624Q463.6281 29.89375 463.6281 31.878124L463.6281 37.55L461.8625 37.55ZM476.70624 35.971874L476.95624 37.534374Q476.22186 37.690624 475.6281 37.690624Q474.675 37.690624 474.14374 37.39375Q473.6281 37.08125 473.40936 36.596874Q473.1906 36.096874 473.1906 34.51875L473.1906 28.55L471.90936 28.55L471.90936 27.175L473.1906 27.175L473.1906 24.6125L474.9406 23.55L474.9406 27.175L476.70624 27.175L476.70624 28.55L474.9406 28.55L474.9406 34.6125Q474.9406 35.3625 475.03436 35.58125Q475.1281 35.784374 475.33124 35.925Q475.55 36.05 475.9406 36.05Q476.22186 36.05 476.70624 35.971874ZM491.59686 37.55L491.59686 36.2375Q490.6125 37.784374 488.6906 37.784374Q487.45624 37.784374 486.40936 37.096874Q485.3781 36.409374 484.8 35.190624Q484.2375 33.971874 484.2375 32.378124Q484.2375 30.815624 484.7531 29.55Q485.26874 28.284374 486.3 27.6125Q487.34686 26.940624 488.6125 26.940624Q489.55 26.940624 490.28436 27.346874Q491.01874 27.7375 491.4875 28.3625L491.4875 23.2375L493.22186 23.2375L493.22186 37.55L491.59686 37.55ZM486.03436 32.378124Q486.03436 34.3625 486.8781 35.346874Q487.72186 36.33125 488.8625 36.33125Q490.01874 36.33125 490.8156 35.39375Q491.6281 34.45625 491.6281 32.51875Q491.6281 30.39375 490.8 29.39375Q489.9875 28.39375 488.78436 28.39375Q487.6125 28.39375 486.8156 29.3625Q486.03436 30.315624 486.03436 32.378124ZM502.97186 34.20625L504.78436 34.440624Q504.3625 36.01875 503.1906 36.909374Q502.03436 37.784374 500.22186 37.784374Q497.95624 37.784374 496.6125 36.39375Q495.28436 34.9875 495.28436 32.45625Q495.28436 29.83125 496.6281 28.39375Q497.97186 26.940624 500.1281 26.940624Q502.20624 26.940624 503.51874 28.3625Q504.84686 29.76875 504.84686 32.346874Q504.84686 32.503124 504.83124 32.815624L497.09686 32.815624Q497.1906 34.51875 498.0656 35.425Q498.9406 36.33125 500.2375 36.33125Q501.20624 36.33125 501.8781 35.83125Q502.5656 35.315624 502.97186 34.20625ZM497.1906 31.3625L502.9875 31.3625Q502.8781 30.065624 502.33124 29.409374Q501.4875 28.39375 500.14374 28.39375Q498.9406 28.39375 498.1125 29.20625Q497.28436 30.003124 497.1906 31.3625ZM506.15936 34.45625L507.90936 34.175Q508.05 35.221874 508.72186 35.784374Q509.39374 36.33125 510.59686 36.33125Q511.8 36.33125 512.3781 35.846874Q512.97186 35.346874 512.97186 34.690624Q512.97186 34.096874 512.45624 33.753124Q512.09686 33.51875 510.65936 33.159374Q508.72186 32.659374 507.97186 32.315624Q507.2375 31.95625 506.84686 31.33125Q506.45624 30.690624 506.45624 29.925Q506.45624 29.2375 506.76874 28.64375Q507.09686 28.05 507.64374 27.659374Q508.05 27.3625 508.7531 27.159374Q509.47186 26.940624 510.28436 26.940624Q511.5031 26.940624 512.425 27.3Q513.34686 27.64375 513.78436 28.253124Q514.22186 28.846874 514.39374 29.846874L512.675 30.08125Q512.55 29.284374 511.9875 28.846874Q511.425 28.39375 510.40936 28.39375Q509.1906 28.39375 508.675 28.8Q508.15936 29.190624 508.15936 29.721874Q508.15936 30.065624 508.3781 30.346874Q508.58124 30.628124 509.05 30.815624Q509.3156 30.909374 510.59686 31.253124Q512.47186 31.753124 513.20624 32.08125Q513.9406 32.39375 514.3625 33.003124Q514.78436 33.596874 514.78436 34.503124Q514.78436 35.378124 514.26874 36.159374Q513.7531 36.940624 512.78436 37.3625Q511.8156 37.784374 510.59686 37.784374Q508.58124 37.784374 507.51874 36.940624Q506.45624 36.096874 506.15936 34.45625ZM516.8781 25.253124L516.8781 23.2375L518.64374 23.2375L518.64374 25.253124L516.8781 25.253124ZM516.8781 37.55L516.8781 27.175L518.64374 27.175L518.64374 37.55L516.8781 37.55ZM520.55 38.409374L522.2531 38.659374Q522.3625 39.45625 522.84686 39.815624Q523.5031 40.3 524.64374 40.3Q525.8625 40.3 526.51874 39.815624Q527.1906 39.33125 527.425 38.45625Q527.5656 37.909374 527.55 36.190624Q526.39374 37.55 524.675 37.55Q522.53436 37.55 521.3625 36.003124Q520.1906 34.45625 520.1906 32.3Q520.1906 30.815624 520.72186 29.565624Q521.26874 28.315624 522.28436 27.628124Q523.3156 26.940624 524.6906 26.940624Q526.51874 26.940624 527.72186 28.425L527.72186 27.175L529.33124 27.175L529.33124 36.14375Q529.33124 38.565624 528.83124 39.565624Q528.34686 40.58125 527.26874 41.159374Q526.20624 41.753124 524.64374 41.753124Q522.8 41.753124 521.64374 40.925Q520.5031 40.096874 520.55 38.409374ZM522.0031 32.175Q522.0031 34.221874 522.8156 35.159374Q523.6281 36.096874 524.84686 36.096874Q526.05 36.096874 526.8625 35.159374Q527.6906 34.221874 527.6906 32.2375Q527.6906 30.33125 526.84686 29.3625Q526.0031 28.39375 524.8156 28.39375Q523.64374 28.39375 522.8156 29.346874Q522.0031 30.3 522.0031 32.175ZM531.8625 37.55L531.8625 27.175L533.45624 27.175L533.45624 28.659374Q534.59686 26.940624 536.7531 26.940624Q537.6906 26.940624 538.47186 27.284374Q539.26874 27.6125 539.65936 28.159374Q540.05 28.70625 540.20624 29.45625Q540.3 29.95625 540.3 31.175L540.3 37.55L538.53436 37.55L538.53436 31.2375Q538.53436 30.159374 538.33124 29.628124Q538.1281 29.096874 537.59686 28.784374Q537.08124 28.471874 536.3781 28.471874Q535.2531 28.471874 534.4406 29.190624Q533.6281 29.89375 533.6281 31.878124L533.6281 37.55L531.8625 37.55ZM546.15936 34.01875Q546.14374 33.675 546.14374 33.503124Q546.14374 32.45625 546.4406 31.70625Q546.65936 31.14375 547.14374 30.565624Q547.4875 30.14375 548.39374 29.346874Q549.3156 28.534374 549.58124 28.065624Q549.8625 27.58125 549.8625 27.01875Q549.8625 25.9875 549.05 25.221874Q548.2531 24.440624 547.09686 24.440624Q545.97186 24.440624 545.22186 25.14375Q544.47186 25.846874 544.2375 27.33125L542.425 27.1125Q542.675 25.1125 543.8781 24.05Q545.08124 22.9875 547.0656 22.9875Q549.175 22.9875 550.425 24.128124Q551.675 25.26875 551.675 26.89375Q551.675 27.83125 551.22186 28.628124Q550.78436 29.409374 549.5031 30.55Q548.64374 31.315624 548.3781 31.675Q548.1281 32.034374 547.9875 32.503124Q547.8625 32.971874 547.84686 34.01875L546.15936 34.01875ZM546.05 37.55L546.05 35.55L548.05 35.55L548.05 37.55L546.05 37.55Z" fill-rule="nonzero"/></svg>