<svg version="1.1" viewBox="0.0 0.0 600.0 371.0" fill="none" stroke="none" stroke-linecap="square" stroke-miterlimit="10" width="600" height="371" xmlns:xlink="http://www.w3.org/1999/xlink" xmlns="http://www.w3.org/2000/svg"><path fill="#ffffff" d="M0 0L600.0 0L600.0 371.0L0 371.0L0 0Z" fill-rule="nonzero"/><path stroke="#333333" stroke-width="1.0" stroke-linecap="butt" d="M77.5 300.5L581.5 300.5" fill-rule="nonzero"/><path stroke="#cccccc" stroke-width="1.0" stroke-linecap="butt" d="M77.5 252.5L581.5 252.5" fill-rule="nonzero"/><path stroke="#cccccc" stroke-width="1.0" stroke-linecap="butt" d="M77.5 205.5L581.5 205.5" fill-rule="nonzero"/><path stroke="#cccccc" stroke-width="1.0" stroke-linecap="butt" d="M77.5 157.5L581.5 157.5" fill-rule="nonzero"/><path stroke="#cccccc" stroke-width="1.0" stroke-linecap="butt" d="M77.5 109.5L581.5 109.5" fill-rule="nonzero"/><path stroke="#cccccc" stroke-width="1.0" stroke-linecap="butt" d="M77.5 61.5L581.5 61.5" fill-rule="nonzero"/><clipPath id="id_0"><path d="M77.55 61.916668L581.45 61.916668L581.45 300.45L77.55 300.45L77.55 61.916668Z" clip-rule="nonzero"/></clipPath><path stroke="#000000" stroke-width="2.0" stroke-linecap="butt" stroke-opacity="0.0" clip-path="url(#id_0)" d="M172.0 300.0L111.0 300.0L111.0 300.0L172.0 300.0Z" fill-rule="nonzero"/><path fill="#4285f4" clip-path="url(#id_0)" d="M172.0 300.0L111.0 300.0L111.0 300.0L172.0 300.0Z" fill-rule="nonzero"/><path stroke="#000000" stroke-width="2.0" stroke-linecap="butt" stroke-opacity="0.0" clip-path="url(#id_0)" d="M266.0 300.0L205.0 300.0L205.0 300.0L266.0 300.0Z" fill-rule="nonzero"/><path fill="#4285f4" clip-path="url(#id_0)" d="M266.0 300.0L205.0 300.0L205.0 300.0L266.0 300.0Z" fill-rule="nonzero"/><path stroke="#000000" stroke-width="2.0" stroke-linecap="butt" stroke-opacity="0.0" clip-path="url(#id_0)" d="M361.0 300.0L300.0 300.0L300.0 255.0C300.0 253.89543 300.89542 253.0 302.0 253.0L359.0 253.0C360.10458 253.0 361.0 253.89543 361.0 255.0Z" fill-rule="nonzero"/><path fill="#4285f4" clip-path="url(#id_0)" d="M361.0 300.0L300.0 300.0L300.0 255.0C300.0 253.89543 300.89542 253.0 302.0 253.0L359.0 253.0C360.10458 253.0 361.0 253.89543 361.0 255.0Z" fill-rule="nonzero"/><path stroke="#000000" stroke-width="2.0" stroke-linecap="butt" stroke-opacity="0.0" clip-path="url(#id_0)" d="M455.0 300.0L394.0 300.0L394.0 207.0C394.0 205.89543 394.89542 205.0 396.0 205.0L453.0 205.0C454.10458 205.0 455.0 205.89543 455.0 207.0Z" fill-rule="nonzero"/><path fill="#4285f4" clip-path="url(#id_0)" d="M455.0 300.0L394.0 300.0L394.0 207.0C394.0 205.89543 394.89542 205.0 396.0 205.0L453.0 205.0C454.10458 205.0 455.0 205.89543 455.0 207.0Z" fill-rule="nonzero"/><path stroke="#000000" stroke-width="2.0" stroke-linecap="butt" stroke-opacity="0.0" clip-path="url(#id_0)" d="M549.0 300.0L488.0 300.0L488.0 64.0C488.0 62.89543 488.89542 62.0 490.0 62.0L547.0 62.0C548.10455 62.0 549.0 62.89543 549.0 64.0Z" fill-rule="nonzero"/><path fill="#4285f4" clip-path="url(#id_0)" d="M549.0 300.0L488.0 300.0L488.0 64.0C488.0 62.89543 488.89542 62.0 490.0 62.0L547.0 62.0C548.10455 62.0 549.0 62.89543 549.0 64.0Z" fill-rule="nonzero"/><path fill="#000000" d="M314.04688 346.6844L315.10938 346.59064Q315.1875 347.2469 315.46875 347.65314Q315.75 348.0594 316.32812 348.325Q316.92188 348.575 317.65625 348.575Q318.29688 348.575 318.79688 348.3875Q319.29688 348.1844 319.53125 347.85626Q319.78125 347.5125 319.78125 347.1219Q319.78125 346.71564 319.54688 346.41876Q319.3125 346.10626 318.78125 345.90314Q318.42188 345.7625 317.23438 345.48126Q316.0625 345.2 315.59375 344.95Q314.96875 344.6219 314.67188 344.15314Q314.375 343.66876 314.375 343.075Q314.375 342.4344 314.73438 341.8719Q315.10938 341.29376 315.8125 341.0125Q316.53125 340.71564 317.39062 340.71564Q318.34375 340.71564 319.07812 341.02814Q319.8125 341.325 320.20312 341.9344Q320.59375 342.52814 320.625 343.27814L319.53125 343.35626Q319.4375 342.54376 318.92188 342.1375Q318.42188 341.71564 317.4375 341.71564Q316.40625 341.71564 315.9375 342.09064Q315.46875 342.46564 315.46875 342.9969Q315.46875 343.46564 315.79688 343.7625Q316.125 344.0594 317.5 344.3719Q318.89062 344.6844 319.40625 344.91876Q320.15625 345.27814 320.51562 345.8094Q320.875 346.325 320.875 347.02814Q320.875 347.71564 320.48438 348.325Q320.09375 348.91876 319.35938 349.2625Q318.625 349.59064 317.70312 349.59064Q316.53125 349.59064 315.73438 349.2625Q314.95312 348.91876 314.5 348.23126Q314.0625 347.54376 314.04688 346.6844ZM326.35938 347.16876L327.39062 347.3094Q327.21875 348.3719 326.51562 348.98126Q325.8125 349.59064 324.79688 349.59064Q323.51562 349.59064 322.73438 348.7625Q321.96875 347.91876 321.96875 346.35626Q321.96875 345.35626 322.29688 344.60626Q322.64062 343.84064 323.3125 343.46564Q324.0 343.09064 324.8125 343.09064Q325.8125 343.09064 326.45312 343.60626Q327.10938 344.10626 327.29688 345.0594L326.26562 345.21564Q326.125 344.59064 325.75 344.27814Q325.375 343.95 324.84375 343.95Q324.04688 343.95 323.54688 344.52814Q323.04688 345.09064 323.04688 346.325Q323.04688 347.59064 323.53125 348.15314Q324.01562 348.71564 324.78125 348.71564Q325.40625 348.71564 325.8125 348.34064Q326.23438 347.96564 326.35938 347.16876ZM327.90625 346.34064Q327.90625 344.60626 328.85938 343.77814Q329.65625 343.09064 330.8125 343.09064Q332.09375 343.09064 332.90625 343.9344Q333.73438 344.7625 333.73438 346.2469Q333.73438 347.45 333.375 348.1375Q333.01562 348.825 332.3125 349.21564Q331.625 349.59064 330.8125 349.59064Q329.51562 349.59064 328.70312 348.7625Q327.90625 347.91876 327.90625 346.34064ZM328.98438 346.34064Q328.98438 347.52814 329.5 348.1219Q330.03125 348.71564 330.8125 348.71564Q331.60938 348.71564 332.125 348.1219Q332.64062 347.52814 332.64062 346.3094Q332.64062 345.15314 332.10938 344.5594Q331.59375 343.96564 330.8125 343.96564Q330.03125 343.96564 329.5 344.5594Q328.98438 345.1375 328.98438 346.34064ZM335.28125 349.45L335.28125 343.23126L336.23438 343.23126L336.23438 344.16876Q336.59375 343.5125 336.89062 343.3094Q337.20312 343.09064 337.57812 343.09064Q338.10938 343.09064 338.65625 343.41876L338.29688 344.40314Q337.90625 344.16876 337.53125 344.16876Q337.17188 344.16876 336.89062 344.3875Q336.625 344.59064 336.51562 344.96564Q336.32812 345.52814 336.32812 346.1844L336.32812 349.45L335.28125 349.45ZM343.54688 347.45L344.64062 347.575Q344.39062 348.52814 343.6875 349.0594Q342.98438 349.59064 341.90625 349.59064Q340.54688 349.59064 339.73438 348.7469Q338.9375 347.90314 338.9375 346.3875Q338.9375 344.825 339.75 343.96564Q340.5625 343.09064 341.84375 343.09064Q343.09375 343.09064 343.875 343.9344Q344.67188 344.77814 344.67188 346.325Q344.67188 346.41876 344.67188 346.60626L340.03125 346.60626Q340.09375 347.6375 340.60938 348.1844Q341.125 348.71564 341.90625 348.71564Q342.48438 348.71564 342.89062 348.41876Q343.3125 348.10626 343.54688 347.45ZM340.09375 345.7469L343.5625 345.7469Q343.5 344.95 343.17188 344.5594Q342.65625 343.95 341.85938 343.95Q341.125 343.95 340.625 344.4344Q340.14062 344.91876 340.09375 345.7469Z" fill-rule="nonzero"/><path fill="#000000" d="M29.550013 198.07396L21.971888 198.07396L21.971888 200.90208L20.956263 200.90208L20.956263 194.08958L21.971888 194.08958L21.971888 196.93333L29.550013 196.93333L29.550013 198.07396ZM26.440638 193.77708Q24.706263 193.77708 23.878138 192.82396Q23.190638 192.02708 23.190638 190.87083Q23.190638 189.58958 24.034388 188.77708Q24.862513 187.94896 26.346888 187.94896Q27.550013 187.94896 28.237513 188.30833Q28.925013 188.66771 29.315638 189.37083Q29.690638 190.05833 29.690638 190.87083Q29.690638 192.16771 28.862513 192.98021Q28.018763 193.77708 26.440638 193.77708ZM26.440638 192.69896Q27.628138 192.69896 28.221888 192.18333Q28.815638 191.65208 28.815638 190.87083Q28.815638 190.07396 28.221888 189.55833Q27.628138 189.04271 26.409388 189.04271Q25.253138 189.04271 24.659388 189.57396Q24.065638 190.08958 24.065638 190.87083Q24.065638 191.65208 24.659388 192.18333Q25.237513 192.69896 26.440638 192.69896ZM28.612513 184.08958L29.534388 183.93333Q29.628138 184.38646 29.628138 184.73021Q29.628138 185.30833 29.456263 185.62083Q29.268763 185.93333 28.971888 186.07396Q28.675013 186.19896 27.721888 186.19896L24.143763 186.19896L24.143763 186.96458L23.331263 186.96458L23.331263 186.19896L21.784388 186.19896L21.159388 185.15208L23.331263 185.15208L23.331263 184.08958L24.143763 184.08958L24.143763 185.15208L27.784388 185.15208Q28.237513 185.15208 28.362513 185.10521Q28.487513 185.04271 28.565638 184.91771Q28.643763 184.79271 28.643763 184.55833Q28.643763 184.37083 28.612513 184.08958ZM28.784388 179.32396Q29.284388 179.91771 29.487513 180.46458Q29.690638 180.99583 29.690638 181.62083Q29.690638 182.65208 29.190638 183.19896Q28.690638 183.74583 27.909388 183.74583Q27.456263 183.74583 27.081263 183.54271Q26.690638 183.33958 26.471888 182.99583Q26.237513 182.65208 26.128138 182.23021Q26.034388 181.93333 25.956263 181.29271Q25.815638 180.02708 25.596888 179.41771Q25.378138 179.41771 25.331263 179.41771Q24.675013 179.41771 24.409388 179.71458Q24.065638 180.12083 24.065638 180.91771Q24.065638 181.65208 24.331263 182.01146Q24.581263 182.37083 25.237513 182.54271L25.096888 183.57396Q24.440638 183.43333 24.034388 183.10521Q23.628138 182.77708 23.409388 182.16771Q23.190638 181.55833 23.190638 180.76146Q23.190638 179.96458 23.378138 179.46458Q23.565638 178.96458 23.846888 178.73021Q24.128138 178.49583 24.565638 178.40208Q24.831263 178.35521 25.534388 178.35521L26.940638 178.35521Q28.409388 178.35521 28.800013 178.29271Q29.190638 178.21458 29.550013 178.01146L29.550013 179.12083Q29.221888 179.27708 28.784388 179.32396ZM26.425013 179.41771Q26.659388 179.99583 26.831263 181.13646Q26.925013 181.79271 27.050013 182.05833Q27.159388 182.32396 27.378138 182.48021Q27.596888 182.62083 27.878138 182.62083Q28.300013 182.62083 28.581263 182.30833Q28.862513 181.98021 28.862513 181.37083Q28.862513 180.76146 28.596888 180.29271Q28.331263 179.80833 27.862513 179.58958Q27.503138 179.41771 26.815638 179.41771L26.425013 179.41771ZM29.550013 176.41771L20.956263 176.41771L20.956263 175.35521L29.550013 175.35521L29.550013 176.41771Z" fill-rule="nonzero"/><path fill="#000000" d="M65.05 300.21564Q65.05 298.6844 65.3625 297.7625Q65.675 296.825 66.28438 296.325Q66.90938 295.825 67.84688 295.825Q68.53438 295.825 69.05 296.10626Q69.58125 296.3875 69.925 296.91876Q70.26875 297.4344 70.45625 298.1844Q70.64375 298.9344 70.64375 300.21564Q70.64375 301.73126 70.33125 302.65314Q70.03438 303.575 69.40938 304.09064Q68.8 304.59064 67.84688 304.59064Q66.6125 304.59064 65.89375 303.7Q65.05 302.6375 65.05 300.21564ZM66.12813 300.21564Q66.12813 302.325 66.62813 303.02814Q67.12813 303.73126 67.84688 303.73126Q68.58125 303.73126 69.06563 303.02814Q69.56563 302.325 69.56563 300.21564Q69.56563 298.09064 69.06563 297.40314Q68.58125 296.7 67.83125 296.7Q67.1125 296.7 66.675 297.3094Q66.12813 298.09064 66.12813 300.21564Z" fill-rule="nonzero"/><path fill="#000000" d="M69.01875 256.74335L67.97188 256.74335L67.97188 250.0246Q67.58125 250.38397 66.95625 250.75897Q66.34688 251.11835 65.8625 251.29022L65.8625 250.2746Q66.7375 249.85272 67.39375 249.2746Q68.06563 248.68085 68.34688 248.11835L69.01875 248.11835L69.01875 256.74335Z" fill-rule="nonzero"/><path fill="#000000" d="M70.59688 208.02104L70.59688 209.03667L64.90938 209.03667Q64.90938 208.66167 65.03438 208.30229Q65.25313 207.72417 65.72188 207.16167Q66.20625 206.59917 67.1125 205.86479Q68.51875 204.70854 69.00313 204.03667Q69.50313 203.36479 69.50313 202.77104Q69.50313 202.14604 69.05 201.72417Q68.59688 201.28667 67.87813 201.28667Q67.1125 201.28667 66.65938 201.73979Q66.20625 202.19292 66.19063 203.00542L65.1125 202.89604Q65.22188 201.67729 65.94063 201.05229Q66.675 200.41167 67.90938 200.41167Q69.14375 200.41167 69.8625 201.09917Q70.58125 201.78667 70.58125 202.80229Q70.58125 203.31792 70.3625 203.81792Q70.15938 204.30229 69.65938 204.86479Q69.175 205.41167 68.05 206.36479Q67.09688 207.16167 66.81563 207.45854Q66.55 207.73979 66.37813 208.02104L70.59688 208.02104Z" fill-rule="nonzero"/><path fill="#000000" d="M65.05 159.06438L66.1125 158.92375Q66.28438 159.81438 66.72188 160.22063Q67.15938 160.61125 67.78438 160.61125Q68.53438 160.61125 69.05 160.09563Q69.56563 159.58 69.56563 158.81438Q69.56563 158.09563 69.08125 157.62688Q68.6125 157.1425 67.87813 157.1425Q67.58125 157.1425 67.12813 157.2675L67.25313 156.33Q67.3625 156.34563 67.425 156.34563Q68.09688 156.34563 68.62813 156.00188Q69.175 155.6425 69.175 154.90813Q69.175 154.33 68.78438 153.955Q68.39375 153.56438 67.76875 153.56438Q67.15938 153.56438 66.7375 153.955Q66.33125 154.34563 66.22188 155.11125L65.15938 154.92375Q65.34688 153.87688 66.03438 153.29875Q66.72188 152.705 67.7375 152.705Q68.44063 152.705 69.03438 153.0175Q69.62813 153.31438 69.94063 153.83Q70.25313 154.34563 70.25313 154.93938Q70.25313 155.48625 69.95625 155.955Q69.65938 156.40813 69.08125 156.67375Q69.83125 156.84563 70.25313 157.40813Q70.675 157.955 70.675 158.79875Q70.675 159.92375 69.84688 160.705Q69.03438 161.48625 67.78438 161.48625Q66.65938 161.48625 65.90938 160.81438Q65.15938 160.12688 65.05 159.06438Z" fill-rule="nonzero"/><path fill="#000000" d="M68.425 113.62334L68.425 111.56084L64.70625 111.56084L64.70625 110.59209L68.62813 105.02959L69.4875 105.02959L69.4875 110.59209L70.64375 110.59209L70.64375 111.56084L69.4875 111.56084L69.4875 113.62334L68.425 113.62334ZM68.425 110.59209L68.425 106.73271L65.7375 110.59209L68.425 110.59209Z" fill-rule="nonzero"/><path fill="#000000" d="M65.05 63.666664L66.15938 63.572914Q66.28438 64.385414 66.72188 64.791664Q67.175 65.197914 67.81563 65.197914Q68.56563 65.197914 69.09688 64.61979Q69.62813 64.041664 69.62813 63.104164Q69.62813 62.197914 69.1125 61.68229Q68.6125 61.15104 67.78438 61.15104Q67.28438 61.15104 66.8625 61.385414Q66.45625 61.61979 66.22188 61.979164L65.2375 61.854164L66.06563 57.447914L70.34688 57.447914L70.34688 58.447914L66.90938 58.447914L66.45625 60.760414Q67.22188 60.21354 68.06563 60.21354Q69.19063 60.21354 69.95625 60.99479Q70.7375 61.77604 70.7375 63.010414Q70.7375 64.166664 70.06563 65.02604Q69.2375 66.05729 67.81563 66.05729Q66.64375 66.05729 65.89375 65.40104Q65.15938 64.74479 65.05 63.666664Z" fill-rule="nonzero"/><path fill="#000000" d="M142.09492 317.45L141.04805 317.45L141.04805 310.73126Q140.65742 311.09064 140.03242 311.46564Q139.42305 311.825 138.93867 311.9969L138.93867 310.98126Q139.81367 310.5594 140.46992 309.98126Q141.1418 309.3875 141.42305 308.825L142.09492 308.825L142.09492 317.45Z" fill-rule="nonzero"/><path fill="#000000" d="M237.85995 316.4344L237.85995 317.45L232.17245 317.45Q232.17245 317.075 232.29745 316.71564Q232.5162 316.1375 232.98495 315.575Q233.46933 315.0125 234.37558 314.27814Q235.78183 313.1219 236.2662 312.45Q236.7662 311.77814 236.7662 311.1844Q236.7662 310.5594 236.31308 310.1375Q235.85995 309.7 235.1412 309.7Q234.37558 309.7 233.92245 310.15314Q233.46933 310.60626 233.4537 311.41876L232.37558 311.3094Q232.48495 310.09064 233.2037 309.46564Q233.93808 308.825 235.17245 308.825Q236.40683 308.825 237.12558 309.5125Q237.84433 310.2 237.84433 311.21564Q237.84433 311.73126 237.62558 312.23126Q237.42245 312.71564 236.92245 313.27814Q236.43808 313.825 235.31308 314.77814Q234.35995 315.575 234.0787 315.8719Q233.81308 316.15314 233.6412 316.4344L237.85995 316.4344Z" fill-rule="nonzero"/><path fill="#000000" d="M326.5 315.1844L327.5625 315.04376Q327.73438 315.9344 328.17188 316.34064Q328.60938 316.73126 329.23438 316.73126Q329.98438 316.73126 330.5 316.21564Q331.01562 315.7 331.01562 314.9344Q331.01562 314.21564 330.53125 313.7469Q330.0625 313.2625 329.32812 313.2625Q329.03125 313.2625 328.57812 313.3875L328.70312 312.45Q328.8125 312.46564 328.875 312.46564Q329.54688 312.46564 330.07812 312.1219Q330.625 311.7625 330.625 311.02814Q330.625 310.45 330.23438 310.075Q329.84375 309.6844 329.21875 309.6844Q328.60938 309.6844 328.1875 310.075Q327.78125 310.46564 327.67188 311.23126L326.60938 311.04376Q326.79688 309.9969 327.48438 309.41876Q328.17188 308.825 329.1875 308.825Q329.89062 308.825 330.48438 309.1375Q331.07812 309.4344 331.39062 309.95Q331.70312 310.46564 331.70312 311.0594Q331.70312 311.60626 331.40625 312.075Q331.10938 312.52814 330.53125 312.79376Q331.28125 312.96564 331.70312 313.52814Q332.125 314.075 332.125 314.91876Q332.125 316.04376 331.29688 316.825Q330.48438 317.60626 329.23438 317.60626Q328.10938 317.60626 327.35938 316.9344Q326.60938 316.2469 326.5 315.1844Z" fill-rule="nonzero"/><path fill="#000000" d="M424.06192 317.45L424.06192 315.3875L420.34317 315.3875L420.34317 314.41876L424.26505 308.85626L425.12442 308.85626L425.12442 314.41876L426.28067 314.41876L426.28067 315.3875L425.12442 315.3875L425.12442 317.45L424.06192 317.45ZM424.06192 314.41876L424.06192 310.5594L421.37442 314.41876L424.06192 314.41876Z" fill-rule="nonzero"/><path fill="#000000" d="M514.87384 315.2L515.9832 315.10626Q516.1082 315.91876 516.5457 316.325Q516.99884 316.73126 517.63947 316.73126Q518.38947 316.73126 518.9207 316.15314Q519.45197 315.575 519.45197 314.6375Q519.45197 313.73126 518.93634 313.21564Q518.43634 312.6844 517.6082 312.6844Q517.1082 312.6844 516.68634 312.91876Q516.2801 313.15314 516.0457 313.5125L515.06134 313.3875L515.88947 308.98126L520.1707 308.98126L520.1707 309.98126L516.7332 309.98126L516.2801 312.29376Q517.0457 311.7469 517.88947 311.7469Q519.01447 311.7469 519.7801 312.52814Q520.56134 313.3094 520.56134 314.54376Q520.56134 315.7 519.88947 316.5594Q519.06134 317.59064 517.63947 317.59064Q516.4676 317.59064 515.7176 316.9344Q514.9832 316.27814 514.87384 315.2Z" fill-rule="nonzero"/><path fill="#757575" d="M20.159374 37.55L20.159374 23.2375L22.05 23.2375L22.05 29.1125L29.4875 29.1125L29.4875 23.2375L31.378124 23.2375L31.378124 37.55L29.4875 37.55L29.4875 30.8L22.05 30.8L22.05 37.55L20.159374 37.55ZM33.221874 32.3625Q33.221874 29.4875 34.815624 28.096874Q36.159374 26.940624 38.08125 26.940624Q40.221874 26.940624 41.565624 28.346874Q42.925 29.753124 42.925 32.221874Q42.925 34.221874 42.33125 35.378124Q41.7375 36.51875 40.58125 37.159374Q39.440624 37.784374 38.08125 37.784374Q35.89375 37.784374 34.55 36.39375Q33.221874 34.9875 33.221874 32.3625ZM35.01875 32.3625Q35.01875 34.3625 35.878124 35.346874Q36.753124 36.33125 38.08125 36.33125Q39.39375 36.33125 40.253124 35.346874Q41.128124 34.346874 41.128124 32.3Q41.128124 30.378124 40.253124 29.39375Q39.378124 28.39375 38.08125 28.39375Q36.753124 28.39375 35.878124 29.39375Q35.01875 30.378124 35.01875 32.3625ZM46.784374 37.55L43.6125 27.175L45.425 27.175L47.08125 33.159374L47.690624 35.39375Q47.7375 35.221874 48.221874 33.253124L49.878124 27.175L51.690624 27.175L53.2375 33.190624L53.753124 35.175L54.346874 33.175L56.128124 27.175L57.83125 27.175L54.596874 37.55L52.76875 37.55L51.1125 31.33125L50.721874 29.565624L48.6125 37.55L46.784374 37.55ZM65.28438 37.55L65.28438 28.55L63.7375 28.55L63.7375 27.175L65.28438 27.175L65.28438 26.08125Q65.28438 25.034374 65.47188 24.51875Q65.72188 23.83125 66.3625 23.409374Q67.00313 22.9875 68.15938 22.9875Q68.90938 22.9875 69.8 23.159374L69.53438 24.690624Q68.9875 24.596874 68.50313 24.596874Q67.70625 24.596874 67.3625 24.940624Q67.03438 25.284374 67.03438 26.221874L67.03438 27.175L69.06563 27.175L69.06563 28.55L67.03438 28.55L67.03438 37.55L65.28438 37.55ZM77.64375 36.26875Q76.65938 37.096874 75.75313 37.440624Q74.84688 37.784374 73.81563 37.784374Q72.1125 37.784374 71.19063 36.95625Q70.26875 36.1125 70.26875 34.815624Q70.26875 34.05 70.6125 33.425Q70.97188 32.8 71.53438 32.425Q72.09688 32.034374 72.8 31.83125Q73.31563 31.70625 74.3625 31.565624Q76.4875 31.315624 77.4875 30.971874Q77.50313 30.6125 77.50313 30.503124Q77.50313 29.440624 77.00313 28.9875Q76.33125 28.39375 75.00313 28.39375Q73.75313 28.39375 73.15938 28.83125Q72.58125 29.26875 72.3 30.378124L70.58125 30.14375Q70.81563 29.034374 71.34688 28.3625Q71.87813 27.675 72.89375 27.315624Q73.90938 26.940624 75.25313 26.940624Q76.58125 26.940624 77.40938 27.253124Q78.2375 27.565624 78.62813 28.05Q79.01875 28.51875 79.175 29.2375Q79.26875 29.690624 79.26875 30.8625L79.26875 33.20625Q79.26875 35.659374 79.37813 36.315624Q79.4875 36.95625 79.83125 37.55L77.9875 37.55Q77.72188 37.003124 77.64375 36.26875ZM77.4875 32.346874Q76.53438 32.7375 74.6125 33.003124Q73.53438 33.159374 73.08125 33.3625Q72.64375 33.55 72.39375 33.925Q72.14375 34.3 72.14375 34.76875Q72.14375 35.471874 72.675 35.940624Q73.20625 36.409374 74.2375 36.409374Q75.25313 36.409374 76.03438 35.971874Q76.83125 35.51875 77.20625 34.753124Q77.4875 34.14375 77.4875 32.9875L77.4875 32.346874ZM81.15938 34.45625L82.90938 34.175Q83.05 35.221874 83.72188 35.784374Q84.39375 36.33125 85.59688 36.33125Q86.8 36.33125 87.37813 35.846874Q87.97188 35.346874 87.97188 34.690624Q87.97188 34.096874 87.45625 33.753124Q87.09688 33.51875 85.65938 33.159374Q83.72188 32.659374 82.97188 32.315624Q82.2375 31.95625 81.84688 31.33125Q81.45625 30.690624 81.45625 29.925Q81.45625 29.2375 81.76875 28.64375Q82.09688 28.05 82.64375 27.659374Q83.05 27.3625 83.75313 27.159374Q84.47188 26.940624 85.28438 26.940624Q86.50313 26.940624 87.425 27.3Q88.34688 27.64375 88.78438 28.253124Q89.22188 28.846874 89.39375 29.846874L87.675 30.08125Q87.55 29.284374 86.9875 28.846874Q86.425 28.39375 85.40938 28.39375Q84.19063 28.39375 83.675 28.8Q83.15938 29.190624 83.15938 29.721874Q83.15938 30.065624 83.37813 30.346874Q83.58125 30.628124 84.05 30.815624Q84.31563 30.909374 85.59688 31.253124Q87.47188 31.753124 88.20625 32.08125Q88.94063 32.39375 89.3625 33.003124Q89.78438 33.596874 89.78438 34.503124Q89.78438 35.378124 89.26875 36.159374Q88.75313 36.940624 87.78438 37.3625Q86.81563 37.784374 85.59688 37.784374Q83.58125 37.784374 82.51875 36.940624Q81.45625 36.096874 81.15938 34.45625ZM95.70625 35.971874L95.95625 37.534374Q95.22188 37.690624 94.62813 37.690624Q93.675 37.690624 93.14375 37.39375Q92.62813 37.08125 92.40938 36.596874Q92.19063 36.096874 92.19063 34.51875L92.19063 28.55L90.90938 28.55L90.90938 27.175L92.19063 27.175L92.19063 24.6125L93.94063 23.55L93.94063 27.175L95.70625 27.175L95.70625 28.55L93.94063 28.55L93.94063 34.6125Q93.94063 35.3625 94.03438 35.58125Q94.12813 35.784374 94.33125 35.925Q94.55 36.05 94.94063 36.05Q95.22188 36.05 95.70625 35.971874ZM96.55 37.8L100.70625 22.9875L102.1125 22.9875L97.97188 37.8L96.55 37.8ZM103.15938 34.45625L104.90938 34.175Q105.05 35.221874 105.72188 35.784374Q106.39375 36.33125 107.59688 36.33125Q108.8 36.33125 109.37813 35.846874Q109.97188 35.346874 109.97188 34.690624Q109.97188 34.096874 109.45625 33.753124Q109.09688 33.51875 107.65938 33.159374Q105.72188 32.659374 104.97188 32.315624Q104.2375 31.95625 103.84688 31.33125Q103.45625 30.690624 103.45625 29.925Q103.45625 29.2375 103.76875 28.64375Q104.09688 28.05 104.64375 27.659374Q105.05 27.3625 105.75313 27.159374Q106.47188 26.940624 107.28438 26.940624Q108.50313 26.940624 109.425 27.3Q110.34688 27.64375 110.78438 28.253124Q111.22188 28.846874 111.39375 29.846874L109.675 30.08125Q109.55 29.284374 108.9875 28.846874Q108.425 28.39375 107.40938 28.39375Q106.19063 28.39375 105.675 28.8Q105.15938 29.190624 105.15938 29.721874Q105.15938 30.065624 105.37813 30.346874Q105.58125 30.628124 106.05 30.815624Q106.31563 30.909374 107.59688 31.253124Q109.47188 31.753124 110.20625 32.08125Q110.94063 32.39375 111.3625 33.003124Q111.78438 33.596874 111.78438 34.503124Q111.78438 35.378124 111.26875 36.159374Q110.75313 36.940624 109.78438 37.3625Q108.81563 37.784374 107.59688 37.784374Q105.58125 37.784374 104.51875 36.940624Q103.45625 36.096874 103.15938 34.45625ZM113.83125 37.55L113.83125 23.2375L115.58125 23.2375L115.58125 37.55L113.83125 37.55ZM117.22188 32.3625Q117.22188 29.4875 118.81563 28.096874Q120.15938 26.940624 122.08125 26.940624Q124.22188 26.940624 125.56563 28.346874Q126.925 29.753124 126.925 32.221874Q126.925 34.221874 126.33125 35.378124Q125.7375 36.51875 124.58125 37.159374Q123.44063 37.784374 122.08125 37.784374Q119.89375 37.784374 118.55 36.39375Q117.22188 34.9875 117.22188 32.3625ZM119.01875 32.3625Q119.01875 34.3625 119.87813 35.346874Q120.75313 36.33125 122.08125 36.33125Q123.39375 36.33125 124.25313 35.346874Q125.12813 34.346874 125.12813 32.3Q125.12813 30.378124 124.25313 29.39375Q123.37813 28.39375 122.08125 28.39375Q120.75313 28.39375 119.87813 29.39375Q119.01875 30.378124 119.01875 32.3625ZM130.78438 37.55L127.6125 27.175L129.425 27.175L131.08125 33.159374L131.69063 35.39375Q131.7375 35.221874 132.22188 33.253124L133.87813 27.175L135.69063 27.175L137.2375 33.190624L137.75313 35.175L138.34688 33.175L140.12813 27.175L141.83125 27.175L138.59688 37.55L136.76875 37.55L135.1125 31.33125L134.72188 29.565624L132.6125 37.55L130.78438 37.55ZM148.87813 25.253124L148.87813 23.2375L150.64375 23.2375L150.64375 25.253124L148.87813 25.253124ZM148.87813 37.55L148.87813 27.175L150.64375 27.175L150.64375 37.55L148.87813 37.55ZM152.15938 34.45625L153.90938 34.175Q154.05 35.221874 154.72188 35.784374Q155.39375 36.33125 156.59688 36.33125Q157.8 36.33125 158.37813 35.846874Q158.97188 35.346874 158.97188 34.690624Q158.97188 34.096874 158.45625 33.753124Q158.09688 33.51875 156.65938 33.159374Q154.72188 32.659374 153.97188 32.315624Q153.2375 31.95625 152.84688 31.33125Q152.45625 30.690624 152.45625 29.925Q152.45625 29.2375 152.76875 28.64375Q153.09688 28.05 153.64375 27.659374Q154.05 27.3625 154.75313 27.159374Q155.47188 26.940624 156.28438 26.940624Q157.50313 26.940624 158.425 27.3Q159.34688 27.64375 159.78438 28.253124Q160.22188 28.846874 160.39375 29.846874L158.675 30.08125Q158.55 29.284374 157.9875 28.846874Q157.425 28.39375 156.40938 28.39375Q155.19063 28.39375 154.675 28.8Q154.15938 29.190624 154.15938 29.721874Q154.15938 30.065624 154.37813 30.346874Q154.58125 30.628124 155.05 30.815624Q155.31563 30.909374 156.59688 31.253124Q158.47188 31.753124 159.20625 32.08125Q159.94063 32.39375 160.3625 33.003124Q160.78438 33.596874 160.78438 34.503124Q160.78438 35.378124 160.26875 36.159374Q159.75313 36.940624 158.78438 37.3625Q157.81563 37.784374 156.59688 37.784374Q154.58125 37.784374 153.51875 36.940624Q152.45625 36.096874 152.15938 34.45625ZM172.70625 35.971874L172.95625 37.534374Q172.22188 37.690624 171.62813 37.690624Q170.675 37.690624 170.14375 37.39375Q169.62813 37.08125 169.40938 36.596874Q169.19063 36.096874 169.19063 34.51875L169.19063 28.55L167.90938 28.55L167.90938 27.175L169.19063 27.175L169.19063 24.6125L170.94063 23.55L170.94063 27.175L172.70625 27.175L172.70625 28.55L170.94063 28.55L170.94063 34.6125Q170.94063 35.3625 171.03438 35.58125Q171.12813 35.784374 171.33125 35.925Q171.55 36.05 171.94063 36.05Q172.22188 36.05 172.70625 35.971874ZM174.8625 37.55L174.8625 23.2375L176.62813 23.2375L176.62813 28.3625Q177.8625 26.940624 179.7375 26.940624Q180.87813 26.940624 181.72188 27.39375Q182.58125 27.846874 182.94063 28.659374Q183.31563 29.45625 183.31563 30.971874L183.31563 37.55L181.56563 37.55L181.56563 30.971874Q181.56563 29.659374 180.9875 29.065624Q180.40938 28.45625 179.37813 28.45625Q178.59688 28.45625 177.89375 28.8625Q177.20625 29.26875 176.90938 29.971874Q176.62813 30.659374 176.62813 31.878124L176.62813 37.55L174.8625 37.55ZM192.97188 34.20625L194.78438 34.440624Q194.3625 36.01875 193.19063 36.909374Q192.03438 37.784374 190.22188 37.784374Q187.95625 37.784374 186.6125 36.39375Q185.28438 34.9875 185.28438 32.45625Q185.28438 29.83125 186.62813 28.39375Q187.97188 26.940624 190.12813 26.940624Q192.20625 26.940624 193.51875 28.3625Q194.84688 29.76875 194.84688 32.346874Q194.84688 32.503124 194.83125 32.815624L187.09688 32.815624Q187.19063 34.51875 188.06563 35.425Q188.94063 36.33125 190.2375 36.33125Q191.20625 36.33125 191.87813 35.83125Q192.56563 35.315624 192.97188 34.20625ZM187.19063 31.3625L192.9875 31.3625Q192.87813 30.065624 192.33125 29.409374Q191.4875 28.39375 190.14375 28.39375Q188.94063 28.39375 188.1125 29.20625Q187.28438 30.003124 187.19063 31.3625ZM202.8625 41.51875L202.8625 27.175L204.47188 27.175L204.47188 28.51875Q205.03438 27.7375 205.7375 27.346874Q206.45625 26.940624 207.47188 26.940624Q208.8 26.940624 209.81563 27.628124Q210.83125 28.315624 211.34688 29.565624Q211.87813 30.8 211.87813 32.284374Q211.87813 33.878124 211.3 35.159374Q210.7375 36.425 209.64375 37.1125Q208.55 37.784374 207.34688 37.784374Q206.47188 37.784374 205.76875 37.409374Q205.08125 37.034374 204.62813 36.471874L204.62813 41.51875L202.8625 41.51875ZM204.45625 32.425Q204.45625 34.425 205.26875 35.378124Q206.08125 36.33125 207.2375 36.33125Q208.40938 36.33125 209.2375 35.346874Q210.08125 34.3625 210.08125 32.26875Q210.08125 30.3 209.25313 29.315624Q208.44063 28.315624 207.31563 28.315624Q206.19063 28.315624 205.31563 29.378124Q204.45625 30.425 204.45625 32.425ZM213.84688 37.55L213.84688 27.175L215.425 27.175L215.425 28.753124Q216.03438 27.64375 216.55 27.3Q217.06563 26.940624 217.675 26.940624Q218.56563 26.940624 219.4875 27.503124L218.87813 29.14375Q218.2375 28.753124 217.59688 28.753124Q217.01875 28.753124 216.55 29.1125Q216.09688 29.45625 215.89375 30.065624Q215.6125 31.003124 215.6125 32.1125L215.6125 37.55L213.84688 37.55ZM220.22188 32.3625Q220.22188 29.4875 221.81563 28.096874Q223.15938 26.940624 225.08125 26.940624Q227.22188 26.940624 228.56563 28.346874Q229.925 29.753124 229.925 32.221874Q229.925 34.221874 229.33125 35.378124Q228.7375 36.51875 227.58125 37.159374Q226.44063 37.784374 225.08125 37.784374Q222.89375 37.784374 221.55 36.39375Q220.22188 34.9875 220.22188 32.3625ZM222.01875 32.3625Q222.01875 34.3625 222.87813 35.346874Q223.75313 36.33125 225.08125 36.33125Q226.39375 36.33125 227.25313 35.346874Q228.12813 34.346874 228.12813 32.3Q228.12813 30.378124 227.25313 29.39375Q226.37813 28.39375 225.08125 28.39375Q223.75313 28.39375 222.87813 29.39375Q222.01875 30.378124 222.01875 32.3625ZM238.64375 33.753124L240.3625 33.971874Q240.08125 35.76875 238.90938 36.784374Q237.75313 37.784374 236.05 37.784374Q233.925 37.784374 232.62813 36.39375Q231.33125 35.003124 231.33125 32.409374Q231.33125 30.721874 231.87813 29.471874Q232.44063 28.20625 233.58125 27.58125Q234.72188 26.940624 236.06563 26.940624Q237.75313 26.940624 238.81563 27.8Q239.89375 28.659374 240.20625 30.221874L238.4875 30.4875Q238.25313 29.440624 237.62813 28.925Q237.00313 28.39375 236.12813 28.39375Q234.8 28.39375 233.97188 29.346874Q233.14375 30.3 233.14375 32.346874Q233.14375 34.440624 233.94063 35.39375Q234.7375 36.33125 236.03438 36.33125Q237.06563 36.33125 237.75313 35.70625Q238.45625 35.065624 238.64375 33.753124ZM248.97188 34.20625L250.78438 34.440624Q250.3625 36.01875 249.19063 36.909374Q248.03438 37.784374 246.22188 37.784374Q243.95625 37.784374 242.6125 36.39375Q241.28438 34.9875 241.28438 32.45625Q241.28438 29.83125 242.62813 28.39375Q243.97188 26.940624 246.12813 26.940624Q248.20625 26.940624 249.51875 28.3625Q250.84688 29.76875 250.84688 32.346874Q250.84688 32.503124 250.83125 32.815624L243.09688 32.815624Q243.19063 34.51875 244.06563 35.425Q244.94063 36.33125 246.2375 36.33125Q247.20625 36.33125 247.87813 35.83125Q248.56563 35.315624 248.97188 34.20625ZM243.19063 31.3625L248.9875 31.3625Q248.87813 30.065624 248.33125 29.409374Q247.4875 28.39375 246.14375 28.39375Q244.94063 28.39375 244.1125 29.20625Q243.28438 30.003124 243.19063 31.3625ZM252.15938 34.45625L253.90938 34.175Q254.05 35.221874 254.72188 35.784374Q255.39375 36.33125 256.59686 36.33125Q257.8 36.33125 258.3781 35.846874Q258.97186 35.346874 258.97186 34.690624Q258.97186 34.096874 258.45624 33.753124Q258.09686 33.51875 256.65936 33.159374Q254.72188 32.659374 253.97188 32.315624Q253.2375 31.95625 252.84688 31.33125Q252.45625 30.690624 252.45625 29.925Q252.45625 29.2375 252.76875 28.64375Q253.09688 28.05 253.64375 27.659374Q254.05 27.3625 254.75313 27.159374Q255.47188 26.940624 256.28436 26.940624Q257.5031 26.940624 258.425 27.3Q259.34686 27.64375 259.78436 28.253124Q260.22186 28.846874 260.39374 29.846874L258.675 30.08125Q258.55 29.284374 257.9875 28.846874Q257.425 28.39375 256.40936 28.39375Q255.19063 28.39375 254.675 28.8Q254.15938 29.190624 254.15938 29.721874Q254.15938 30.065624 254.37813 30.346874Q254.58125 30.628124 255.05 30.815624Q255.31563 30.909374 256.59686 31.253124Q258.47186 31.753124 259.20624 32.08125Q259.9406 32.39375 260.3625 33.003124Q260.78436 33.596874 260.78436 34.503124Q260.78436 35.378124 260.26874 36.159374Q259.7531 36.940624 258.78436 37.3625Q257.8156 37.784374 256.59686 37.784374Q254.58125 37.784374 253.51875 36.940624Q252.45625 36.096874 252.15938 34.45625ZM262.15936 34.45625L263.90936 34.175Q264.05 35.221874 264.72186 35.784374Q265.39374 36.33125 266.59686 36.33125Q267.8 36.33125 268.3781 35.846874Q268.97186 35.346874 268.97186 34.690624Q268.97186 34.096874 268.45624 33.753124Q268.09686 33.51875 266.65936 33.159374Q264.72186 32.659374 263.97186 32.315624Q263.2375 31.95625 262.84686 31.33125Q262.45624 30.690624 262.45624 29.925Q262.45624 29.2375 262.76874 28.64375Q263.09686 28.05 263.64374 27.659374Q264.05 27.3625 264.7531 27.159374Q265.47186 26.940624 266.28436 26.940624Q267.5031 26.940624 268.425 27.3Q269.34686 27.64375 269.78436 28.253124Q270.22186 28.846874 270.39374 29.846874L268.675 30.08125Q268.55 29.284374 267.9875 28.846874Q267.425 28.39375 266.40936 28.39375Q265.1906 28.39375 264.675 28.8Q264.15936 29.190624 264.15936 29.721874Q264.15936 30.065624 264.3781 30.346874Q264.58124 30.628124 265.05 30.815624Q265.3156 30.909374 266.59686 31.253124Q268.47186 31.753124 269.20624 32.08125Q269.9406 32.39375 270.3625 33.003124Q270.78436 33.596874 270.78436 34.503124Q270.78436 35.378124 270.26874 36.159374Q269.7531 36.940624 268.78436 37.3625Q267.8156 37.784374 266.59686 37.784374Q264.58124 37.784374 263.51874 36.940624Q262.45624 36.096874 262.15936 34.45625ZM276.15936 34.01875Q276.14374 33.675 276.14374 33.503124Q276.14374 32.45625 276.4406 31.70625Q276.65936 31.14375 277.14374 30.565624Q277.4875 30.14375 278.39374 29.346874Q279.3156 28.534374 279.58124 28.065624Q279.8625 27.58125 279.8625 27.01875Q279.8625 25.9875 279.05 25.221874Q278.2531 24.440624 277.09686 24.440624Q275.97186 24.440624 275.22186 25.14375Q274.47186 25.846874 274.2375 27.33125L272.425 27.1125Q272.675 25.1125 273.8781 24.05Q275.08124 22.9875 277.0656 22.9875Q279.175 22.9875 280.425 24.128124Q281.675 25.26875 281.675 26.89375Q281.675 27.83125 281.22186 28.628124Q280.78436 29.409374 279.5031 30.55Q278.64374 31.315624 278.3781 31.675Q278.1281 32.034374 277.9875 32.503124Q277.8625 32.971874 277.84686 34.01875L276.15936 34.01875ZM276.05 37.55L276.05 35.55L278.05 35.55L278.05 37.55L276.05 37.55Z" fill-rule="nonzero"/></svg>