<svg version="1.1" viewBox="0.0 0.0 600.0 371.0" fill="none" stroke="none" stroke-linecap="square" stroke-miterlimit="10" width="600" height="371" xmlns:xlink="http://www.w3.org/1999/xlink" xmlns="http://www.w3.org/2000/svg"><path fill="#ffffff" d="M0 0L600.0 0L600.0 371.0L0 371.0L0 0Z" fill-rule="nonzero"/><path stroke="#333333" stroke-width="1.0" stroke-linecap="butt" d="M77.5 300.5L581.5 300.5" fill-rule="nonzero"/><path stroke="#cccccc" stroke-width="1.0" stroke-linecap="butt" d="M77.5 240.5L581.5 240.5" fill-rule="nonzero"/><path stroke="#cccccc" stroke-width="1.0" stroke-linecap="butt" d="M77.5 181.5L581.5 181.5" fill-rule="nonzero"/><path stroke="#cccccc" stroke-width="1.0" stroke-linecap="butt" d="M77.5 121.5L581.5 121.5" fill-rule="nonzero"/><path stroke="#cccccc" stroke-width="1.0" stroke-linecap="butt" d="M77.5 61.5L581.5 61.5" fill-rule="nonzero"/><clipPath id="id_0"><path d="M77.55 61.916668L581.45 61.916668L581.45 300.45L77.55 300.45L77.55 61.916668Z" clip-rule="nonzero"/></clipPath><path stroke="#000000" stroke-width="2.0" stroke-linecap="butt" stroke-opacity="0.0" clip-path="url(#id_0)" d="M172.0 300.0L111.0 300.0L111.0 300.0L172.0 300.0Z" fill-rule="nonzero"/><path fill="#4285f4" clip-path="url(#id_0)" d="M172.0 300.0L111.0 300.0L111.0 300.0L172.0 300.0Z" fill-rule="nonzero"/><path stroke="#000000" stroke-width="2.0" stroke-linecap="butt" stroke-opacity="0.0" clip-path="url(#id_0)" d="M266.0 300.0L205.0 300.0L205.0 300.0L266.0 300.0Z" fill-rule="nonzero"/><path fill="#4285f4" clip-path="url(#id_0)" d="M266.0 300.0L205.0 300.0L205.0 300.0L266.0 300.0Z" fill-rule="nonzero"/><path stroke="#000000" stroke-width="2.0" stroke-linecap="butt" stroke-opacity="0.0" clip-path="url(#id_0)" d="M361.0 300.0L300.0 300.0L300.0 243.0C300.0 241.89543 300.89542 241.0 302.0 241.0L359.0 241.0C360.10458 241.0 361.0 241.89543 361.0 243.0Z" fill-rule="nonzero"/><path fill="#4285f4" clip-path="url(#id_0)" d="M361.0 300.0L300.0 300.0L300.0 243.0C300.0 241.89543 300.89542 241.0 302.0 241.0L359.0 241.0C360.10458 241.0 361.0 241.89543 361.0 243.0Z" fill-rule="nonzero"/><path stroke="#000000" stroke-width="2.0" stroke-linecap="butt" stroke-opacity="0.0" clip-path="url(#id_0)" d="M455.0 300.0L394.0 300.0L394.0 124.0C394.0 122.89543 394.89542 122.0 396.0 122.0L453.0 122.0C454.10458 122.0 455.0 122.89543 455.0 124.0Z" fill-rule="nonzero"/><path fill="#4285f4" clip-path="url(#id_0)" d="M455.0 300.0L394.0 300.0L394.0 124.0C394.0 122.89543 394.89542 122.0 396.0 122.0L453.0 122.0C454.10458 122.0 455.0 122.89543 455.0 124.0Z" fill-rule="nonzero"/><path stroke="#000000" stroke-width="2.0" stroke-linecap="butt" stroke-opacity="0.0" clip-path="url(#id_0)" d="M549.0 300.0L488.0 300.0L488.0 64.0C488.0 62.89543 488.89542 62.0 490.0 62.0L547.0 62.0C548.10455 62.0 549.0 62.89543 549.0 64.0Z" fill-rule="nonzero"/><path fill="#4285f4" clip-path="url(#id_0)" d="M549.0 300.0L488.0 300.0L488.0 64.0C488.0 62.89543 488.89542 62.0 490.0 62.0L547.0 62.0C548.10455 62.0 549.0 62.89543 549.0 64.0Z" fill-rule="nonzero"/><path fill="#000000" d="M314.04688 346.6844L315.10938 346.59064Q315.1875 347.2469 315.46875 347.65314Q315.75 348.0594 316.32812 348.325Q316.92188 348.575 317.65625 348.575Q318.29688 348.575 318.79688 348.3875Q319.29688 348.1844 319.53125 347.85626Q319.78125 347.5125 319.78125 347.1219Q319.78125 346.71564 319.54688 346.41876Q319.3125 346.10626 318.78125 345.90314Q318.42188 345.7625 317.23438 345.48126Q316.0625 345.2 315.59375 344.95Q314.96875 344.6219 314.67188 344.15314Q314.375 343.66876 314.375 343.075Q314.375 342.4344 314.73438 341.8719Q315.10938 341.29376 315.8125 341.0125Q316.53125 340.71564 317.39062 340.71564Q318.34375 340.71564 319.07812 341.02814Q319.8125 341.325 320.20312 341.9344Q320.59375 342.52814 320.625 343.27814L319.53125 343.35626Q319.4375 342.54376 318.92188 342.1375Q318.42188 341.71564 317.4375 341.71564Q316.40625 341.71564 315.9375 342.09064Q315.46875 342.46564 315.46875 342.9969Q315.46875 343.46564 315.79688 343.7625Q316.125 344.0594 317.5 344.3719Q318.89062 344.6844 319.40625 344.91876Q320.15625 345.27814 320.51562 345.8094Q320.875 346.325 320.875 347.02814Q320.875 347.71564 320.48438 348.325Q320.09375 348.91876 319.35938 349.2625Q318.625 349.59064 317.70312 349.59064Q316.53125 349.59064 315.73438 349.2625Q314.95312 348.91876 314.5 348.23126Q314.0625 347.54376 314.04688 346.6844ZM326.35938 347.16876L327.39062 347.3094Q327.21875 348.3719 326.51562 348.98126Q325.8125 349.59064 324.79688 349.59064Q323.51562 349.59064 322.73438 348.7625Q321.96875 347.91876 321.96875 346.35626Q321.96875 345.35626 322.29688 344.60626Q322.64062 343.84064 323.3125 343.46564Q324.0 343.09064 324.8125 343.09064Q325.8125 343.09064 326.45312 343.60626Q327.10938 344.10626 327.29688 345.0594L326.26562 345.21564Q326.125 344.59064 325.75 344.27814Q325.375 343.95 324.84375 343.95Q324.04688 343.95 323.54688 344.52814Q323.04688 345.09064 323.04688 346.325Q323.04688 347.59064 323.53125 348.15314Q324.01562 348.71564 324.78125 348.71564Q325.40625 348.71564 325.8125 348.34064Q326.23438 347.96564 326.35938 347.16876ZM327.90625 346.34064Q327.90625 344.60626 328.85938 343.77814Q329.65625 343.09064 330.8125 343.09064Q332.09375 343.09064 332.90625 343.9344Q333.73438 344.7625 333.73438 346.2469Q333.73438 347.45 333.375 348.1375Q333.01562 348.825 332.3125 349.21564Q331.625 349.59064 330.8125 349.59064Q329.51562 349.59064 328.70312 348.7625Q327.90625 347.91876 327.90625 346.34064ZM328.98438 346.34064Q328.98438 347.52814 329.5 348.1219Q330.03125 348.71564 330.8125 348.71564Q331.60938 348.71564 332.125 348.1219Q332.64062 347.52814 332.64062 346.3094Q332.64062 345.15314 332.10938 344.5594Q331.59375 343.96564 330.8125 343.96564Q330.03125 343.96564 329.5 344.5594Q328.98438 345.1375 328.98438 346.34064ZM335.28125 349.45L335.28125 343.23126L336.23438 343.23126L336.23438 344.16876Q336.59375 343.5125 336.89062 343.3094Q337.20312 343.09064 337.57812 343.09064Q338.10938 343.09064 338.65625 343.41876L338.29688 344.40314Q337.90625 344.16876 337.53125 344.16876Q337.17188 344.16876 336.89062 344.3875Q336.625 344.59064 336.51562 344.96564Q336.32812 345.52814 336.32812 346.1844L336.32812 349.45L335.28125 349.45ZM343.54688 347.45L344.64062 347.575Q344.39062 348.52814 343.6875 349.0594Q342.98438 349.59064 341.90625 349.59064Q340.54688 349.59064 339.73438 348.7469Q338.9375 347.90314 338.9375 346.3875Q338.9375 344.825 339.75 343.96564Q340.5625 343.09064 341.84375 343.09064Q343.09375 343.09064 343.875 343.9344Q344.67188 344.77814 344.67188 346.325Q344.67188 346.41876 344.67188 346.60626L340.03125 346.60626Q340.09375 347.6375 340.60938 348.1844Q341.125 348.71564 341.90625 348.71564Q342.48438 348.71564 342.89062 348.41876Q343.3125 348.10626 343.54688 347.45ZM340.09375 345.7469L343.5625 345.7469Q343.5 344.95 343.17188 344.5594Q342.65625 343.95 341.85938 343.95Q341.125 343.95 340.625 344.4344Q340.14062 344.91876 340.09375 345.7469Z" fill-rule="nonzero"/><path fill="#000000" d="M29.550013 198.07396L21.971888 198.07396L21.971888 200.90208L20.956263 200.90208L20.956263 194.08958L21.971888 194.08958L21.971888 196.93333L29.550013 196.93333L29.550013 198.07396ZM26.440638 193.77708Q24.706263 193.77708 23.878138 192.82396Q23.190638 192.02708 23.190638 190.87083Q23.190638 189.58958 24.034388 188.77708Q24.862513 187.94896 26.346888 187.94896Q27.550013 187.94896 28.237513 188.30833Q28.925013 188.66771 29.315638 189.37083Q29.690638 190.05833 29.690638 190.87083Q29.690638 192.16771 28.862513 192.98021Q28.018763 193.77708 26.440638 193.77708ZM26.440638 192.69896Q27.628138 192.69896 28.221888 192.18333Q28.815638 191.65208 28.815638 190.87083Q28.815638 190.07396 28.221888 189.55833Q27.628138 189.04271 26.409388 189.04271Q25.253138 189.04271 24.659388 189.57396Q24.065638 190.08958 24.065638 190.87083Q24.065638 191.65208 24.659388 192.18333Q25.237513 192.69896 26.440638 192.69896ZM28.612513 184.08958L29.534388 183.93333Q29.628138 184.38646 29.628138 184.73021Q29.628138 185.30833 29.456263 185.62083Q29.268763 185.93333 28.971888 186.07396Q28.675013 186.19896 27.721888 186.19896L24.143763 186.19896L24.143763 186.96458L23.331263 186.96458L23.331263 186.19896L21.784388 186.19896L21.159388 185.15208L23.331263 185.15208L23.331263 184.08958L24.143763 184.08958L24.143763 185.15208L27.784388 185.15208Q28.237513 185.15208 28.362513 185.10521Q28.487513 185.04271 28.565638 184.91771Q28.643763 184.79271 28.643763 184.55833Q28.643763 184.37083 28.612513 184.08958ZM28.784388 179.32396Q29.284388 179.91771 29.487513 180.46458Q29.690638 180.99583 29.690638 181.62083Q29.690638 182.65208 29.190638 183.19896Q28.690638 183.74583 27.909388 183.74583Q27.456263 183.74583 27.081263 183.54271Q26.690638 183.33958 26.471888 182.99583Q26.237513 182.65208 26.128138 182.23021Q26.034388 181.93333 25.956263 181.29271Q25.815638 180.02708 25.596888 179.41771Q25.378138 179.41771 25.331263 179.41771Q24.675013 179.41771 24.409388 179.71458Q24.065638 180.12083 24.065638 180.91771Q24.065638 181.65208 24.331263 182.01146Q24.581263 182.37083 25.237513 182.54271L25.096888 183.57396Q24.440638 183.43333 24.034388 183.10521Q23.628138 182.77708 23.409388 182.16771Q23.190638 181.55833 23.190638 180.76146Q23.190638 179.96458 23.378138 179.46458Q23.565638 178.96458 23.846888 178.73021Q24.128138 178.49583 24.565638 178.40208Q24.831263 178.35521 25.534388 178.35521L26.940638 178.35521Q28.409388 178.35521 28.800013 178.29271Q29.190638 178.21458 29.550013 178.01146L29.550013 179.12083Q29.221888 179.27708 28.784388 179.32396ZM26.425013 179.41771Q26.659388 179.99583 26.831263 181.13646Q26.925013 181.79271 27.050013 182.05833Q27.159388 182.32396 27.378138 182.48021Q27.596888 182.62083 27.878138 182.62083Q28.300013 182.62083 28.581263 182.30833Q28.862513 181.98021 28.862513 181.37083Q28.862513 180.76146 28.596888 180.29271Q28.331263 179.80833 27.862513 179.58958Q27.503138 179.41771 26.815638 179.41771L26.425013 179.41771ZM29.550013 176.41771L20.956263 176.41771L20.956263 175.35521L29.550013 175.35521L29.550013 176.41771Z" fill-rule="nonzero"/><path fill="#000000" d="M65.05 300.21564Q65.05 298.6844 65.3625 297.7625Q65.675 296.825 66.28438 296.325Q66.90938 295.825 67.84688 295.825Q68.53438 295.825 69.05 296.10626Q69.58125 296.3875 69.925 296.91876Q70.26875 297.4344 70.45625 298.1844Q70.64375 298.9344 70.64375 300.21564Q70.64375 301.73126 70.33125 302.65314Q70.03438 303.575 69.40938 304.09064Q68.8 304.59064 67.84688 304.59064Q66.6125 304.59064 65.89375 303.7Q65.05 302.6375 65.05 300.21564ZM66.12813 300.21564Q66.12813 302.325 66.62813 303.02814Q67.12813 303.73126 67.84688 303.73126Q68.58125 303.73126 69.06563 303.02814Q69.56563 302.325 69.56563 300.21564Q69.56563 298.09064 69.06563 297.40314Q68.58125 296.7 67.83125 296.7Q67.1125 296.7 66.675 297.3094Q66.12813 298.09064 66.12813 300.21564Z" fill-rule="nonzero"/><path fill="#000000" d="M69.01875 244.81667L67.97188 244.81667L67.97188 238.09792Q67.58125 238.45729 66.95625 238.83229Q66.34688 239.19167 65.8625 239.36354L65.8625 238.34792Q66.7375 237.92604 67.39375 237.34792Q68.06563 236.75417 68.34688 236.19167L69.01875 236.19167L69.01875 244.81667Z" fill-rule="nonzero"/><path fill="#000000" d="M70.59688 184.16771L70.59688 185.18333L64.90938 185.18333Q64.90938 184.80833 65.03438 184.44896Q65.25313 183.87083 65.72188 183.30833Q66.20625 182.74583 67.1125 182.01146Q68.51875 180.85521 69.00313 180.18333Q69.50313 179.51146 69.50313 178.91771Q69.50313 178.29271 69.05 177.87083Q68.59688 177.43333 67.87813 177.43333Q67.1125 177.43333 66.65938 177.88646Q66.20625 178.33958 66.19063 179.15208L65.1125 179.04271Q65.22188 177.82396 65.94063 177.19896Q66.675 176.55833 67.90938 176.55833Q69.14375 176.55833 69.8625 177.24583Q70.58125 177.93333 70.58125 178.94896Q70.58125 179.46458 70.3625 179.96458Q70.15938 180.44896 69.65938 181.01146Q69.175 181.55833 68.05 182.51146Q67.09688 183.30833 66.81563 183.60521Q66.55 183.88646 66.37813 184.16771L70.59688 184.16771Z" fill-rule="nonzero"/><path fill="#000000" d="M65.05 123.28438L66.1125 123.14375Q66.28438 124.03438 66.72188 124.44063Q67.15938 124.83125 67.78438 124.83125Q68.53438 124.83125 69.05 124.31563Q69.56563 123.8 69.56563 123.03438Q69.56563 122.31563 69.08125 121.84688Q68.6125 121.3625 67.87813 121.3625Q67.58125 121.3625 67.12813 121.4875L67.25313 120.55Q67.3625 120.56563 67.425 120.56563Q68.09688 120.56563 68.62813 120.22188Q69.175 119.8625 69.175 119.12813Q69.175 118.55 68.78438 118.175Q68.39375 117.78438 67.76875 117.78438Q67.15938 117.78438 66.7375 118.175Q66.33125 118.56563 66.22188 119.33125L65.15938 119.14375Q65.34688 118.09688 66.03438 117.51875Q66.72188 116.925 67.7375 116.925Q68.44063 116.925 69.03438 117.2375Q69.62813 117.53438 69.94063 118.05Q70.25313 118.56563 70.25313 119.15938Q70.25313 119.70625 69.95625 120.175Q69.65938 120.62813 69.08125 120.89375Q69.83125 121.06563 70.25313 121.62813Q70.675 122.175 70.675 123.01875Q70.675 124.14375 69.84688 124.925Q69.03438 125.70625 67.78438 125.70625Q66.65938 125.70625 65.90938 125.03438Q65.15938 124.34688 65.05 123.28438Z" fill-rule="nonzero"/><path fill="#000000" d="M68.425 65.916664L68.425 63.854164L64.70625 63.854164L64.70625 62.885414L68.62813 57.322914L69.4875 57.322914L69.4875 62.885414L70.64375 62.885414L70.64375 63.854164L69.4875 63.854164L69.4875 65.916664L68.425 65.916664ZM68.425 62.885414L68.425 59.02604L65.7375 62.885414L68.425 62.885414Z" fill-rule="nonzero"/><path fill="#000000" d="M142.09492 317.45L141.04805 317.45L141.04805 310.73126Q140.65742 311.09064 140.03242 311.46564Q139.42305 311.825 138.93867 311.9969L138.93867 310.98126Q139.81367 310.5594 140.46992 309.98126Q141.1418 309.3875 141.42305 308.825L142.09492 308.825L142.09492 317.45Z" fill-rule="nonzero"/><path fill="#000000" d="M237.85995 316.4344L237.85995 317.45L232.17245 317.45Q232.17245 317.075 232.29745 316.71564Q232.5162 316.1375 232.98495 315.575Q233.46933 315.0125 234.37558 314.27814Q235.78183 313.1219 236.2662 312.45Q236.7662 311.77814 236.7662 311.1844Q236.7662 310.5594 236.31308 310.1375Q235.85995 309.7 235.1412 309.7Q234.37558 309.7 233.92245 310.15314Q233.46933 310.60626 233.4537 311.41876L232.37558 311.3094Q232.48495 310.09064 233.2037 309.46564Q233.93808 308.825 235.17245 308.825Q236.40683 308.825 237.12558 309.5125Q237.84433 310.2 237.84433 311.21564Q237.84433 311.73126 237.62558 312.23126Q237.42245 312.71564 236.92245 313.27814Q236.43808 313.825 235.31308 314.77814Q234.35995 315.575 234.0787 315.8719Q233.81308 316.15314 233.6412 316.4344L237.85995 316.4344Z" fill-rule="nonzero"/><path fill="#000000" d="M326.5 315.1844L327.5625 315.04376Q327.73438 315.9344 328.17188 316.34064Q328.60938 316.73126 329.23438 316.73126Q329.98438 316.73126 330.5 316.21564Q331.01562 315.7 331.01562 314.9344Q331.01562 314.21564 330.53125 313.7469Q330.0625 313.2625 329.32812 313.2625Q329.03125 313.2625 328.57812 313.3875L328.70312 312.45Q328.8125 312.46564 328.875 312.46564Q329.54688 312.46564 330.07812 312.1219Q330.625 311.7625 330.625 311.02814Q330.625 310.45 330.23438 310.075Q329.84375 309.6844 329.21875 309.6844Q328.60938 309.6844 328.1875 310.075Q327.78125 310.46564 327.67188 311.23126L326.60938 311.04376Q326.79688 309.9969 327.48438 309.41876Q328.17188 308.825 329.1875 308.825Q329.89062 308.825 330.48438 309.1375Q331.07812 309.4344 331.39062 309.95Q331.70312 310.46564 331.70312 311.0594Q331.70312 311.60626 331.40625 312.075Q331.10938 312.52814 330.53125 312.79376Q331.28125 312.96564 331.70312 313.52814Q332.125 314.075 332.125 314.91876Q332.125 316.04376 331.29688 316.825Q330.48438 317.60626 329.23438 317.60626Q328.10938 317.60626 327.35938 316.9344Q326.60938 316.2469 326.5 315.1844Z" fill-rule="nonzero"/><path fill="#000000" d="M424.06192 317.45L424.06192 315.3875L420.34317 315.3875L420.34317 314.41876L424.26505 308.85626L425.12442 308.85626L425.12442 314.41876L426.28067 314.41876L426.28067 315.3875L425.12442 315.3875L425.12442 317.45L424.06192 317.45ZM424.06192 314.41876L424.06192 310.5594L421.37442 314.41876L424.06192 314.41876Z" fill-rule="nonzero"/><path fill="#000000" d="M514.87384 315.2L515.9832 315.10626Q516.1082 315.91876 516.5457 316.325Q516.99884 316.73126 517.63947 316.73126Q518.38947 316.73126 518.9207 316.15314Q519.45197 315.575 519.45197 314.6375Q519.45197 313.73126 518.93634 313.21564Q518.43634 312.6844 517.6082 312.6844Q517.1082 312.6844 516.68634 312.91876Q516.2801 313.15314 516.0457 313.5125L515.06134 313.3875L515.88947 308.98126L520.1707 308.98126L520.1707 309.98126L516.7332 309.98126L516.2801 312.29376Q517.0457 311.7469 517.88947 311.7469Q519.01447 311.7469 519.7801 312.52814Q520.56134 313.3094 520.56134 314.54376Q520.56134 315.7 519.88947 316.5594Q519.06134 317.59064 517.63947 317.59064Q516.4676 317.59064 515.7176 316.9344Q514.9832 316.27814 514.87384 315.2Z" fill-rule="nonzero"/><path fill="#757575" d="M23.7375 37.55L23.7375 24.925L19.01875 24.925L19.01875 23.2375L30.3625 23.2375L30.3625 24.925L25.628124 24.925L25.628124 37.55L23.7375 37.55ZM31.8625 37.55L31.8625 23.2375L33.628124 23.2375L33.628124 28.3625Q34.8625 26.940624 36.7375 26.940624Q37.878124 26.940624 38.721874 27.39375Q39.58125 27.846874 39.940624 28.659374Q40.315624 29.45625 40.315624 30.971874L40.315624 37.55L38.565624 37.55L38.565624 30.971874Q38.565624 29.659374 37.9875 29.065624Q37.409374 28.45625 36.378124 28.45625Q35.596874 28.45625 34.89375 28.8625Q34.20625 29.26875 33.909374 29.971874Q33.628124 30.659374 33.628124 31.878124L33.628124 37.55L31.8625 37.55ZM49.971874 34.20625L51.784374 34.440624Q51.3625 36.01875 50.190624 36.909374Q49.034374 37.784374 47.221874 37.784374Q44.95625 37.784374 43.6125 36.39375Q42.284374 34.9875 42.284374 32.45625Q42.284374 29.83125 43.628124 28.39375Q44.971874 26.940624 47.128124 26.940624Q49.20625 26.940624 50.51875 28.3625Q51.846874 29.76875 51.846874 32.346874Q51.846874 32.503124 51.83125 32.815624L44.096874 32.815624Q44.190624 34.51875 45.065624 35.425Q45.940624 36.33125 47.2375 36.33125Q48.20625 36.33125 48.878124 35.83125Q49.565624 35.315624 49.971874 34.20625ZM44.190624 31.3625L49.9875 31.3625Q49.878124 30.065624 49.33125 29.409374Q48.4875 28.39375 47.14375 28.39375Q45.940624 28.39375 45.1125 29.20625Q44.284374 30.003124 44.190624 31.3625ZM59.878124 25.253124L59.878124 23.2375L61.64375 23.2375L61.64375 25.253124L59.878124 25.253124ZM59.878124 37.55L59.878124 27.175L61.64375 27.175L61.64375 37.55L59.878124 37.55ZM63.8625 37.55L63.8625 27.175L65.45625 27.175L65.45625 28.659374Q66.59688 26.940624 68.75313 26.940624Q69.69063 26.940624 70.47188 27.284374Q71.26875 27.6125 71.65938 28.159374Q72.05 28.70625 72.20625 29.45625Q72.3 29.95625 72.3 31.175L72.3 37.55L70.53438 37.55L70.53438 31.2375Q70.53438 30.159374 70.33125 29.628124Q70.12813 29.096874 69.59688 28.784374Q69.08125 28.471874 68.37813 28.471874Q67.25313 28.471874 66.44063 29.190624Q65.62813 29.89375 65.62813 31.878124L65.62813 37.55L63.8625 37.55ZM78.70625 35.971874L78.95625 37.534374Q78.22188 37.690624 77.62813 37.690624Q76.675 37.690624 76.14375 37.39375Q75.62813 37.08125 75.40938 36.596874Q75.19063 36.096874 75.19063 34.51875L75.19063 28.55L73.90938 28.55L73.90938 27.175L75.19063 27.175L75.19063 24.6125L76.94063 23.55L76.94063 27.175L78.70625 27.175L78.70625 28.55L76.94063 28.55L76.94063 34.6125Q76.94063 35.3625 77.03438 35.58125Q77.12813 35.784374 77.33125 35.925Q77.55 36.05 77.94063 36.05Q78.22188 36.05 78.70625 35.971874ZM87.97188 34.20625L89.78438 34.440624Q89.3625 36.01875 88.19063 36.909374Q87.03438 37.784374 85.22188 37.784374Q82.95625 37.784374 81.6125 36.39375Q80.28438 34.9875 80.28438 32.45625Q80.28438 29.83125 81.62813 28.39375Q82.97188 26.940624 85.12813 26.940624Q87.20625 26.940624 88.51875 28.3625Q89.84688 29.76875 89.84688 32.346874Q89.84688 32.503124 89.83125 32.815624L82.09688 32.815624Q82.19063 34.51875 83.06563 35.425Q83.94063 36.33125 85.2375 36.33125Q86.20625 36.33125 86.87813 35.83125Q87.56563 35.315624 87.97188 34.20625ZM82.19063 31.3625L87.9875 31.3625Q87.87813 30.065624 87.33125 29.409374Q86.4875 28.39375 85.14375 28.39375Q83.94063 28.39375 83.1125 29.20625Q82.28438 30.003124 82.19063 31.3625ZM91.84688 37.55L91.84688 27.175L93.425 27.175L93.425 28.753124Q94.03438 27.64375 94.55 27.3Q95.06563 26.940624 95.675 26.940624Q96.56563 26.940624 97.4875 27.503124L96.87813 29.14375Q96.2375 28.753124 95.59688 28.753124Q95.01875 28.753124 94.55 29.1125Q94.09688 29.45625 93.89375 30.065624Q93.6125 31.003124 93.6125 32.1125L93.6125 37.55L91.84688 37.55ZM99.28438 37.55L99.28438 28.55L97.7375 28.55L97.7375 27.175L99.28438 27.175L99.28438 26.08125Q99.28438 25.034374 99.47188 24.51875Q99.72188 23.83125 100.3625 23.409374Q101.00313 22.9875 102.15938 22.9875Q102.90938 22.9875 103.8 23.159374L103.53438 24.690624Q102.9875 24.596874 102.50313 24.596874Q101.70625 24.596874 101.3625 24.940624Q101.03438 25.284374 101.03438 26.221874L101.03438 27.175L103.06563 27.175L103.06563 28.55L101.03438 28.55L101.03438 37.55L99.28438 37.55ZM111.64375 36.26875Q110.65938 37.096874 109.75313 37.440624Q108.84688 37.784374 107.81563 37.784374Q106.1125 37.784374 105.19063 36.95625Q104.26875 36.1125 104.26875 34.815624Q104.26875 34.05 104.6125 33.425Q104.97188 32.8 105.53438 32.425Q106.09688 32.034374 106.8 31.83125Q107.31563 31.70625 108.3625 31.565624Q110.4875 31.315624 111.4875 30.971874Q111.50313 30.6125 111.50313 30.503124Q111.50313 29.440624 111.00313 28.9875Q110.33125 28.39375 109.00313 28.39375Q107.75313 28.39375 107.15938 28.83125Q106.58125 29.26875 106.3 30.378124L104.58125 30.14375Q104.81563 29.034374 105.34688 28.3625Q105.87813 27.675 106.89375 27.315624Q107.90938 26.940624 109.25313 26.940624Q110.58125 26.940624 111.40938 27.253124Q112.2375 27.565624 112.62813 28.05Q113.01875 28.51875 113.175 29.2375Q113.26875 29.690624 113.26875 30.8625L113.26875 33.20625Q113.26875 35.659374 113.37813 36.315624Q113.4875 36.95625 113.83125 37.55L111.9875 37.55Q111.72188 37.003124 111.64375 36.26875ZM111.4875 32.346874Q110.53438 32.7375 108.6125 33.003124Q107.53438 33.159374 107.08125 33.3625Q106.64375 33.55 106.39375 33.925Q106.14375 34.3 106.14375 34.76875Q106.14375 35.471874 106.675 35.940624Q107.20625 36.409374 108.2375 36.409374Q109.25313 36.409374 110.03438 35.971874Q110.83125 35.51875 111.20625 34.753124Q111.4875 34.14375 111.4875 32.9875L111.4875 32.346874ZM122.64375 33.753124L124.3625 33.971874Q124.08125 35.76875 122.90938 36.784374Q121.75313 37.784374 120.05 37.784374Q117.925 37.784374 116.62813 36.39375Q115.33125 35.003124 115.33125 32.409374Q115.33125 30.721874 115.87813 29.471874Q116.44063 28.20625 117.58125 27.58125Q118.72188 26.940624 120.06563 26.940624Q121.75313 26.940624 122.81563 27.8Q123.89375 28.659374 124.20625 30.221874L122.4875 30.4875Q122.25313 29.440624 121.62813 28.925Q121.00313 28.39375 120.12813 28.39375Q118.8 28.39375 117.97188 29.346874Q117.14375 30.3 117.14375 32.346874Q117.14375 34.440624 117.94063 35.39375Q118.7375 36.33125 120.03438 36.33125Q121.06563 36.33125 121.75313 35.70625Q122.45625 35.065624 122.64375 33.753124ZM132.97188 34.20625L134.78438 34.440624Q134.3625 36.01875 133.19063 36.909374Q132.03438 37.784374 130.22188 37.784374Q127.95625 37.784374 126.6125 36.39375Q125.28438 34.9875 125.28438 32.45625Q125.28438 29.83125 126.62813 28.39375Q127.97188 26.940624 130.12813 26.940624Q132.20625 26.940624 133.51875 28.3625Q134.84688 29.76875 134.84688 32.346874Q134.84688 32.503124 134.83125 32.815624L127.09688 32.815624Q127.19063 34.51875 128.06563 35.425Q128.94063 36.33125 130.2375 36.33125Q131.20625 36.33125 131.87813 35.83125Q132.56563 35.315624 132.97188 34.20625ZM127.19063 31.3625L132.9875 31.3625Q132.87813 30.065624 132.33125 29.409374Q131.4875 28.39375 130.14375 28.39375Q128.94063 28.39375 128.1125 29.20625Q127.28438 30.003124 127.19063 31.3625ZM142.87813 25.253124L142.87813 23.2375L144.64375 23.2375L144.64375 25.253124L142.87813 25.253124ZM142.87813 37.55L142.87813 27.175L144.64375 27.175L144.64375 37.55L142.87813 37.55ZM146.15938 34.45625L147.90938 34.175Q148.05 35.221874 148.72188 35.784374Q149.39375 36.33125 150.59688 36.33125Q151.8 36.33125 152.37813 35.846874Q152.97188 35.346874 152.97188 34.690624Q152.97188 34.096874 152.45625 33.753124Q152.09688 33.51875 150.65938 33.159374Q148.72188 32.659374 147.97188 32.315624Q147.2375 31.95625 146.84688 31.33125Q146.45625 30.690624 146.45625 29.925Q146.45625 29.2375 146.76875 28.64375Q147.09688 28.05 147.64375 27.659374Q148.05 27.3625 148.75313 27.159374Q149.47188 26.940624 150.28438 26.940624Q151.50313 26.940624 152.425 27.3Q153.34688 27.64375 153.78438 28.253124Q154.22188 28.846874 154.39375 29.846874L152.675 30.08125Q152.55 29.284374 151.9875 28.846874Q151.425 28.39375 150.40938 28.39375Q149.19063 28.39375 148.675 28.8Q148.15938 29.190624 148.15938 29.721874Q148.15938 30.065624 148.37813 30.346874Q148.58125 30.628124 149.05 30.815624Q149.31563 30.909374 150.59688 31.253124Q152.47188 31.753124 153.20625 32.08125Q153.94063 32.39375 154.3625 33.003124Q154.78438 33.596874 154.78438 34.503124Q154.78438 35.378124 154.26875 36.159374Q153.75313 36.940624 152.78438 37.3625Q151.81563 37.784374 150.59688 37.784374Q148.58125 37.784374 147.51875 36.940624Q146.45625 36.096874 146.15938 34.45625ZM169.97188 34.20625L171.78438 34.440624Q171.3625 36.01875 170.19063 36.909374Q169.03438 37.784374 167.22188 37.784374Q164.95625 37.784374 163.6125 36.39375Q162.28438 34.9875 162.28438 32.45625Q162.28438 29.83125 163.62813 28.39375Q164.97188 26.940624 167.12813 26.940624Q169.20625 26.940624 170.51875 28.3625Q171.84688 29.76875 171.84688 32.346874Q171.84688 32.503124 171.83125 32.815624L164.09688 32.815624Q164.19063 34.51875 165.06563 35.425Q165.94063 36.33125 167.2375 36.33125Q168.20625 36.33125 168.87813 35.83125Q169.56563 35.315624 169.97188 34.20625ZM164.19063 31.3625L169.9875 31.3625Q169.87813 30.065624 169.33125 29.409374Q168.4875 28.39375 167.14375 28.39375Q165.94063 28.39375 165.1125 29.20625Q164.28438 30.003124 164.19063 31.3625ZM180.64375 36.26875Q179.65938 37.096874 178.75313 37.440624Q177.84688 37.784374 176.81563 37.784374Q175.1125 37.784374 174.19063 36.95625Q173.26875 36.1125 173.26875 34.815624Q173.26875 34.05 173.6125 33.425Q173.97188 32.8 174.53438 32.425Q175.09688 32.034374 175.8 31.83125Q176.31563 31.70625 177.3625 31.565624Q179.4875 31.315624 180.4875 30.971874Q180.50313 30.6125 180.50313 30.503124Q180.50313 29.440624 180.00313 28.9875Q179.33125 28.39375 178.00313 28.39375Q176.75313 28.39375 176.15938 28.83125Q175.58125 29.26875 175.3 30.378124L173.58125 30.14375Q173.81563 29.034374 174.34688 28.3625Q174.87813 27.675 175.89375 27.315624Q176.90938 26.940624 178.25313 26.940624Q179.58125 26.940624 180.40938 27.253124Q181.2375 27.565624 181.62813 28.05Q182.01875 28.51875 182.175 29.2375Q182.26875 29.690624 182.26875 30.8625L182.26875 33.20625Q182.26875 35.659374 182.37813 36.315624Q182.4875 36.95625 182.83125 37.55L180.9875 37.55Q180.72188 37.003124 180.64375 36.26875ZM180.4875 32.346874Q179.53438 32.7375 177.6125 33.003124Q176.53438 33.159374 176.08125 33.3625Q175.64375 33.55 175.39375 33.925Q175.14375 34.3 175.14375 34.76875Q175.14375 35.471874 175.675 35.940624Q176.20625 36.409374 177.2375 36.409374Q178.25313 36.409374 179.03438 35.971874Q179.83125 35.51875 180.20625 34.753124Q180.4875 34.14375 180.4875 32.9875L180.4875 32.346874ZM184.15938 34.45625L185.90938 34.175Q186.05 35.221874 186.72188 35.784374Q187.39375 36.33125 188.59688 36.33125Q189.8 36.33125 190.37813 35.846874Q190.97188 35.346874 190.97188 34.690624Q190.97188 34.096874 190.45625 33.753124Q190.09688 33.51875 188.65938 33.159374Q186.72188 32.659374 185.97188 32.315624Q185.2375 31.95625 184.84688 31.33125Q184.45625 30.690624 184.45625 29.925Q184.45625 29.2375 184.76875 28.64375Q185.09688 28.05 185.64375 27.659374Q186.05 27.3625 186.75313 27.159374Q187.47188 26.940624 188.28438 26.940624Q189.50313 26.940624 190.425 27.3Q191.34688 27.64375 191.78438 28.253124Q192.22188 28.846874 192.39375 29.846874L190.675 30.08125Q190.55 29.284374 189.9875 28.846874Q189.425 28.39375 188.40938 28.39375Q187.19063 28.39375 186.675 28.8Q186.15938 29.190624 186.15938 29.721874Q186.15938 30.065624 186.37813 30.346874Q186.58125 30.628124 187.05 30.815624Q187.31563 30.909374 188.59688 31.253124Q190.47188 31.753124 191.20625 32.08125Q191.94063 32.39375 192.3625 33.003124Q192.78438 33.596874 192.78438 34.503124Q192.78438 35.378124 192.26875 36.159374Q191.75313 36.940624 190.78438 37.3625Q189.81563 37.784374 188.59688 37.784374Q186.58125 37.784374 185.51875 36.940624Q184.45625 36.096874 184.15938 34.45625ZM194.78438 41.55L194.59688 39.89375Q195.175 40.05 195.59688 40.05Q196.19063 40.05 196.53438 39.846874Q196.89375 39.659374 197.1125 39.315624Q197.28438 39.05 197.65938 38.003124Q197.70625 37.846874 197.81563 37.565624L193.87813 27.175L195.76875 27.175L197.925 33.190624Q198.34688 34.33125 198.675 35.58125Q198.9875 34.378124 199.39375 33.221874L201.6125 27.175L203.37813 27.175L199.425 37.721874Q198.8 39.440624 198.44063 40.08125Q197.97188 40.95625 197.3625 41.346874Q196.76875 41.753124 195.925 41.753124Q195.40938 41.753124 194.78438 41.55ZM203.55 37.8L207.70625 22.9875L209.1125 22.9875L204.97188 37.8L203.55 37.8ZM210.8625 37.55L210.8625 23.2375L212.62813 23.2375L212.62813 28.3625Q213.8625 26.940624 215.7375 26.940624Q216.87813 26.940624 217.72188 27.39375Q218.58125 27.846874 218.94063 28.659374Q219.31563 29.45625 219.31563 30.971874L219.31563 37.55L217.56563 37.55L217.56563 30.971874Q217.56563 29.659374 216.9875 29.065624Q216.40938 28.45625 215.37813 28.45625Q214.59688 28.45625 213.89375 28.8625Q213.20625 29.26875 212.90938 29.971874Q212.62813 30.659374 212.62813 31.878124L212.62813 37.55L210.8625 37.55ZM228.64375 36.26875Q227.65938 37.096874 226.75313 37.440624Q225.84688 37.784374 224.81563 37.784374Q223.1125 37.784374 222.19063 36.95625Q221.26875 36.1125 221.26875 34.815624Q221.26875 34.05 221.6125 33.425Q221.97188 32.8 222.53438 32.425Q223.09688 32.034374 223.8 31.83125Q224.31563 31.70625 225.3625 31.565624Q227.4875 31.315624 228.4875 30.971874Q228.50313 30.6125 228.50313 30.503124Q228.50313 29.440624 228.00313 28.9875Q227.33125 28.39375 226.00313 28.39375Q224.75313 28.39375 224.15938 28.83125Q223.58125 29.26875 223.3 30.378124L221.58125 30.14375Q221.81563 29.034374 222.34688 28.3625Q222.87813 27.675 223.89375 27.315624Q224.90938 26.940624 226.25313 26.940624Q227.58125 26.940624 228.40938 27.253124Q229.2375 27.565624 229.62813 28.05Q230.01875 28.51875 230.175 29.2375Q230.26875 29.690624 230.26875 30.8625L230.26875 33.20625Q230.26875 35.659374 230.37813 36.315624Q230.4875 36.95625 230.83125 37.55L228.9875 37.55Q228.72188 37.003124 228.64375 36.26875ZM228.4875 32.346874Q227.53438 32.7375 225.6125 33.003124Q224.53438 33.159374 224.08125 33.3625Q223.64375 33.55 223.39375 33.925Q223.14375 34.3 223.14375 34.76875Q223.14375 35.471874 223.675 35.940624Q224.20625 36.409374 225.2375 36.409374Q226.25313 36.409374 227.03438 35.971874Q227.83125 35.51875 228.20625 34.753124Q228.4875 34.14375 228.4875 32.9875L228.4875 32.346874ZM232.84688 37.55L232.84688 27.175L234.425 27.175L234.425 28.753124Q235.03438 27.64375 235.55 27.3Q236.06563 26.940624 236.675 26.940624Q237.56563 26.940624 238.4875 27.503124L237.87813 29.14375Q237.2375 28.753124 236.59688 28.753124Q236.01875 28.753124 235.55 29.1125Q235.09688 29.45625 234.89375 30.065624Q234.6125 31.003124 234.6125 32.1125L234.6125 37.55L232.84688 37.55ZM246.59688 37.55L246.59688 36.2375Q245.6125 37.784374 243.69063 37.784374Q242.45625 37.784374 241.40938 37.096874Q240.37813 36.409374 239.8 35.190624Q239.2375 33.971874 239.2375 32.378124Q239.2375 30.815624 239.75313 29.55Q240.26875 28.284374 241.3 27.6125Q242.34688 26.940624 243.6125 26.940624Q244.55 26.940624 245.28438 27.346874Q246.01875 27.7375 246.4875 28.3625L246.4875 23.2375L248.22188 23.2375L248.22188 37.55L246.59688 37.55ZM241.03438 32.378124Q241.03438 34.3625 241.87813 35.346874Q242.72188 36.33125 243.8625 36.33125Q245.01875 36.33125 245.81563 35.39375Q246.62813 34.45625 246.62813 32.51875Q246.62813 30.39375 245.8 29.39375Q244.9875 28.39375 243.78438 28.39375Q242.6125 28.39375 241.81563 29.3625Q241.03438 30.315624 241.03438 32.378124ZM260.70624 35.971874L260.95624 37.534374Q260.22186 37.690624 259.6281 37.690624Q258.675 37.690624 258.14374 37.39375Q257.6281 37.08125 257.40936 36.596874Q257.1906 36.096874 257.1906 34.51875L257.1906 28.55L255.90938 28.55L255.90938 27.175L257.1906 27.175L257.1906 24.6125L258.9406 23.55L258.9406 27.175L260.70624 27.175L260.70624 28.55L258.9406 28.55L258.9406 34.6125Q258.9406 35.3625 259.03436 35.58125Q259.1281 35.784374 259.33124 35.925Q259.55 36.05 259.9406 36.05Q260.22186 36.05 260.70624 35.971874ZM262.22186 32.3625Q262.22186 29.4875 263.8156 28.096874Q265.15936 26.940624 267.08124 26.940624Q269.22186 26.940624 270.5656 28.346874Q271.925 29.753124 271.925 32.221874Q271.925 34.221874 271.33124 35.378124Q270.7375 36.51875 269.58124 37.159374Q268.4406 37.784374 267.08124 37.784374Q264.89374 37.784374 263.55 36.39375Q262.22186 34.9875 262.22186 32.3625ZM264.01874 32.3625Q264.01874 34.3625 264.8781 35.346874Q265.7531 36.33125 267.08124 36.33125Q268.39374 36.33125 269.2531 35.346874Q270.1281 34.346874 270.1281 32.3Q270.1281 30.378124 269.2531 29.39375Q268.3781 28.39375 267.08124 28.39375Q265.7531 28.39375 264.8781 29.39375Q264.01874 30.378124 264.01874 32.3625ZM286.65936 37.55L286.65936 36.01875Q285.45624 37.784374 283.3781 37.784374Q282.45624 37.784374 281.65936 37.440624Q280.8625 37.08125 280.47186 36.55Q280.09686 36.01875 279.9406 35.2375Q279.83124 34.721874 279.83124 33.596874L279.83124 27.175L281.58124 27.175L281.58124 32.925Q281.58124 34.3 281.6906 34.784374Q281.8625 35.471874 282.39374 35.878124Q282.9406 36.26875 283.72186 36.26875Q284.51874 36.26875 285.20624 35.8625Q285.90936 35.45625 286.1906 34.76875Q286.4875 34.065624 286.4875 32.7375L286.4875 27.175L288.2375 27.175L288.2375 37.55L286.65936 37.55ZM290.15936 34.45625L291.90936 34.175Q292.05 35.221874 292.72186 35.784374Q293.39374 36.33125 294.59686 36.33125Q295.8 36.33125 296.3781 35.846874Q296.97186 35.346874 296.97186 34.690624Q296.97186 34.096874 296.45624 33.753124Q296.09686 33.51875 294.65936 33.159374Q292.72186 32.659374 291.97186 32.315624Q291.2375 31.95625 290.84686 31.33125Q290.45624 30.690624 290.45624 29.925Q290.45624 29.2375 290.76874 28.64375Q291.09686 28.05 291.64374 27.659374Q292.05 27.3625 292.7531 27.159374Q293.47186 26.940624 294.28436 26.940624Q295.5031 26.940624 296.425 27.3Q297.34686 27.64375 297.78436 28.253124Q298.22186 28.846874 298.39374 29.846874L296.675 30.08125Q296.55 29.284374 295.9875 28.846874Q295.425 28.39375 294.40936 28.39375Q293.1906 28.39375 292.675 28.8Q292.15936 29.190624 292.15936 29.721874Q292.15936 30.065624 292.3781 30.346874Q292.58124 30.628124 293.05 30.815624Q293.3156 30.909374 294.59686 31.253124Q296.47186 31.753124 297.20624 32.08125Q297.9406 32.39375 298.3625 33.003124Q298.78436 33.596874 298.78436 34.503124Q298.78436 35.378124 298.26874 36.159374Q297.7531 36.940624 296.78436 37.3625Q295.8156 37.784374 294.59686 37.784374Q292.58124 37.784374 291.51874 36.940624Q290.45624 36.096874 290.15936 34.45625ZM307.97186 34.20625L309.78436 34.440624Q309.3625 36.01875 308.1906 36.909374Q307.03436 37.784374 305.22186 37.784374Q302.95624 37.784374 301.6125 36.39375Q300.28436 34.9875 300.28436 32.45625Q300.28436 29.83125 301.6281 28.39375Q302.97186 26.940624 305.1281 26.940624Q307.20624 26.940624 308.51874 28.3625Q309.84686 29.76875 309.84686 32.346874Q309.84686 32.503124 309.83124 32.815624L302.09686 32.815624Q302.1906 34.51875 303.0656 35.425Q303.9406 36.33125 305.2375 36.33125Q306.20624 36.33125 306.8781 35.83125Q307.5656 35.315624 307.97186 34.20625ZM302.1906 31.3625L307.9875 31.3625Q307.8781 30.065624 307.33124 29.409374Q306.4875 28.39375 305.14374 28.39375Q303.9406 28.39375 303.1125 29.20625Q302.28436 30.003124 302.1906 31.3625ZM312.3625 37.55L312.3625 35.55L314.3625 35.55L314.3625 37.55L312.3625 37.55Z" fill-rule="nonzero"/></svg>