<svg version="1.1" viewBox="0.0 0.0 600.0 371.0" fill="none" stroke="none" stroke-linecap="square" stroke-miterlimit="10" width="600" height="371" xmlns:xlink="http://www.w3.org/1999/xlink" xmlns="http://www.w3.org/2000/svg"><path fill="#ffffff" d="M0 0L600.0 0L600.0 371.0L0 371.0L0 0Z" fill-rule="nonzero"/><path stroke="#333333" stroke-width="1.0" stroke-linecap="butt" d="M77.5 300.5L581.5 300.5" fill-rule="nonzero"/><path stroke="#cccccc" stroke-width="1.0" stroke-linecap="butt" d="M77.5 240.5L581.5 240.5" fill-rule="nonzero"/><path stroke="#cccccc" stroke-width="1.0" stroke-linecap="butt" d="M77.5 181.5L581.5 181.5" fill-rule="nonzero"/><path stroke="#cccccc" stroke-width="1.0" stroke-linecap="butt" d="M77.5 121.5L581.5 121.5" fill-rule="nonzero"/><path stroke="#cccccc" stroke-width="1.0" stroke-linecap="butt" d="M77.5 61.5L581.5 61.5" fill-rule="nonzero"/><clipPath id="id_0"><path d="M77.55 61.916668L581.45 61.916668L581.45 300.45L77.55 300.45L77.55 61.916668Z" clip-rule="nonzero"/></clipPath><path stroke="#000000" stroke-width="2.0" stroke-linecap="butt" stroke-opacity="0.0" clip-path="url(#id_0)" d="M172.0 300.0L111.0 300.0L111.0 300.0L172.0 300.0Z" fill-rule="nonzero"/><path fill="#4285f4" clip-path="url(#id_0)" d="M172.0 300.0L111.0 300.0L111.0 300.0L172.0 300.0Z" fill-rule="nonzero"/><path stroke="#000000" stroke-width="2.0" stroke-linecap="butt" stroke-opacity="0.0" clip-path="url(#id_0)" d="M266.0 300.0L205.0 300.0L205.0 300.0L266.0 300.0Z" fill-rule="nonzero"/><path fill="#4285f4" clip-path="url(#id_0)" d="M266.0 300.0L205.0 300.0L205.0 300.0L266.0 300.0Z" fill-rule="nonzero"/><path stroke="#000000" stroke-width="2.0" stroke-linecap="butt" stroke-opacity="0.0" clip-path="url(#id_0)" d="M361.0 300.0L300.0 300.0L300.0 243.0C300.0 241.89543 300.89542 241.0 302.0 241.0L359.0 241.0C360.10458 241.0 361.0 241.89543 361.0 243.0Z" fill-rule="nonzero"/><path fill="#4285f4" clip-path="url(#id_0)" d="M361.0 300.0L300.0 300.0L300.0 243.0C300.0 241.89543 300.89542 241.0 302.0 241.0L359.0 241.0C360.10458 241.0 361.0 241.89543 361.0 243.0Z" fill-rule="nonzero"/><path stroke="#000000" stroke-width="2.0" stroke-linecap="butt" stroke-opacity="0.0" clip-path="url(#id_0)" d="M455.0 300.0L394.0 300.0L394.0 124.0C394.0 122.89543 394.89542 122.0 396.0 122.0L453.0 122.0C454.10458 122.0 455.0 122.89543 455.0 124.0Z" fill-rule="nonzero"/><path fill="#4285f4" clip-path="url(#id_0)" d="M455.0 300.0L394.0 300.0L394.0 124.0C394.0 122.89543 394.89542 122.0 396.0 122.0L453.0 122.0C454.10458 122.0 455.0 122.89543 455.0 124.0Z" fill-rule="nonzero"/><path stroke="#000000" stroke-width="2.0" stroke-linecap="butt" stroke-opacity="0.0" clip-path="url(#id_0)" d="M549.0 300.0L488.0 300.0L488.0 64.0C488.0 62.89543 488.89542 62.0 490.0 62.0L547.0 62.0C548.10455 62.0 549.0 62.89543 549.0 64.0Z" fill-rule="nonzero"/><path fill="#4285f4" clip-path="url(#id_0)" d="M549.0 300.0L488.0 300.0L488.0 64.0C488.0 62.89543 488.89542 62.0 490.0 62.0L547.0 62.0C548.10455 62.0 549.0 62.89543 549.0 64.0Z" fill-rule="nonzero"/><path fill="#000000" d="M314.04688 346.6844L315.10938 346.59064Q315.1875 347.2469 315.46875 347.65314Q315.75 348.0594 316.32812 348.325Q316.92188 348.575 317.65625 348.575Q318.29688 348.575 318.79688 348.3875Q319.29688 348.1844 319.53125 347.85626Q319.78125 347.5125 319.78125 347.1219Q319.78125 346.71564 319.54688 346.41876Q319.3125 346.10626 318.78125 345.90314Q318.42188 345.7625 317.23438 345.48126Q316.0625 345.2 315.59375 344.95Q314.96875 344.6219 314.67188 344.15314Q314.375 343.66876 314.375 343.075Q314.375 342.4344 314.73438 341.8719Q315.10938 341.29376 315.8125 341.0125Q316.53125 340.71564 317.39062 340.71564Q318.34375 340.71564 319.07812 341.02814Q319.8125 341.325 320.20312 341.9344Q320.59375 342.52814 320.625 343.27814L319.53125 343.35626Q319.4375 342.54376 318.92188 342.1375Q318.42188 341.71564 317.4375 341.71564Q316.40625 341.71564 315.9375 342.09064Q315.46875 342.46564 315.46875 342.9969Q315.46875 343.46564 315.79688 343.7625Q316.125 344.0594 317.5 344.3719Q318.89062 344.6844 319.40625 344.91876Q320.15625 345.27814 320.51562 345.8094Q320.875 346.325 320.875 347.02814Q320.875 347.71564 320.48438 348.325Q320.09375 348.91876 319.35938 349.2625Q318.625 349.59064 317.70312 349.59064Q316.53125 349.59064 315.73438 349.2625Q314.95312 348.91876 314.5 348.23126Q314.0625 347.54376 314.04688 346.6844ZM326.35938 347.16876L327.39062 347.3094Q327.21875 348.3719 326.51562 348.98126Q325.8125 349.59064 324.79688 349.59064Q323.51562 349.59064 322.73438 348.7625Q321.96875 347.91876 321.96875 346.35626Q321.96875 345.35626 322.29688 344.60626Q322.64062 343.84064 323.3125 343.46564Q324.0 343.09064 324.8125 343.09064Q325.8125 343.09064 326.45312 343.60626Q327.10938 344.10626 327.29688 345.0594L326.26562 345.21564Q326.125 344.59064 325.75 344.27814Q325.375 343.95 324.84375 343.95Q324.04688 343.95 323.54688 344.52814Q323.04688 345.09064 323.04688 346.325Q323.04688 347.59064 323.53125 348.15314Q324.01562 348.71564 324.78125 348.71564Q325.40625 348.71564 325.8125 348.34064Q326.23438 347.96564 326.35938 347.16876ZM327.90625 346.34064Q327.90625 344.60626 328.85938 343.77814Q329.65625 343.09064 330.8125 343.09064Q332.09375 343.09064 332.90625 343.9344Q333.73438 344.7625 333.73438 346.2469Q333.73438 347.45 333.375 348.1375Q333.01562 348.825 332.3125 349.21564Q331.625 349.59064 330.8125 349.59064Q329.51562 349.59064 328.70312 348.7625Q327.90625 347.91876 327.90625 346.34064ZM328.98438 346.34064Q328.98438 347.52814 329.5 348.1219Q330.03125 348.71564 330.8125 348.71564Q331.60938 348.71564 332.125 348.1219Q332.64062 347.52814 332.64062 346.3094Q332.64062 345.15314 332.10938 344.5594Q331.59375 343.96564 330.8125 343.96564Q330.03125 343.96564 329.5 344.5594Q328.98438 345.1375 328.98438 346.34064ZM335.28125 349.45L335.28125 343.23126L336.23438 343.23126L336.23438 344.16876Q336.59375 343.5125 336.89062 343.3094Q337.20312 343.09064 337.57812 343.09064Q338.10938 343.09064 338.65625 343.41876L338.29688 344.40314Q337.90625 344.16876 337.53125 344.16876Q337.17188 344.16876 336.89062 344.3875Q336.625 344.59064 336.51562 344.96564Q336.32812 345.52814 336.32812 346.1844L336.32812 349.45L335.28125 349.45ZM343.54688 347.45L344.64062 347.575Q344.39062 348.52814 343.6875 349.0594Q342.98438 349.59064 341.90625 349.59064Q340.54688 349.59064 339.73438 348.7469Q338.9375 347.90314 338.9375 346.3875Q338.9375 344.825 339.75 343.96564Q340.5625 343.09064 341.84375 343.09064Q343.09375 343.09064 343.875 343.9344Q344.67188 344.77814 344.67188 346.325Q344.67188 346.41876 344.67188 346.60626L340.03125 346.60626Q340.09375 347.6375 340.60938 348.1844Q341.125 348.71564 341.90625 348.71564Q342.48438 348.71564 342.89062 348.41876Q343.3125 348.10626 343.54688 347.45ZM340.09375 345.7469L343.5625 345.7469Q343.5 344.95 343.17188 344.5594Q342.65625 343.95 341.85938 343.95Q341.125 343.95 340.625 344.4344Q340.14062 344.91876 340.09375 345.7469Z" fill-rule="nonzero"/><path fill="#000000" d="M29.550013 198.07396L21.971888 198.07396L21.971888 200.90208L20.956263 200.90208L20.956263 194.08958L21.971888 194.08958L21.971888 196.93333L29.550013 196.93333L29.550013 198.07396ZM26.440638 193.77708Q24.706263 193.77708 23.878138 192.82396Q23.190638 192.02708 23.190638 190.87083Q23.190638 189.58958 24.034388 188.77708Q24.862513 187.94896 26.346888 187.94896Q27.550013 187.94896 28.237513 188.30833Q28.925013 188.66771 29.315638 189.37083Q29.690638 190.05833 29.690638 190.87083Q29.690638 192.16771 28.862513 192.98021Q28.018763 193.77708 26.440638 193.77708ZM26.440638 192.69896Q27.628138 192.69896 28.221888 192.18333Q28.815638 191.65208 28.815638 190.87083Q28.815638 190.07396 28.221888 189.55833Q27.628138 189.04271 26.409388 189.04271Q25.253138 189.04271 24.659388 189.57396Q24.065638 190.08958 24.065638 190.87083Q24.065638 191.65208 24.659388 192.18333Q25.237513 192.69896 26.440638 192.69896ZM28.612513 184.08958L29.534388 183.93333Q29.628138 184.38646 29.628138 184.73021Q29.628138 185.30833 29.456263 185.62083Q29.268763 185.93333 28.971888 186.07396Q28.675013 186.19896 27.721888 186.19896L24.143763 186.19896L24.143763 186.96458L23.331263 186.96458L23.331263 186.19896L21.784388 186.19896L21.159388 185.15208L23.331263 185.15208L23.331263 184.08958L24.143763 184.08958L24.143763 185.15208L27.784388 185.15208Q28.237513 185.15208 28.362513 185.10521Q28.487513 185.04271 28.565638 184.91771Q28.643763 184.79271 28.643763 184.55833Q28.643763 184.37083 28.612513 184.08958ZM28.784388 179.32396Q29.284388 179.91771 29.487513 180.46458Q29.690638 180.99583 29.690638 181.62083Q29.690638 182.65208 29.190638 183.19896Q28.690638 183.74583 27.909388 183.74583Q27.456263 183.74583 27.081263 183.54271Q26.690638 183.33958 26.471888 182.99583Q26.237513 182.65208 26.128138 182.23021Q26.034388 181.93333 25.956263 181.29271Q25.815638 180.02708 25.596888 179.41771Q25.378138 179.41771 25.331263 179.41771Q24.675013 179.41771 24.409388 179.71458Q24.065638 180.12083 24.065638 180.91771Q24.065638 181.65208 24.331263 182.01146Q24.581263 182.37083 25.237513 182.54271L25.096888 183.57396Q24.440638 183.43333 24.034388 183.10521Q23.628138 182.77708 23.409388 182.16771Q23.190638 181.55833 23.190638 180.76146Q23.190638 179.96458 23.378138 179.46458Q23.565638 178.96458 23.846888 178.73021Q24.128138 178.49583 24.565638 178.40208Q24.831263 178.35521 25.534388 178.35521L26.940638 178.35521Q28.409388 178.35521 28.800013 178.29271Q29.190638 178.21458 29.550013 178.01146L29.550013 179.12083Q29.221888 179.27708 28.784388 179.32396ZM26.425013 179.41771Q26.659388 179.99583 26.831263 181.13646Q26.925013 181.79271 27.050013 182.05833Q27.159388 182.32396 27.378138 182.48021Q27.596888 182.62083 27.878138 182.62083Q28.300013 182.62083 28.581263 182.30833Q28.862513 181.98021 28.862513 181.37083Q28.862513 180.76146 28.596888 180.29271Q28.331263 179.80833 27.862513 179.58958Q27.503138 179.41771 26.815638 179.41771L26.425013 179.41771ZM29.550013 176.41771L20.956263 176.41771L20.956263 175.35521L29.550013 175.35521L29.550013 176.41771Z" fill-rule="nonzero"/><path fill="#000000" d="M65.05 300.21564Q65.05 298.6844 65.3625 297.7625Q65.675 296.825 66.28438 296.325Q66.90938 295.825 67.84688 295.825Q68.53438 295.825 69.05 296.10626Q69.58125 296.3875 69.925 296.91876Q70.26875 297.4344 70.45625 298.1844Q70.64375 298.9344 70.64375 300.21564Q70.64375 301.73126 70.33125 302.65314Q70.03438 303.575 69.40938 304.09064Q68.8 304.59064 67.84688 304.59064Q66.6125 304.59064 65.89375 303.7Q65.05 302.6375 65.05 300.21564ZM66.12813 300.21564Q66.12813 302.325 66.62813 303.02814Q67.12813 303.73126 67.84688 303.73126Q68.58125 303.73126 69.06563 303.02814Q69.56563 302.325 69.56563 300.21564Q69.56563 298.09064 69.06563 297.40314Q68.58125 296.7 67.83125 296.7Q67.1125 296.7 66.675 297.3094Q66.12813 298.09064 66.12813 300.21564Z" fill-rule="nonzero"/><path fill="#000000" d="M69.01875 244.81667L67.97188 244.81667L67.97188 238.09792Q67.58125 238.45729 66.95625 238.83229Q66.34688 239.19167 65.8625 239.36354L65.8625 238.34792Q66.7375 237.92604 67.39375 237.34792Q68.06563 236.75417 68.34688 236.19167L69.01875 236.19167L69.01875 244.81667Z" fill-rule="nonzero"/><path fill="#000000" d="M70.59688 184.16771L70.59688 185.18333L64.90938 185.18333Q64.90938 184.80833 65.03438 184.44896Q65.25313 183.87083 65.72188 183.30833Q66.20625 182.74583 67.1125 182.01146Q68.51875 180.85521 69.00313 180.18333Q69.50313 179.51146 69.50313 178.91771Q69.50313 178.29271 69.05 177.87083Q68.59688 177.43333 67.87813 177.43333Q67.1125 177.43333 66.65938 177.88646Q66.20625 178.33958 66.19063 179.15208L65.1125 179.04271Q65.22188 177.82396 65.94063 177.19896Q66.675 176.55833 67.90938 176.55833Q69.14375 176.55833 69.8625 177.24583Q70.58125 177.93333 70.58125 178.94896Q70.58125 179.46458 70.3625 179.96458Q70.15938 180.44896 69.65938 181.01146Q69.175 181.55833 68.05 182.51146Q67.09688 183.30833 66.81563 183.60521Q66.55 183.88646 66.37813 184.16771L70.59688 184.16771Z" fill-rule="nonzero"/><path fill="#000000" d="M65.05 123.28438L66.1125 123.14375Q66.28438 124.03438 66.72188 124.44063Q67.15938 124.83125 67.78438 124.83125Q68.53438 124.83125 69.05 124.31563Q69.56563 123.8 69.56563 123.03438Q69.56563 122.31563 69.08125 121.84688Q68.6125 121.3625 67.87813 121.3625Q67.58125 121.3625 67.12813 121.4875L67.25313 120.55Q67.3625 120.56563 67.425 120.56563Q68.09688 120.56563 68.62813 120.22188Q69.175 119.8625 69.175 119.12813Q69.175 118.55 68.78438 118.175Q68.39375 117.78438 67.76875 117.78438Q67.15938 117.78438 66.7375 118.175Q66.33125 118.56563 66.22188 119.33125L65.15938 119.14375Q65.34688 118.09688 66.03438 117.51875Q66.72188 116.925 67.7375 116.925Q68.44063 116.925 69.03438 117.2375Q69.62813 117.53438 69.94063 118.05Q70.25313 118.56563 70.25313 119.15938Q70.25313 119.70625 69.95625 120.175Q69.65938 120.62813 69.08125 120.89375Q69.83125 121.06563 70.25313 121.62813Q70.675 122.175 70.675 123.01875Q70.675 124.14375 69.84688 124.925Q69.03438 125.70625 67.78438 125.70625Q66.65938 125.70625 65.90938 125.03438Q65.15938 124.34688 65.05 123.28438Z" fill-rule="nonzero"/><path fill="#000000" d="M68.425 65.916664L68.425 63.854164L64.70625 63.854164L64.70625 62.885414L68.62813 57.322914L69.4875 57.322914L69.4875 62.885414L70.64375 62.885414L70.64375 63.854164L69.4875 63.854164L69.4875 65.916664L68.425 65.916664ZM68.425 62.885414L68.425 59.02604L65.7375 62.885414L68.425 62.885414Z" fill-rule="nonzero"/><path fill="#000000" d="M142.09492 317.45L141.04805 317.45L141.04805 310.73126Q140.65742 311.09064 140.03242 311.46564Q139.42305 311.825 138.93867 311.9969L138.93867 310.98126Q139.81367 310.5594 140.46992 309.98126Q141.1418 309.3875 141.42305 308.825L142.09492 308.825L142.09492 317.45Z" fill-rule="nonzero"/><path fill="#000000" d="M237.85995 316.4344L237.85995 317.45L232.17245 317.45Q232.17245 317.075 232.29745 316.71564Q232.5162 316.1375 232.98495 315.575Q233.46933 315.0125 234.37558 314.27814Q235.78183 313.1219 236.2662 312.45Q236.7662 311.77814 236.7662 311.1844Q236.7662 310.5594 236.31308 310.1375Q235.85995 309.7 235.1412 309.7Q234.37558 309.7 233.92245 310.15314Q233.46933 310.60626 233.4537 311.41876L232.37558 311.3094Q232.48495 310.09064 233.2037 309.46564Q233.93808 308.825 235.17245 308.825Q236.40683 308.825 237.12558 309.5125Q237.84433 310.2 237.84433 311.21564Q237.84433 311.73126 237.62558 312.23126Q237.42245 312.71564 236.92245 313.27814Q236.43808 313.825 235.31308 314.77814Q234.35995 315.575 234.0787 315.8719Q233.81308 316.15314 233.6412 316.4344L237.85995 316.4344Z" fill-rule="nonzero"/><path fill="#000000" d="M326.5 315.1844L327.5625 315.04376Q327.73438 315.9344 328.17188 316.34064Q328.60938 316.73126 329.23438 316.73126Q329.98438 316.73126 330.5 316.21564Q331.01562 315.7 331.01562 314.9344Q331.01562 314.21564 330.53125 313.7469Q330.0625 313.2625 329.32812 313.2625Q329.03125 313.2625 328.57812 313.3875L328.70312 312.45Q328.8125 312.46564 328.875 312.46564Q329.54688 312.46564 330.07812 312.1219Q330.625 311.7625 330.625 311.02814Q330.625 310.45 330.23438 310.075Q329.84375 309.6844 329.21875 309.6844Q328.60938 309.6844 328.1875 310.075Q327.78125 310.46564 327.67188 311.23126L326.60938 311.04376Q326.79688 309.9969 327.48438 309.41876Q328.17188 308.825 329.1875 308.825Q329.89062 308.825 330.48438 309.1375Q331.07812 309.4344 331.39062 309.95Q331.70312 310.46564 331.70312 311.0594Q331.70312 311.60626 331.40625 312.075Q331.10938 312.52814 330.53125 312.79376Q331.28125 312.96564 331.70312 313.52814Q332.125 314.075 332.125 314.91876Q332.125 316.04376 331.29688 316.825Q330.48438 317.60626 329.23438 317.60626Q328.10938 317.60626 327.35938 316.9344Q326.60938 316.2469 326.5 315.1844Z" fill-rule="nonzero"/><path fill="#000000" d="M424.06192 317.45L424.06192 315.3875L420.34317 315.3875L420.34317 314.41876L424.26505 308.85626L425.12442 308.85626L425.12442 314.41876L426.28067 314.41876L426.28067 315.3875L425.12442 315.3875L425.12442 317.45L424.06192 317.45ZM424.06192 314.41876L424.06192 310.5594L421.37442 314.41876L424.06192 314.41876Z" fill-rule="nonzero"/><path fill="#000000" d="M514.87384 315.2L515.9832 315.10626Q516.1082 315.91876 516.5457 316.325Q516.99884 316.73126 517.63947 316.73126Q518.38947 316.73126 518.9207 316.15314Q519.45197 315.575 519.45197 314.6375Q519.45197 313.73126 518.93634 313.21564Q518.43634 312.6844 517.6082 312.6844Q517.1082 312.6844 516.68634 312.91876Q516.2801 313.15314 516.0457 313.5125L515.06134 313.3875L515.88947 308.98126L520.1707 308.98126L520.1707 309.98126L516.7332 309.98126L516.2801 312.29376Q517.0457 311.7469 517.88947 311.7469Q519.01447 311.7469 519.7801 312.52814Q520.56134 313.3094 520.56134 314.54376Q520.56134 315.7 519.88947 316.5594Q519.06134 317.59064 517.63947 317.59064Q516.4676 317.59064 515.7176 316.9344Q514.9832 316.27814 514.87384 315.2Z" fill-rule="nonzero"/><path fill="#757575" d="M23.7375 37.55L23.7375 24.925L19.01875 24.925L19.01875 23.2375L30.3625 23.2375L30.3625 24.925L25.628124 24.925L25.628124 37.55L23.7375 37.55ZM31.8625 37.55L31.8625 23.2375L33.628124 23.2375L33.628124 28.3625Q34.8625 26.940624 36.7375 26.940624Q37.878124 26.940624 38.721874 27.39375Q39.58125 27.846874 39.940624 28.659374Q40.315624 29.45625 40.315624 30.971874L40.315624 37.55L38.565624 37.55L38.565624 30.971874Q38.565624 29.659374 37.9875 29.065624Q37.409374 28.45625 36.378124 28.45625Q35.596874 28.45625 34.89375 28.8625Q34.20625 29.26875 33.909374 29.971874Q33.628124 30.659374 33.628124 31.878124L33.628124 37.55L31.8625 37.55ZM49.971874 34.20625L51.784374 34.440624Q51.3625 36.01875 50.190624 36.909374Q49.034374 37.784374 47.221874 37.784374Q44.95625 37.784374 43.6125 36.39375Q42.284374 34.9875 42.284374 32.45625Q42.284374 29.83125 43.628124 28.39375Q44.971874 26.940624 47.128124 26.940624Q49.20625 26.940624 50.51875 28.3625Q51.846874 29.76875 51.846874 32.346874Q51.846874 32.503124 51.83125 32.815624L44.096874 32.815624Q44.190624 34.51875 45.065624 35.425Q45.940624 36.33125 47.2375 36.33125Q48.20625 36.33125 48.878124 35.83125Q49.565624 35.315624 49.971874 34.20625ZM44.190624 31.3625L49.9875 31.3625Q49.878124 30.065624 49.33125 29.409374Q48.4875 28.39375 47.14375 28.39375Q45.940624 28.39375 45.1125 29.20625Q44.284374 30.003124 44.190624 31.3625ZM59.846874 37.55L59.846874 27.175L61.425 27.175L61.425 28.753124Q62.034374 27.64375 62.55 27.3Q63.065624 26.940624 63.675 26.940624Q64.56563 26.940624 65.4875 27.503124L64.87813 29.14375Q64.2375 28.753124 63.596874 28.753124Q63.01875 28.753124 62.55 29.1125Q62.096874 29.45625 61.89375 30.065624Q61.6125 31.003124 61.6125 32.1125L61.6125 37.55L59.846874 37.55ZM73.97188 34.20625L75.78438 34.440624Q75.3625 36.01875 74.19063 36.909374Q73.03438 37.784374 71.22188 37.784374Q68.95625 37.784374 67.6125 36.39375Q66.28438 34.9875 66.28438 32.45625Q66.28438 29.83125 67.62813 28.39375Q68.97188 26.940624 71.12813 26.940624Q73.20625 26.940624 74.51875 28.3625Q75.84688 29.76875 75.84688 32.346874Q75.84688 32.503124 75.83125 32.815624L68.09688 32.815624Q68.19063 34.51875 69.06563 35.425Q69.94063 36.33125 71.2375 36.33125Q72.20625 36.33125 72.87813 35.83125Q73.56563 35.315624 73.97188 34.20625ZM68.19063 31.3625L73.9875 31.3625Q73.87813 30.065624 73.33125 29.409374Q72.4875 28.39375 71.14375 28.39375Q69.94063 28.39375 69.1125 29.20625Q68.28438 30.003124 68.19063 31.3625ZM77.55 38.409374L79.25313 38.659374Q79.3625 39.45625 79.84688 39.815624Q80.50313 40.3 81.64375 40.3Q82.8625 40.3 83.51875 39.815624Q84.19063 39.33125 84.425 38.45625Q84.56563 37.909374 84.55 36.190624Q83.39375 37.55 81.675 37.55Q79.53438 37.55 78.3625 36.003124Q77.19063 34.45625 77.19063 32.3Q77.19063 30.815624 77.72188 29.565624Q78.26875 28.315624 79.28438 27.628124Q80.31563 26.940624 81.69063 26.940624Q83.51875 26.940624 84.72188 28.425L84.72188 27.175L86.33125 27.175L86.33125 36.14375Q86.33125 38.565624 85.83125 39.565624Q85.34688 40.58125 84.26875 41.159374Q83.20625 41.753124 81.64375 41.753124Q79.8 41.753124 78.64375 40.925Q77.50313 40.096874 77.55 38.409374ZM79.00313 32.175Q79.00313 34.221874 79.81563 35.159374Q80.62813 36.096874 81.84688 36.096874Q83.05 36.096874 83.8625 35.159374Q84.69063 34.221874 84.69063 32.2375Q84.69063 30.33125 83.84688 29.3625Q83.00313 28.39375 81.81563 28.39375Q80.64375 28.39375 79.81563 29.346874Q79.00313 30.3 79.00313 32.175ZM88.87813 25.253124L88.87813 23.2375L90.64375 23.2375L90.64375 25.253124L88.87813 25.253124ZM88.87813 37.55L88.87813 27.175L90.64375 27.175L90.64375 37.55L88.87813 37.55ZM92.15938 34.45625L93.90938 34.175Q94.05 35.221874 94.72188 35.784374Q95.39375 36.33125 96.59688 36.33125Q97.8 36.33125 98.37813 35.846874Q98.97188 35.346874 98.97188 34.690624Q98.97188 34.096874 98.45625 33.753124Q98.09688 33.51875 96.65938 33.159374Q94.72188 32.659374 93.97188 32.315624Q93.2375 31.95625 92.84688 31.33125Q92.45625 30.690624 92.45625 29.925Q92.45625 29.2375 92.76875 28.64375Q93.09688 28.05 93.64375 27.659374Q94.05 27.3625 94.75313 27.159374Q95.47188 26.940624 96.28438 26.940624Q97.50313 26.940624 98.425 27.3Q99.34688 27.64375 99.78438 28.253124Q100.22188 28.846874 100.39375 29.846874L98.675 30.08125Q98.55 29.284374 97.9875 28.846874Q97.425 28.39375 96.40938 28.39375Q95.19063 28.39375 94.675 28.8Q94.15938 29.190624 94.15938 29.721874Q94.15938 30.065624 94.37813 30.346874Q94.58125 30.628124 95.05 30.815624Q95.31563 30.909374 96.59688 31.253124Q98.47188 31.753124 99.20625 32.08125Q99.94063 32.39375 100.3625 33.003124Q100.78438 33.596874 100.78438 34.503124Q100.78438 35.378124 100.26875 36.159374Q99.75313 36.940624 98.78438 37.3625Q97.81563 37.784374 96.59688 37.784374Q94.58125 37.784374 93.51875 36.940624Q92.45625 36.096874 92.15938 34.45625ZM106.70625 35.971874L106.95625 37.534374Q106.22188 37.690624 105.62813 37.690624Q104.675 37.690624 104.14375 37.39375Q103.62813 37.08125 103.40938 36.596874Q103.19063 36.096874 103.19063 34.51875L103.19063 28.55L101.90938 28.55L101.90938 27.175L103.19063 27.175L103.19063 24.6125L104.94063 23.55L104.94063 27.175L106.70625 27.175L106.70625 28.55L104.94063 28.55L104.94063 34.6125Q104.94063 35.3625 105.03438 35.58125Q105.12813 35.784374 105.33125 35.925Q105.55 36.05 105.94063 36.05Q106.22188 36.05 106.70625 35.971874ZM108.84688 37.55L108.84688 27.175L110.425 27.175L110.425 28.753124Q111.03438 27.64375 111.55 27.3Q112.06563 26.940624 112.675 26.940624Q113.56563 26.940624 114.4875 27.503124L113.87813 29.14375Q113.2375 28.753124 112.59688 28.753124Q112.01875 28.753124 111.55 29.1125Q111.09688 29.45625 110.89375 30.065624Q110.6125 31.003124 110.6125 32.1125L110.6125 37.55L108.84688 37.55ZM122.64375 36.26875Q121.65938 37.096874 120.75313 37.440624Q119.84688 37.784374 118.81563 37.784374Q117.1125 37.784374 116.19063 36.95625Q115.26875 36.1125 115.26875 34.815624Q115.26875 34.05 115.6125 33.425Q115.97188 32.8 116.53438 32.425Q117.09688 32.034374 117.8 31.83125Q118.31563 31.70625 119.3625 31.565624Q121.4875 31.315624 122.4875 30.971874Q122.50313 30.6125 122.50313 30.503124Q122.50313 29.440624 122.00313 28.9875Q121.33125 28.39375 120.00313 28.39375Q118.75313 28.39375 118.15938 28.83125Q117.58125 29.26875 117.3 30.378124L115.58125 30.14375Q115.81563 29.034374 116.34688 28.3625Q116.87813 27.675 117.89375 27.315624Q118.90938 26.940624 120.25313 26.940624Q121.58125 26.940624 122.40938 27.253124Q123.2375 27.565624 123.62813 28.05Q124.01875 28.51875 124.175 29.2375Q124.26875 29.690624 124.26875 30.8625L124.26875 33.20625Q124.26875 35.659374 124.37813 36.315624Q124.4875 36.95625 124.83125 37.55L122.9875 37.55Q122.72188 37.003124 122.64375 36.26875ZM122.4875 32.346874Q121.53438 32.7375 119.6125 33.003124Q118.53438 33.159374 118.08125 33.3625Q117.64375 33.55 117.39375 33.925Q117.14375 34.3 117.14375 34.76875Q117.14375 35.471874 117.675 35.940624Q118.20625 36.409374 119.2375 36.409374Q120.25313 36.409374 121.03438 35.971874Q121.83125 35.51875 122.20625 34.753124Q122.4875 34.14375 122.4875 32.9875L122.4875 32.346874ZM130.70625 35.971874L130.95625 37.534374Q130.22188 37.690624 129.62813 37.690624Q128.675 37.690624 128.14375 37.39375Q127.62813 37.08125 127.40938 36.596874Q127.19063 36.096874 127.19063 34.51875L127.19063 28.55L125.90938 28.55L125.90938 27.175L127.19063 27.175L127.19063 24.6125L128.94063 23.55L128.94063 27.175L130.70625 27.175L130.70625 28.55L128.94063 28.55L128.94063 34.6125Q128.94063 35.3625 129.03438 35.58125Q129.12813 35.784374 129.33125 35.925Q129.55 36.05 129.94063 36.05Q130.22188 36.05 130.70625 35.971874ZM132.87813 25.253124L132.87813 23.2375L134.64375 23.2375L134.64375 25.253124L132.87813 25.253124ZM132.87813 37.55L132.87813 27.175L134.64375 27.175L134.64375 37.55L132.87813 37.55ZM136.22188 32.3625Q136.22188 29.4875 137.81563 28.096874Q139.15938 26.940624 141.08125 26.940624Q143.22188 26.940624 144.56563 28.346874Q145.925 29.753124 145.925 32.221874Q145.925 34.221874 145.33125 35.378124Q144.7375 36.51875 143.58125 37.159374Q142.44063 37.784374 141.08125 37.784374Q138.89375 37.784374 137.55 36.39375Q136.22188 34.9875 136.22188 32.3625ZM138.01875 32.3625Q138.01875 34.3625 138.87813 35.346874Q139.75313 36.33125 141.08125 36.33125Q142.39375 36.33125 143.25313 35.346874Q144.12813 34.346874 144.12813 32.3Q144.12813 30.378124 143.25313 29.39375Q142.37813 28.39375 141.08125 28.39375Q139.75313 28.39375 138.87813 29.39375Q138.01875 30.378124 138.01875 32.3625ZM147.8625 37.55L147.8625 27.175L149.45625 27.175L149.45625 28.659374Q150.59688 26.940624 152.75313 26.940624Q153.69063 26.940624 154.47188 27.284374Q155.26875 27.6125 155.65938 28.159374Q156.05 28.70625 156.20625 29.45625Q156.3 29.95625 156.3 31.175L156.3 37.55L154.53438 37.55L154.53438 31.2375Q154.53438 30.159374 154.33125 29.628124Q154.12813 29.096874 153.59688 28.784374Q153.08125 28.471874 152.37813 28.471874Q151.25313 28.471874 150.44063 29.190624Q149.62813 29.89375 149.62813 31.878124L149.62813 37.55L147.8625 37.55ZM164.8625 41.51875L164.8625 27.175L166.47188 27.175L166.47188 28.51875Q167.03438 27.7375 167.7375 27.346874Q168.45625 26.940624 169.47188 26.940624Q170.8 26.940624 171.81563 27.628124Q172.83125 28.315624 173.34688 29.565624Q173.87813 30.8 173.87813 32.284374Q173.87813 33.878124 173.3 35.159374Q172.7375 36.425 171.64375 37.1125Q170.55 37.784374 169.34688 37.784374Q168.47188 37.784374 167.76875 37.409374Q167.08125 37.034374 166.62813 36.471874L166.62813 41.51875L164.8625 41.51875ZM166.45625 32.425Q166.45625 34.425 167.26875 35.378124Q168.08125 36.33125 169.2375 36.33125Q170.40938 36.33125 171.2375 35.346874Q172.08125 34.3625 172.08125 32.26875Q172.08125 30.3 171.25313 29.315624Q170.44063 28.315624 169.31563 28.315624Q168.19063 28.315624 167.31563 29.378124Q166.45625 30.425 166.45625 32.425ZM175.84688 37.55L175.84688 27.175L177.425 27.175L177.425 28.753124Q178.03438 27.64375 178.55 27.3Q179.06563 26.940624 179.675 26.940624Q180.56563 26.940624 181.4875 27.503124L180.87813 29.14375Q180.2375 28.753124 179.59688 28.753124Q179.01875 28.753124 178.55 29.1125Q178.09688 29.45625 177.89375 30.065624Q177.6125 31.003124 177.6125 32.1125L177.6125 37.55L175.84688 37.55ZM182.22188 32.3625Q182.22188 29.4875 183.81563 28.096874Q185.15938 26.940624 187.08125 26.940624Q189.22188 26.940624 190.56563 28.346874Q191.925 29.753124 191.925 32.221874Q191.925 34.221874 191.33125 35.378124Q190.7375 36.51875 189.58125 37.159374Q188.44063 37.784374 187.08125 37.784374Q184.89375 37.784374 183.55 36.39375Q182.22188 34.9875 182.22188 32.3625ZM184.01875 32.3625Q184.01875 34.3625 184.87813 35.346874Q185.75313 36.33125 187.08125 36.33125Q188.39375 36.33125 189.25313 35.346874Q190.12813 34.346874 190.12813 32.3Q190.12813 30.378124 189.25313 29.39375Q188.37813 28.39375 187.08125 28.39375Q185.75313 28.39375 184.87813 29.39375Q184.01875 30.378124 184.01875 32.3625ZM200.64375 33.753124L202.3625 33.971874Q202.08125 35.76875 200.90938 36.784374Q199.75313 37.784374 198.05 37.784374Q195.925 37.784374 194.62813 36.39375Q193.33125 35.003124 193.33125 32.409374Q193.33125 30.721874 193.87813 29.471874Q194.44063 28.20625 195.58125 27.58125Q196.72188 26.940624 198.06563 26.940624Q199.75313 26.940624 200.81563 27.8Q201.89375 28.659374 202.20625 30.221874L200.4875 30.4875Q200.25313 29.440624 199.62813 28.925Q199.00313 28.39375 198.12813 28.39375Q196.8 28.39375 195.97188 29.346874Q195.14375 30.3 195.14375 32.346874Q195.14375 34.440624 195.94063 35.39375Q196.7375 36.33125 198.03438 36.33125Q199.06563 36.33125 199.75313 35.70625Q200.45625 35.065624 200.64375 33.753124ZM210.97188 34.20625L212.78438 34.440624Q212.3625 36.01875 211.19063 36.909374Q210.03438 37.784374 208.22188 37.784374Q205.95625 37.784374 204.6125 36.39375Q203.28438 34.9875 203.28438 32.45625Q203.28438 29.83125 204.62813 28.39375Q205.97188 26.940624 208.12813 26.940624Q210.20625 26.940624 211.51875 28.3625Q212.84688 29.76875 212.84688 32.346874Q212.84688 32.503124 212.83125 32.815624L205.09688 32.815624Q205.19063 34.51875 206.06563 35.425Q206.94063 36.33125 208.2375 36.33125Q209.20625 36.33125 209.87813 35.83125Q210.56563 35.315624 210.97188 34.20625ZM205.19063 31.3625L210.9875 31.3625Q210.87813 30.065624 210.33125 29.409374Q209.4875 28.39375 208.14375 28.39375Q206.94063 28.39375 206.1125 29.20625Q205.28438 30.003124 205.19063 31.3625ZM214.15938 34.45625L215.90938 34.175Q216.05 35.221874 216.72188 35.784374Q217.39375 36.33125 218.59688 36.33125Q219.8 36.33125 220.37813 35.846874Q220.97188 35.346874 220.97188 34.690624Q220.97188 34.096874 220.45625 33.753124Q220.09688 33.51875 218.65938 33.159374Q216.72188 32.659374 215.97188 32.315624Q215.2375 31.95625 214.84688 31.33125Q214.45625 30.690624 214.45625 29.925Q214.45625 29.2375 214.76875 28.64375Q215.09688 28.05 215.64375 27.659374Q216.05 27.3625 216.75313 27.159374Q217.47188 26.940624 218.28438 26.940624Q219.50313 26.940624 220.425 27.3Q221.34688 27.64375 221.78438 28.253124Q222.22188 28.846874 222.39375 29.846874L220.675 30.08125Q220.55 29.284374 219.9875 28.846874Q219.425 28.39375 218.40938 28.39375Q217.19063 28.39375 216.675 28.8Q216.15938 29.190624 216.15938 29.721874Q216.15938 30.065624 216.37813 30.346874Q216.58125 30.628124 217.05 30.815624Q217.31563 30.909374 218.59688 31.253124Q220.47188 31.753124 221.20625 32.08125Q221.94063 32.39375 222.3625 33.003124Q222.78438 33.596874 222.78438 34.503124Q222.78438 35.378124 222.26875 36.159374Q221.75313 36.940624 220.78438 37.3625Q219.81563 37.784374 218.59688 37.784374Q216.58125 37.784374 215.51875 36.940624Q214.45625 36.096874 214.15938 34.45625ZM224.15938 34.45625L225.90938 34.175Q226.05 35.221874 226.72188 35.784374Q227.39375 36.33125 228.59688 36.33125Q229.8 36.33125 230.37813 35.846874Q230.97188 35.346874 230.97188 34.690624Q230.97188 34.096874 230.45625 33.753124Q230.09688 33.51875 228.65938 33.159374Q226.72188 32.659374 225.97188 32.315624Q225.2375 31.95625 224.84688 31.33125Q224.45625 30.690624 224.45625 29.925Q224.45625 29.2375 224.76875 28.64375Q225.09688 28.05 225.64375 27.659374Q226.05 27.3625 226.75313 27.159374Q227.47188 26.940624 228.28438 26.940624Q229.50313 26.940624 230.425 27.3Q231.34688 27.64375 231.78438 28.253124Q232.22188 28.846874 232.39375 29.846874L230.675 30.08125Q230.55 29.284374 229.9875 28.846874Q229.425 28.39375 228.40938 28.39375Q227.19063 28.39375 226.675 28.8Q226.15938 29.190624 226.15938 29.721874Q226.15938 30.065624 226.37813 30.346874Q226.58125 30.628124 227.05 30.815624Q227.31563 30.909374 228.59688 31.253124Q230.47188 31.753124 231.20625 32.08125Q231.94063 32.39375 232.3625 33.003124Q232.78438 33.596874 232.78438 34.503124Q232.78438 35.378124 232.26875 36.159374Q231.75313 36.940624 230.78438 37.3625Q229.81563 37.784374 228.59688 37.784374Q226.58125 37.784374 225.51875 36.940624Q224.45625 36.096874 224.15938 34.45625ZM240.87813 25.253124L240.87813 23.2375L242.64375 23.2375L242.64375 25.253124L240.87813 25.253124ZM240.87813 37.55L240.87813 27.175L242.64375 27.175L242.64375 37.55L240.87813 37.55ZM244.15938 34.45625L245.90938 34.175Q246.05 35.221874 246.72188 35.784374Q247.39375 36.33125 248.59688 36.33125Q249.8 36.33125 250.37813 35.846874Q250.97188 35.346874 250.97188 34.690624Q250.97188 34.096874 250.45625 33.753124Q250.09688 33.51875 248.65938 33.159374Q246.72188 32.659374 245.97188 32.315624Q245.2375 31.95625 244.84688 31.33125Q244.45625 30.690624 244.45625 29.925Q244.45625 29.2375 244.76875 28.64375Q245.09688 28.05 245.64375 27.659374Q246.05 27.3625 246.75313 27.159374Q247.47188 26.940624 248.28438 26.940624Q249.50313 26.940624 250.425 27.3Q251.34688 27.64375 251.78438 28.253124Q252.22188 28.846874 252.39375 29.846874L250.675 30.08125Q250.55 29.284374 249.9875 28.846874Q249.425 28.39375 248.40938 28.39375Q247.19063 28.39375 246.675 28.8Q246.15938 29.190624 246.15938 29.721874Q246.15938 30.065624 246.37813 30.346874Q246.58125 30.628124 247.05 30.815624Q247.31563 30.909374 248.59688 31.253124Q250.47188 31.753124 251.20625 32.08125Q251.94063 32.39375 252.3625 33.003124Q252.78438 33.596874 252.78438 34.503124Q252.78438 35.378124 252.26875 36.159374Q251.75313 36.940624 250.78438 37.3625Q249.81563 37.784374 248.59688 37.784374Q246.58125 37.784374 245.51875 36.940624Q244.45625 36.096874 244.15938 34.45625ZM267.65936 37.55L267.65936 36.01875Q266.45624 37.784374 264.3781 37.784374Q263.45624 37.784374 262.65936 37.440624Q261.8625 37.08125 261.47186 36.55Q261.09686 36.01875 260.9406 35.2375Q260.83124 34.721874 260.83124 33.596874L260.83124 27.175L262.58124 27.175L262.58124 32.925Q262.58124 34.3 262.6906 34.784374Q262.8625 35.471874 263.39374 35.878124Q263.9406 36.26875 264.72186 36.26875Q265.51874 36.26875 266.20624 35.8625Q266.90936 35.45625 267.1906 34.76875Q267.4875 34.065624 267.4875 32.7375L267.4875 27.175L269.2375 27.175L269.2375 37.55L267.65936 37.55ZM271.8625 37.55L271.8625 27.175L273.45624 27.175L273.45624 28.659374Q274.59686 26.940624 276.7531 26.940624Q277.6906 26.940624 278.47186 27.284374Q279.26874 27.6125 279.65936 28.159374Q280.05 28.70625 280.20624 29.45625Q280.3 29.95625 280.3 31.175L280.3 37.55L278.53436 37.55L278.53436 31.2375Q278.53436 30.159374 278.33124 29.628124Q278.1281 29.096874 277.59686 28.784374Q277.08124 28.471874 276.3781 28.471874Q275.2531 28.471874 274.4406 29.190624Q273.6281 29.89375 273.6281 31.878124L273.6281 37.55L271.8625 37.55ZM289.59686 37.55L289.59686 36.2375Q288.6125 37.784374 286.6906 37.784374Q285.45624 37.784374 284.40936 37.096874Q283.3781 36.409374 282.8 35.190624Q282.2375 33.971874 282.2375 32.378124Q282.2375 30.815624 282.7531 29.55Q283.26874 28.284374 284.3 27.6125Q285.34686 26.940624 286.6125 26.940624Q287.55 26.940624 288.28436 27.346874Q289.01874 27.7375 289.4875 28.3625L289.4875 23.2375L291.22186 23.2375L291.22186 37.55L289.59686 37.55ZM284.03436 32.378124Q284.03436 34.3625 284.8781 35.346874Q285.72186 36.33125 286.8625 36.33125Q288.01874 36.33125 288.8156 35.39375Q289.6281 34.45625 289.6281 32.51875Q289.6281 30.39375 288.8 29.39375Q287.9875 28.39375 286.78436 28.39375Q285.6125 28.39375 284.8156 29.3625Q284.03436 30.315624 284.03436 32.378124ZM300.97186 34.20625L302.78436 34.440624Q302.3625 36.01875 301.1906 36.909374Q300.03436 37.784374 298.22186 37.784374Q295.95624 37.784374 294.6125 36.39375Q293.28436 34.9875 293.28436 32.45625Q293.28436 29.83125 294.6281 28.39375Q295.97186 26.940624 298.1281 26.940624Q300.20624 26.940624 301.51874 28.3625Q302.84686 29.76875 302.84686 32.346874Q302.84686 32.503124 302.83124 32.815624L295.09686 32.815624Q295.1906 34.51875 296.0656 35.425Q296.9406 36.33125 298.2375 36.33125Q299.20624 36.33125 299.8781 35.83125Q300.5656 35.315624 300.97186 34.20625ZM295.1906 31.3625L300.9875 31.3625Q300.8781 30.065624 300.33124 29.409374Q299.4875 28.39375 298.14374 28.39375Q296.9406 28.39375 296.1125 29.20625Q295.28436 30.003124 295.1906 31.3625ZM304.84686 37.55L304.84686 27.175L306.425 27.175L306.425 28.753124Q307.03436 27.64375 307.55 27.3Q308.0656 26.940624 308.675 26.940624Q309.5656 26.940624 310.4875 27.503124L309.8781 29.14375Q309.2375 28.753124 308.59686 28.753124Q308.01874 28.753124 307.55 29.1125Q307.09686 29.45625 306.89374 30.065624Q306.6125 31.003124 306.6125 32.1125L306.6125 37.55L304.84686 37.55ZM311.15936 34.45625L312.90936 34.175Q313.05 35.221874 313.72186 35.784374Q314.39374 36.33125 315.59686 36.33125Q316.8 36.33125 317.3781 35.846874Q317.97186 35.346874 317.97186 34.690624Q317.97186 34.096874 317.45624 33.753124Q317.09686 33.51875 315.65936 33.159374Q313.72186 32.659374 312.97186 32.315624Q312.2375 31.95625 311.84686 31.33125Q311.45624 30.690624 311.45624 29.925Q311.45624 29.2375 311.76874 28.64375Q312.09686 28.05 312.64374 27.659374Q313.05 27.3625 313.7531 27.159374Q314.47186 26.940624 315.28436 26.940624Q316.5031 26.940624 317.425 27.3Q318.34686 27.64375 318.78436 28.253124Q319.22186 28.846874 319.39374 29.846874L317.675 30.08125Q317.55 29.284374 316.9875 28.846874Q316.425 28.39375 315.40936 28.39375Q314.1906 28.39375 313.675 28.8Q313.15936 29.190624 313.15936 29.721874Q313.15936 30.065624 313.3781 30.346874Q313.58124 30.628124 314.05 30.815624Q314.3156 30.909374 315.59686 31.253124Q317.47186 31.753124 318.20624 32.08125Q318.9406 32.39375 319.3625 33.003124Q319.78436 33.596874 319.78436 34.503124Q319.78436 35.378124 319.26874 36.159374Q318.7531 36.940624 317.78436 37.3625Q316.8156 37.784374 315.59686 37.784374Q313.58124 37.784374 312.51874 36.940624Q311.45624 36.096874 311.15936 34.45625ZM325.70624 35.971874L325.95624 37.534374Q325.22186 37.690624 324.6281 37.690624Q323.675 37.690624 323.14374 37.39375Q322.6281 37.08125 322.40936 36.596874Q322.1906 36.096874 322.1906 34.51875L322.1906 28.55L320.90936 28.55L320.90936 27.175L322.1906 27.175L322.1906 24.6125L323.9406 23.55L323.9406 27.175L325.70624 27.175L325.70624 28.55L323.9406 28.55L323.9406 34.6125Q323.9406 35.3625 324.03436 35.58125Q324.1281 35.784374 324.33124 35.925Q324.55 36.05 324.9406 36.05Q325.22186 36.05 325.70624 35.971874ZM334.64374 36.26875Q333.65936 37.096874 332.7531 37.440624Q331.84686 37.784374 330.8156 37.784374Q329.1125 37.784374 328.1906 36.95625Q327.26874 36.1125 327.26874 34.815624Q327.26874 34.05 327.6125 33.425Q327.97186 32.8 328.53436 32.425Q329.09686 32.034374 329.8 31.83125Q330.3156 31.70625 331.3625 31.565624Q333.4875 31.315624 334.4875 30.971874Q334.5031 30.6125 334.5031 30.503124Q334.5031 29.440624 334.0031 28.9875Q333.33124 28.39375 332.0031 28.39375Q330.7531 28.39375 330.15936 28.83125Q329.58124 29.26875 329.3 30.378124L327.58124 30.14375Q327.8156 29.034374 328.34686 28.3625Q328.8781 27.675 329.89374 27.315624Q330.90936 26.940624 332.2531 26.940624Q333.58124 26.940624 334.40936 27.253124Q335.2375 27.565624 335.6281 28.05Q336.01874 28.51875 336.175 29.2375Q336.26874 29.690624 336.26874 30.8625L336.26874 33.20625Q336.26874 35.659374 336.3781 36.315624Q336.4875 36.95625 336.83124 37.55L334.9875 37.55Q334.72186 37.003124 334.64374 36.26875ZM334.4875 32.346874Q333.53436 32.7375 331.6125 33.003124Q330.53436 33.159374 330.08124 33.3625Q329.64374 33.55 329.39374 33.925Q329.14374 34.3 329.14374 34.76875Q329.14374 35.471874 329.675 35.940624Q330.20624 36.409374 331.2375 36.409374Q332.2531 36.409374 333.03436 35.971874Q333.83124 35.51875 334.20624 34.753124Q334.4875 34.14375 334.4875 32.9875L334.4875 32.346874ZM338.8625 37.55L338.8625 27.175L340.45624 27.175L340.45624 28.659374Q341.59686 26.940624 343.7531 26.940624Q344.6906 26.940624 345.47186 27.284374Q346.26874 27.6125 346.65936 28.159374Q347.05 28.70625 347.20624 29.45625Q347.3 29.95625 347.3 31.175L347.3 37.55L345.53436 37.55L345.53436 31.2375Q345.53436 30.159374 345.33124 29.628124Q345.1281 29.096874 344.59686 28.784374Q344.08124 28.471874 343.3781 28.471874Q342.2531 28.471874 341.4406 29.190624Q340.6281 29.89375 340.6281 31.878124L340.6281 37.55L338.8625 37.55ZM356.59686 37.55L356.59686 36.2375Q355.6125 37.784374 353.6906 37.784374Q352.45624 37.784374 351.40936 37.096874Q350.3781 36.409374 349.8 35.190624Q349.2375 33.971874 349.2375 32.378124Q349.2375 30.815624 349.7531 29.55Q350.26874 28.284374 351.3 27.6125Q352.34686 26.940624 353.6125 26.940624Q354.55 26.940624 355.28436 27.346874Q356.01874 27.7375 356.4875 28.3625L356.4875 23.2375L358.22186 23.2375L358.22186 37.55L356.59686 37.55ZM351.03436 32.378124Q351.03436 34.3625 351.8781 35.346874Q352.72186 36.33125 353.8625 36.33125Q355.01874 36.33125 355.8156 35.39375Q356.6281 34.45625 356.6281 32.51875Q356.6281 30.39375 355.8 29.39375Q354.9875 28.39375 353.78436 28.39375Q352.6125 28.39375 351.8156 29.3625Q351.03436 30.315624 351.03436 32.378124ZM367.64374 36.26875Q366.65936 37.096874 365.7531 37.440624Q364.84686 37.784374 363.8156 37.784374Q362.1125 37.784374 361.1906 36.95625Q360.26874 36.1125 360.26874 34.815624Q360.26874 34.05 360.6125 33.425Q360.97186 32.8 361.53436 32.425Q362.09686 32.034374 362.8 31.83125Q363.3156 31.70625 364.3625 31.565624Q366.4875 31.315624 367.4875 30.971874Q367.5031 30.6125 367.5031 30.503124Q367.5031 29.440624 367.0031 28.9875Q366.33124 28.39375 365.0031 28.39375Q363.7531 28.39375 363.15936 28.83125Q362.58124 29.26875 362.3 30.378124L360.58124 30.14375Q360.8156 29.034374 361.34686 28.3625Q361.8781 27.675 362.89374 27.315624Q363.90936 26.940624 365.2531 26.940624Q366.58124 26.940624 367.40936 27.253124Q368.2375 27.565624 368.6281 28.05Q369.01874 28.51875 369.175 29.2375Q369.26874 29.690624 369.26874 30.8625L369.26874 33.20625Q369.26874 35.659374 369.3781 36.315624Q369.4875 36.95625 369.83124 37.55L367.9875 37.55Q367.72186 37.003124 367.64374 36.26875ZM367.4875 32.346874Q366.53436 32.7375 364.6125 33.003124Q363.53436 33.159374 363.08124 33.3625Q362.64374 33.55 362.39374 33.925Q362.14374 34.3 362.14374 34.76875Q362.14374 35.471874 362.675 35.940624Q363.20624 36.409374 364.2375 36.409374Q365.2531 36.409374 366.03436 35.971874Q366.83124 35.51875 367.20624 34.753124Q367.4875 34.14375 367.4875 32.9875L367.4875 32.346874ZM373.4875 37.55L371.8625 37.55L371.8625 23.2375L373.6125 23.2375L373.6125 28.346874Q374.7375 26.940624 376.45624 26.940624Q377.40936 26.940624 378.26874 27.33125Q379.1281 27.721874 379.675 28.425Q380.22186 29.1125 380.53436 30.096874Q380.84686 31.08125 380.84686 32.20625Q380.84686 34.878124 379.53436 36.33125Q378.22186 37.784374 376.3781 37.784374Q374.53436 37.784374 373.4875 36.253124L373.4875 37.55ZM373.47186 32.284374Q373.47186 34.14375 373.97186 34.9875Q374.8156 36.33125 376.22186 36.33125Q377.3781 36.33125 378.20624 35.33125Q379.05 34.33125 379.05 32.346874Q379.05 30.315624 378.2375 29.3625Q377.4406 28.39375 376.3 28.39375Q375.14374 28.39375 374.3 29.39375Q373.47186 30.39375 373.47186 32.284374ZM382.83124 37.55L382.83124 23.2375L384.58124 23.2375L384.58124 37.55L382.83124 37.55ZM393.97186 34.20625L395.78436 34.440624Q395.3625 36.01875 394.1906 36.909374Q393.03436 37.784374 391.22186 37.784374Q388.95624 37.784374 387.6125 36.39375Q386.28436 34.9875 386.28436 32.45625Q386.28436 29.83125 387.6281 28.39375Q388.97186 26.940624 391.1281 26.940624Q393.20624 26.940624 394.51874 28.3625Q395.84686 29.76875 395.84686 32.346874Q395.84686 32.503124 395.83124 32.815624L388.09686 32.815624Q388.1906 34.51875 389.0656 35.425Q389.9406 36.33125 391.2375 36.33125Q392.20624 36.33125 392.8781 35.83125Q393.5656 35.315624 393.97186 34.20625ZM388.1906 31.3625L393.9875 31.3625Q393.8781 30.065624 393.33124 29.409374Q392.4875 28.39375 391.14374 28.39375Q389.9406 28.39375 389.1125 29.20625Q388.28436 30.003124 388.1906 31.3625ZM398.3625 37.55L398.3625 35.55L400.3625 35.55L400.3625 37.55L398.3625 37.55Z" fill-rule="nonzero"/></svg>